<?xml version="1.0" encoding="UTF-8" standalone="no"?>
<!-- Created with Inkscape (http://www.inkscape.org/) -->

<svg
   xmlns:dc="http://purl.org/dc/elements/1.1/"
   xmlns:cc="http://creativecommons.org/ns#"
   xmlns:rdf="http://www.w3.org/1999/02/22-rdf-syntax-ns#"
   xmlns:svg="http://www.w3.org/2000/svg"
   xmlns="http://www.w3.org/2000/svg"
   xmlns:sodipodi="http://sodipodi.sourceforge.net/DTD/sodipodi-0.dtd"
   xmlns:inkscape="http://www.inkscape.org/namespaces/inkscape"
   version="1.1"
   id="svg5096"
   width="800"
   height="600"
   viewBox="0 0 800 600"
   sodipodi:docname="yolked_logo.svg"
   inkscape:version="0.92.3 (2405546, 2018-03-11)">
  <metadata
     id="metadata5102">
    <rdf:RDF>
      <cc:Work
         rdf:about="">
        <dc:format>image/svg+xml</dc:format>
        <dc:type
           rdf:resource="http://purl.org/dc/dcmitype/StillImage" />
        <dc:title />
      </cc:Work>
    </rdf:RDF>
  </metadata>
  <defs
     id="defs5100" />
  <sodipodi:namedview
     pagecolor="#ffffff"
     bordercolor="#666666"
     borderopacity="1"
     objecttolerance="10"
     gridtolerance="10"
     guidetolerance="10"
     inkscape:pageopacity="0"
     inkscape:pageshadow="2"
     inkscape:window-width="1920"
     inkscape:window-height="1001"
     id="namedview5098"
     showgrid="false"
     inkscape:zoom="0.78666665"
     inkscape:cx="739.20844"
     inkscape:cy="286.32787"
     inkscape:window-x="-9"
     inkscape:window-y="-9"
     inkscape:window-maximized="1"
     inkscape:current-layer="svg5096" />
  <g
     id="g5690"
     transform="matrix(1.9386969,0,0,1.9664605,-376.84289,-299.67399)"
     style="stroke-width:0.51215613">
    <path
       style="fill:#fad45a;stroke-width:0.51215613"
       d="m 389.5,367.60016 c -26.10783,-5.03988 -46.98368,-24.62158 -53.528,-50.20964 -2.73096,-10.67793 -2.69084,-26.33669 0.0932,-36.38325 5.45366,-19.68017 18.69398,-35.98531 36.00229,-44.33596 14.97366,-7.22425 28.13171,-9.13612 43.09454,-6.26162 21.39331,4.10985 38.96226,17.56975 48.35554,37.04608 9.98591,20.70509 9.91586,41.50545 -0.21062,62.54423 -8.31588,17.27709 -25.82385,31.73309 -44.16992,36.4703 -8.80436,2.2734 -21.25444,2.74804 -29.63703,1.12986 z"
       id="path5698"
       inkscape:connector-curvature="0" />
    <path
       style="fill:#f9cb36;stroke-width:0.51215613"
       d="m 392.53573,366.93391 c -14.32897,-2.19949 -26.83804,-8.41063 -37.02246,-18.3828 -13.15213,-12.87803 -19.49979,-27.37032 -20.29459,-46.33442 -0.57789,-13.78826 1.1058,-21.94702 7.06114,-34.21669 3.36832,-6.93967 5.78644,-10.15926 13.17292,-17.53893 14.40855,-14.39529 27.8603,-19.93561 48.04726,-19.78906 8.97771,0.0652 12.47076,0.55757 19,2.67834 25.27035,8.20805 42.65864,28.96586 46.54849,55.56869 4.26626,29.1771 -11.12055,58.53631 -37.69623,71.9273 -10.22999,5.1547 -27.37595,7.84369 -38.81653,6.08757 z"
       id="path5696"
       inkscape:connector-curvature="0" />
    <path
       style="fill:#000000;stroke-width:0.51215613"
       d="m 402.69598,331.74624 c -3.806,-2.36334 -7.67699,-7.14393 -7.68939,-9.49624 -0.008,-1.4699 3.56255,-5.25 4.95861,-5.25 0.53087,0 2.45354,1.30678 4.27262,2.90395 5.34374,4.69186 9.12817,4.54716 10.76471,-0.41163 1.87301,-5.67525 6.79208,-7.26161 9.53523,-3.07503 2.21852,3.38588 0.51458,9.1704 -3.98635,13.53288 -4.73864,4.59287 -12.15067,5.33844 -17.85543,1.79607 z m -29.12135,-15.66377 c -2.33448,-2.57957 -1.66605,-5.94189 1.67537,-8.42739 l 2.75,-2.04558 2.75,2.05123 c 3.39526,2.53252 3.89416,4.70721 1.80974,7.88844 -1.97615,3.01599 -6.49555,3.28423 -8.98511,0.5333 z m 56.9968,-9.6539 C 427.21393,303.07107 429.95344,296 434.61172,296 c 2.45839,0 5.63828,3.65599 5.63828,6.48244 0,4.87133 -6.21813,7.40657 -9.67857,3.94613 z"
       id="path5694"
       inkscape:connector-curvature="0" />
    <path
       style="fill:#000000;stroke-width:0.51215613"
       d="m 406.31524,331.89812 c -4.64651,-1.34444 -9.49504,-6.53925 -9.11905,-9.7703 0.43464,-3.73494 3.25812,-3.81412 7.36688,-0.20659 5.49689,4.82634 9.27302,4.10865 11.93772,-2.26888 1.34427,-3.21728 1.98037,-3.73119 4.28879,-3.46495 2.49069,0.28726 2.70335,0.65814 2.6232,4.57487 -0.0998,4.87799 -2.91913,8.64601 -8.13066,10.86661 -3.62416,1.54423 -4.47241,1.5697 -8.96688,0.26924 z m -31.26956,-16.34308 c -2.84426,-3.42712 1.07853,-9.22068 4.70432,-6.9478 3.56834,2.23687 2.28475,8.39276 -1.75,8.39276 -0.96531,0 -2.29475,-0.65023 -2.95432,-1.44496 z m 56.45064,-10.5591 C 427.81375,300.92674 433.916,295.316 437.8,299.2 c 1.66087,1.66087 1.50009,4.35705 -0.37143,6.22857 -2.10017,2.10017 -3.74891,1.97993 -5.93225,-0.43263 z"
       id="path5692"
       inkscape:connector-curvature="0" />
  </g>
  <path
     style="fill:#f9f9f9;stroke:none;stroke-width:1"
     d="m 368.46909,598.55159 c -22.22944,-3.95165 -48.15821,-14.93762 -59.88784,-25.37435 -16.54615,-14.72233 -25.64538,-27.64399 -38.66709,-54.9105 -12.13054,-25.40045 -15.11978,-30.05486 -27.11913,-42.22606 -12.08394,-12.257 -20.59434,-17.88916 -44.81425,-29.65804 -38.95823,-18.93045 -42.66413,-20.81097 -53.69881,-27.24885 -48.558593,-28.33017 -63.225811,-43.58288 -72.898066,-75.80807 -2.911672,-9.70086 -3.306138,-13.12711 -3.352338,-29.11769 -0.04381,-15.2012 0.39978,-19.73519 2.752078,-28.12204 3.978129,-14.18369 11.458125,-27.65826 23.857523,-42.97744 24.457123,-30.21617 35.999683,-47.2841 39.713093,-58.72358 1.03334,-3.18324 4.35232,-20.6924 7.37549,-38.90925 3.0232,-18.21683 6.6234,-36.7774 8.00047,-41.24568 6.61526,-21.465238 28.1082,-42.352848 54.45088,-52.917378 22.73132,-9.11622 55.83828,-9.41734 95.97705,-0.87295 30.91566,6.58105 45.83656,7.57842 60.39132,4.03679 15.40176,-3.74772 22.36074,-6.71444 38.8026,-16.54214 29.08762,-17.38637 50.76825,-26.23094 75.16561,-30.6636693 17.2962,-3.14254 60.34833,-3.21929 72.57416,-0.1294 18.46717,4.6673193 34.52951,17.0957793 42.055,32.5406393 5.40788,11.09882 8.4169,25.9348 10.95259,54.00169 2.08839,23.115838 4.01392,30.633468 11.32395,44.210828 7.7049,14.31073 17.5508,26.44959 36.05568,44.45239 50.10987,48.75033 58.24713,58.47817 69.66111,83.27764 10.71153,23.27329 13.92026,41.06872 11.93106,66.16915 -1.04561,13.19388 -1.44159,14.63776 -7.45433,27.18183 -16.94208,35.34522 -34.93629,49.41631 -85.06195,66.51647 -34.16891,11.65661 -54.12779,22.68688 -75.16558,41.5403 -10.40201,9.32195 -15.36589,14.65873 -41.53487,44.65508 -16.05421,18.40221 -38.1486,40.49074 -50.26573,50.25235 -12.4219,10.00717 -31.86078,22.61983 -43.85069,28.45196 -16.67129,8.10926 -39.36484,11.34272 -57.26899,8.15994 z m 69.45947,-174.8828 c 28.4839,-7.9766 54.94415,-26.32662 73.04039,-50.65308 7.86019,-10.56631 18.49275,-31.6521 22.5145,-44.64913 7.5945,-24.54318 7.59167,-57.55934 -0.008,-82.06149 -7.59885,-24.5026 -19.19041,-42.84656 -38.71085,-61.2609 -19.0487,-17.96936 -36.44686,-27.93552 -58.62382,-33.58142 -16.0084,-4.07546 -48.01755,-4.07786 -63.83909,-0.005 -26.32871,6.77808 -42.03819,16.02082 -63.08638,37.11726 -34.36009,34.43879 -47.62069,74.30048 -40.54809,121.88836 7.93943,53.42058 42.88253,95.27492 93.25778,111.70282 14.72411,4.80171 22.51998,5.70229 44.8195,5.1776 16.42779,-0.38653 21.62787,-0.99943 31.18315,-3.67526 z"
     id="path5712"
     inkscape:connector-curvature="0" />
</svg>
