<?xml version="1.0" encoding="UTF-8" standalone="no"?>
<!-- Created with Inkscape (http://www.inkscape.org/) -->

<svg
   xmlns:dc="http://purl.org/dc/elements/1.1/"
   xmlns:cc="http://creativecommons.org/ns#"
   xmlns:rdf="http://www.w3.org/1999/02/22-rdf-syntax-ns#"
   xmlns:svg="http://www.w3.org/2000/svg"
   xmlns="http://www.w3.org/2000/svg"
   xmlns:sodipodi="http://sodipodi.sourceforge.net/DTD/sodipodi-0.dtd"
   xmlns:inkscape="http://www.inkscape.org/namespaces/inkscape"
   version="1.1"
   id="svg821"
   width="800"
   height="600"
   viewBox="0 0 800 600"
   sodipodi:docname="yolked_text.svg"
   inkscape:version="0.92.3 (2405546, 2018-03-11)">
  <metadata
     id="metadata827">
    <rdf:RDF>
      <cc:Work
         rdf:about="">
        <dc:format>image/svg+xml</dc:format>
        <dc:type
           rdf:resource="http://purl.org/dc/dcmitype/StillImage" />
        <dc:title />
      </cc:Work>
    </rdf:RDF>
  </metadata>
  <defs
     id="defs825" />
  <sodipodi:namedview
     pagecolor="#ffffff"
     bordercolor="#666666"
     borderopacity="1"
     objecttolerance="10"
     gridtolerance="10"
     guidetolerance="10"
     inkscape:pageopacity="0"
     inkscape:pageshadow="2"
     inkscape:window-width="1920"
     inkscape:window-height="1017"
     id="namedview823"
     showgrid="false"
     inkscape:zoom="1.1125147"
     inkscape:cx="21.613934"
     inkscape:cy="314.06634"
     inkscape:window-x="1912"
     inkscape:window-y="-8"
     inkscape:window-maximized="1"
     inkscape:current-layer="svg821" />
  <g
     id="g1376"
     transform="translate(1.9527296,-0.15876036)" />
  <path
     style="fill:#ffffff;stroke:none;stroke-width:0.99999988"
     d="m 58.216049,332.91982 c -14.576803,-2.77435 -23.65884,-10.38847 -23.624575,-19.80618 0.02965,-8.15243 4.110149,-16.06371 15.120697,-29.31616 6.568498,-7.90594 11.176524,-14.85375 12.98004,-19.57083 2.809412,-7.34801 3.519344,-11.54129 1.953987,-11.54129 -0.463213,0 -4.16975,2.45683 -8.236753,5.4596 -17.04102,12.58181 -32.420837,13.3207 -44.138875,2.12052 -7.7908261,-7.44652 -9.5621521,-12.45096 -9.5940195,-27.10542 -0.026889,-12.4012 0.4068079,-14.64741 5.8805532,-30.45217 9.3766803,-27.07404 20.7675013,-54.36926 23.5331373,-56.39119 1.397246,-1.02153 4.518171,-1.85731 6.935402,-1.85731 5.546669,0 16.24154,4.00535 18.908655,7.0815 3.546832,4.09077 2.308661,12.56937 -4.261234,29.17979 -15.031474,38.0035 -18.911453,51.76157 -16.650161,59.04007 1.407002,4.52872 6.557587,3.80404 12.443242,-1.75077 12.243957,-11.55566 32.919958,-44.9074 47.237319,-76.19686 3.354456,-7.33089 6.870526,-13.72471 7.813476,-14.2085 3.21202,-1.64791 12.72303,-0.92533 17.26469,1.31167 2.4757,1.21941 5.77036,3.85344 7.32148,5.85342 4.13648,5.33352 2.84721,10.8687 -9.29317,39.89761 -14.85849,35.52823 -14.52789,34.58769 -12.15716,34.58769 4.37694,0 30.36214,-28.93017 44.09484,-49.0922 9.51719,-13.97293 15.34944,-20.61334 23.02441,-26.21483 9.87521,-7.20732 25.91284,-11.40379 36.32898,-9.50598 5.36871,0.97817 14.59724,7.10699 14.59724,9.69427 0,0.78594 1.52112,2.23416 3.38026,3.21823 1.85914,0.98408 5.42715,4.36615 7.92896,7.5157 4.54045,5.71606 4.55033,5.75969 5.44002,23.99463 0.5543,11.36056 1.49248,18.7538 2.48113,19.55249 2.40047,1.93921 16.01514,-4.1361 17.87535,-7.97658 0.79496,-1.64124 3.3528,-9.36106 5.68406,-17.15512 11.60023,-38.78283 32.24247,-74.8461 51.95727,-90.772622 8.57245,-6.92522 14.33862,-8.70634 26.20911,-8.09573 11.23746,0.57806 18.84991,4.5881 23.96383,12.62352 3.3239,5.222802 3.54157,6.539492 3.41216,20.641042 -0.1509,16.44274 -2.94419,26.59466 -11.52321,41.87962 -13.75059,24.49894 -39.4309,46.19103 -56.8998,48.06307 -8.07754,0.86564 -8.76301,2.12279 -7.79578,14.29797 0.82317,10.36214 5.10856,17.94736 11.53924,20.42468 4.22933,1.62927 5.08908,1.6109 11.21999,-0.23976 5.03724,-1.52051 10.13978,-4.86165 21.142,-13.84377 28.63255,-23.37534 42.98663,-43.68042 62.00362,-87.7093 6.89129,-15.95498 14.89691,-34.02982 17.79029,-40.16636 l 5.26066,-11.157312 6.87749,-0.32841 c 7.74463,-0.36981 14.71872,1.59155 21.11206,5.93748 5.52516,3.75577 7.36775,9.142292 5.66394,16.557722 -1.47337,6.41253 -11.44026,23.70601 -21.93645,38.06177 -6.56121,8.97385 -9.73114,15.08333 -7.82602,15.08333 0.46967,0 5.46122,-3.45104 11.09232,-7.66899 11.82241,-8.85552 19.73788,-12.31333 30.18016,-13.18398 14.97164,-1.24829 26.47525,6.49746 29.93398,20.15549 2.9998,11.84583 -4.37637,29.09985 -17.46981,40.86453 -7.56985,6.80167 -23.35597,16.06147 -30.58773,17.94211 -9.75827,2.53769 -10.86026,5.46128 -4.87106,12.92313 9.79626,12.20499 22.61985,10.69448 41.90491,-4.93604 10.20026,-8.26732 11.35101,-9.75561 26.94982,-34.85576 17.53622,-28.21761 21.40729,-32.85069 34.39483,-41.16538 15.51313,-9.93161 25.67147,-12.40428 42.15156,-10.26023 12.01893,1.56367 18.21902,5.09026 23.09038,13.1337 12.35855,20.40618 -2.37015,50.44236 -30.25515,61.69912 -7.74841,3.12792 -9.4259,3.37035 -23.32069,3.37035 h -14.97171 v 3.12877 c 0,3.76841 6.39235,12.23473 11.89725,15.75726 3.49953,2.23931 4.99077,2.46683 12.22698,1.86554 13.24263,-1.10042 24.25467,-5.99008 37.34784,-16.58356 12.87305,-10.41537 23.38812,-22.7361 28.90454,-33.868 11.01438,-22.2266 30.40418,-40.50813 49.11646,-46.30905 12.17148,-3.77323 23.67396,-3.97624 35.48684,-0.62632 7.61853,2.16047 10.25834,2.50409 11.31744,1.47316 0.75972,-0.73951 5.75458,-12.87456 11.09971,-26.96682 5.34511,-14.09225 10.68809,-27.314472 11.87327,-29.382732 2.12152,-3.70229 2.27013,-3.75275 9.60505,-3.26137 9.72225,0.65132 16.33952,4.29084 20.77243,11.4249 8.73153,14.052002 0.95621,36.168382 -23.55606,67.003772 -8.65236,10.88431 -11.36488,15.41379 -14.5009,24.21433 -5.20484,14.6061 -8.23411,29.51383 -8.23411,40.5218 0,7.79283 0.41348,9.41647 2.85199,11.19925 2.79255,2.04161 2.97945,2.03045 8.96662,-0.53542 7.19331,-3.08277 13.2909,-9.98107 21.48868,-24.31052 3.0859,-5.39405 6.08796,-10.56048 6.67127,-11.48097 2.59448,-4.09428 10.47589,-1.62475 15.32699,4.80248 5.13303,6.80077 2.5342,16.66287 -7.7312,29.33872 -7.34601,9.07096 -25.21467,23.38553 -32.54645,26.07295 -7.26987,2.66474 -19.9381,2.9703 -26.82127,0.64697 -6.25841,-2.11247 -13.87462,-8.87469 -16.7109,-14.83717 -1.2406,-2.60803 -2.94808,-4.73996 -3.7944,-4.73761 -0.84632,0.002 -4.05933,2.63825 -7.13998,5.85758 -3.0807,3.21934 -9.19058,7.84754 -13.57755,10.2849 -7.02615,3.90364 -9.10747,4.48317 -17.47213,4.865 -7.709,0.35191 -10.68019,-0.0297 -15.78995,-2.02799 -7.50559,-2.93522 -16.36288,-12.24716 -19.33213,-20.32445 -1.08961,-2.96409 -2.38595,-5.91842 -2.88074,-6.56518 -0.51923,-0.67868 -5.07407,2.07572 -10.77158,6.51375 -10.73313,8.36048 -23.65527,15.851 -33.80694,19.59669 -5.46846,2.0177 -9.07604,2.38407 -23.71365,2.40812 -16.55026,0.0272 -17.56682,-0.10712 -24.58883,-3.24975 -9.08717,-4.0668 -15.51531,-9.72033 -20.96086,-18.43506 l -4.19714,-6.71681 -13.45265,10.92051 c -17.63066,14.31213 -24.07867,17.09878 -41.24282,17.82406 -11.77226,0.49744 -13.47195,0.29995 -20.15551,-2.3419 -4.01451,-1.58684 -9.59847,-4.79232 -12.40886,-7.12331 -5.56576,-4.61639 -14.91648,-18.16502 -14.91648,-21.61307 0,-3.17153 -2.61078,-2.61283 -4.28915,0.91787 -0.80222,1.68754 -2.72719,8.15857 -4.27772,14.38002 -3.2058,12.86316 -3.52837,13.47186 -7.316,13.8057 -7.29341,0.64285 -11.82796,-0.21769 -15.96471,-3.02966 -6.07144,-4.12712 -8.08157,-8.62647 -9.1166,-20.40612 -0.48567,-5.52733 -1.27013,-10.04967 -1.74326,-10.04967 -0.47313,0 -2.05652,1.79452 -3.51865,3.98783 -3.59438,5.39185 -18.17132,17.12087 -29.1271,23.43653 -10.84307,6.25066 -18.59295,8.27906 -31.63189,8.27906 -20.3825,0 -34.03019,-9.95024 -41.38427,-30.17242 -3.46362,-9.5242 -3.08269,-9.32382 -16.06263,-8.44933 -6.26781,0.42227 -11.79551,0.96724 -12.28382,1.21102 -0.4883,0.2438 -4.25892,5.04404 -8.37915,10.66721 -9.14384,12.4792 -20.12612,21.11437 -31.05429,24.41744 -9.94056,3.00458 -24.05886,3.09486 -31.76173,0.2031 -10.81599,-4.06046 -20.90461,-15.55675 -24.55945,-27.98624 -0.90471,-3.07682 -2.04407,-5.5942 -2.53191,-5.5942 -2.28207,0 -46.914486,40.53218 -50.082996,45.48204 -1.895308,2.96086 -14.670084,47.18664 -14.670084,50.7873 0,2.22965 -4.567494,5.28268 -7.704905,5.15018 -1.459413,-0.0617 -4.993784,-0.55751 -7.854146,-1.1019 z M 192.42545,240.88459 c 5.62318,-3.82241 12.556,-15.69944 12.556,-21.51045 0,-2.49757 -1.31374,-7.19554 -2.91945,-10.43993 -4.17653,-8.4388 -5.05218,-23.12221 -1.98661,-33.31153 1.30945,-4.35236 2.05119,-8.17968 1.64827,-8.50517 -1.25179,-1.01125 -7.90962,5.52277 -11.58717,11.3717 -7.41053,11.78599 -14.15853,32.83406 -14.15853,44.16264 0,7.23528 2.905,15.74579 6.31507,18.5006 4.06426,3.28327 4.94242,3.26007 10.13242,-0.26786 z m 491.72029,-0.0283 c 5.38823,-3.66269 26.95107,-38.65484 33.86424,-54.95483 4.31345,-10.17033 4.6914,-11.90874 3.15347,-14.5045 -2.11986,-3.57798 -9.61906,-5.83146 -15.14531,-4.5511 -16.30371,3.77737 -33.03403,29.81152 -35.16193,54.71566 -0.96979,11.35009 0.10877,17.06071 3.78294,20.02884 3.48241,2.81327 4.3913,2.74309 9.50659,-0.73407 z m -230.64223,-46.8664 c 9.62885,-7.20165 15.22206,-15.22275 16.25547,-23.31171 0.64037,-5.01235 0.37385,-6.21291 -1.50888,-6.79656 -3.72105,-1.15352 -10.36044,1.76821 -17.69304,7.78601 -11.19299,9.18594 -30.06738,33.75061 -28.00439,36.44718 1.3877,1.81389 22.55723,-7.84716 30.95084,-14.12492 z m 113.66501,8.20864 c 12.43719,-4.21475 21.54085,-15.47123 22.80548,-28.19843 0.8595,-8.65005 -0.92165,-11.68894 -6.85111,-11.68894 -3.31729,0 -5.6505,1.12889 -9.96454,4.82125 -10.28884,8.80617 -21.51588,27.26124 -21.51588,35.36795 0,3.08234 0.2557,3.23006 4.48864,2.59299 2.46876,-0.37156 7.43559,-1.67423 11.03741,-2.89482 z M 315.0951,178.21028 c 19.8053,-18.67711 30.39868,-38.94841 31.77671,-60.80738 0.65725,-10.42548 0.47191,-11.99412 -1.41707,-11.99412 -6.02742,0 -21.5558,26.97501 -34.66519,60.21835 -3.50211,8.88081 -6.36749,16.78857 -6.36749,17.57278 0,3.0853 4.18498,1.12883 10.67304,-4.98963 z"
     id="path1407"
     inkscape:connector-curvature="0" />
  <path
     style="fill:#a0a0a0;stroke:none;stroke-width:0.99999988"
     d="m 56.511116,332.57309 c -9.516258,-2.4313 -14.385921,-5.04012 -18.279083,-9.79265 -3.100889,-3.78538 -3.733027,-5.73886 -3.581388,-11.06753 0.22745,-7.99318 4.017988,-14.98329 15.587491,-28.74489 4.692105,-5.58111 9.678759,-12.7951 11.081444,-16.03107 2.879938,-6.64393 4.861613,-14.25159 3.712315,-14.25159 -0.42013,0 -4.292949,2.49479 -8.606256,5.54399 -15.418997,10.90012 -27.81284,12.88492 -38.672903,6.19322 C 0.4317163,253.74982 -2.3732854,234.18403 8.7921444,201.91958 17.828178,175.80834 29.359469,148.31314 32.121002,146.29421 c 5.231498,-3.8247 21.173157,-0.40823 26.028607,5.5782 3.45077,4.25453 1.554924,14.36219 -6.457268,34.42692 -14.098131,35.30556 -18.093333,51.90492 -13.270903,55.13814 3.703158,2.48278 8.186865,-0.0471 16.056283,-9.05956 9.437679,-10.80851 30.890636,-46.35358 40.786611,-67.57866 8.745108,-18.75669 9.008098,-18.98861 20.163528,-17.77986 10.24167,1.10973 17.23974,8.86394 15.66341,17.35581 -1.10686,5.96274 -7.23886,21.98557 -17.14387,44.79663 -10.31496,23.75515 -9.58052,25.24588 5.08457,10.32051 12.34861,-12.56775 23.85162,-26.5991 34.96241,-42.64709 15.56553,-22.48225 31.11618,-32.45827 51.11217,-32.7894 8.58383,-0.14215 15.75913,2.84961 19.67358,8.20292 1.15851,1.58432 4.25512,4.72114 6.8814,6.97072 8.13324,6.96665 10.60045,12.46328 10.68107,23.79598 0.0807,11.3402 1.67039,24.57779 3.0892,25.72396 1.34841,1.08932 11.32927,-2.73438 14.69728,-5.63057 1.81612,-1.5617 4.51552,-7.9519 7.59901,-17.98881 13.80572,-44.93845 38.02781,-84.99885 58.58254,-96.888422 5.56769,-3.22055 6.84317,-3.47389 17.49029,-3.47389 10.53765,0 11.97222,0.27684 17.3979,3.35741 3.58566,2.03585 7.30206,5.53944 9.44153,8.90088 3.29839,5.182342 3.51925,6.526412 3.39005,20.630832 -0.16243,17.73162 -3.36867,28.36026 -13.6944,45.39686 -14.55302,24.01126 -40.70858,44.94641 -56.21062,44.99148 -4.79078,0.0139 -6.6089,2.74411 -6.6089,9.92422 0,10.28922 2.61972,17.0053 8.48171,21.7442 4.6774,3.78126 5.90701,4.23261 9.82659,3.60702 14.40223,-2.29871 42.99525,-26.91903 61.80047,-53.21393 8.90814,-12.45607 15.82562,-26.14983 32.64052,-64.61476 6.57232,-15.03448 13.08098,-29.469272 14.46372,-32.077282 2.48533,-4.68768 2.59404,-4.74187 9.5131,-4.74187 12.50617,0 23.70121,5.75414 26.28679,13.511162 2.66,7.98036 -4.2799,22.41673 -25.01035,52.02622 -3.11028,4.44246 -5.42449,8.63595 -5.14271,9.31887 0.2818,0.68293 5.31463,-2.2821 11.18412,-6.58892 12.09176,-8.87255 19.69342,-12.26266 29.62798,-13.21318 12.33495,-1.18018 21.61986,2.82914 27.14366,11.7209 6.59759,10.62029 5.78292,21.6224 -2.62689,35.47591 -8.09004,13.32678 -24.91822,26.07163 -41.99446,31.80455 -10.55339,3.54305 -10.70498,9.02877 -0.46664,16.8891 9.4554,7.25924 20.901,4.43388 37.77791,-9.3255 10.0054,-8.1572 11.31728,-9.86258 27.46992,-35.70981 16.03151,-25.6534 17.50437,-27.5752 26.82927,-35.00699 16.83491,-13.41712 31.64059,-17.94658 49.76778,-15.22535 11.48675,1.72438 17.60367,5.32282 22.33882,13.14138 12.33413,20.36588 -2.30702,50.41686 -30.0128,61.60128 -8.04573,3.24795 -9.55356,3.46819 -23.74374,3.46819 h -15.15243 l 0.76037,3.78534 c 1.03827,5.16866 7.05215,12.56041 12.42531,15.27215 6.00578,3.03098 16.66296,2.06919 28.60932,-2.5819 17.174,-6.68639 39.37961,-27.83571 49.12762,-46.79068 5.68796,-11.06018 14.8321,-22.97549 23.93695,-31.19116 16.70752,-15.07583 39.54315,-21.05035 59.16426,-15.47923 4.32248,1.2273 8.93263,2.23146 10.24478,2.23146 2.3607,0 8.71609,-14.10212 19.86165,-44.0714 2.05394,-5.522882 4.64472,-11.480902 5.75727,-13.240062 1.9178,-3.03243 2.4063,-3.17277 9.41111,-2.7035 9.65622,0.6469 16.28862,4.30431 20.71059,11.42076 8.74617,14.075582 1.34371,35.063742 -23.91796,67.814442 -9.83431,12.74977 -11.38481,15.54058 -15.18687,27.33544 -7.77586,24.12244 -9.57029,43.0084 -4.47727,47.12275 6.5069,5.25659 18.03836,-3.49129 29.13761,-22.1041 3.89728,-6.53548 7.55992,-12.6358 8.13921,-13.55629 2.57848,-4.09701 10.46982,-1.62321 15.31976,4.80248 7.45729,9.88021 -1.30399,26.4153 -23.60939,44.5578 -12.68354,10.31638 -19.30384,13.06225 -31.57483,13.0962 -6.97052,0.0193 -10.09956,-0.56426 -14.69734,-2.74098 -5.80846,-2.7499 -13.81798,-11.06228 -15.3211,-15.9004 -1.13016,-3.63757 -3.95328,-3.12426 -7.36844,1.33975 -3.9072,5.10722 -14.52926,12.65072 -21.43204,15.22047 -7.67996,2.85909 -20.2361,2.76277 -27.84693,-0.2136 -8.69901,-3.40195 -17.97867,-13.87608 -20.43344,-23.06363 -0.53286,-1.99437 -1.62415,-3.62613 -2.42507,-3.62613 -0.80093,0 -5.87993,3.38903 -11.2867,7.53119 -10.70186,8.19874 -22.04799,14.67925 -32.2866,18.44095 -5.55902,2.04241 -9.13922,2.40958 -23.80699,2.44148 -16.09335,0.035 -17.73819,-0.16465 -24.25723,-2.94406 -8.68347,-3.70221 -15.82917,-9.9885 -21.29246,-18.73157 l -4.19714,-6.71681 -13.45265,11.02314 c -17.49166,14.33273 -23.79464,17.00247 -41.83043,17.71807 -15.13631,0.60056 -20.38166,-0.88372 -30.95983,-8.76071 -5.11163,-3.80636 -13.75154,-15.63434 -16.49591,-22.5828 -1.83836,-4.65454 -3.91598,-0.0195 -9.24348,20.62161 -1.97011,7.63302 -2.52902,8.43786 -6.07689,8.75057 -7.29341,0.64285 -11.82796,-0.21769 -15.96471,-3.02966 -5.98548,-4.0687 -8.00827,-8.47562 -9.08513,-19.79334 -0.49962,-5.2507 -1.29785,-9.54672 -1.77389,-9.54672 -0.47602,0 -3.59973,3.0332 -6.94155,6.74045 -7.31798,8.11817 -24.16601,19.91024 -34.45617,24.11616 -10.73038,4.38586 -28.2516,5.0644 -38.53067,1.49215 -11.5389,-4.01006 -19.97211,-13.12256 -25.8071,-27.88584 -3.63441,-9.19551 -4.10793,-9.42016 -17.39054,-8.25064 l -11.33908,0.9984 -7.47113,10.04158 c -13.9599,18.76285 -26.36915,26.25178 -44.93853,27.12018 -14.37606,0.67231 -20.88233,-1.36059 -29.91908,-9.34829 -6.46114,-5.71108 -11.57788,-14.00268 -13.54549,-21.95027 -0.42487,-1.71616 -1.27976,-3.37358 -1.89974,-3.68311 -1.01968,-0.50911 -32.44616,26.86611 -44.620098,38.86802 -6.325328,6.23594 -7.429729,8.93405 -14.710202,35.93737 -3.308995,12.27305 -6.924123,23.19328 -8.033627,24.26717 -2.337117,2.26211 -6.912339,2.38397 -14.709787,0.39183 z M 191.83826,241.34307 c 4.68254,-2.97554 13.14319,-16.90876 13.14319,-21.64458 0,-1.91561 -1.30238,-6.44849 -2.89423,-10.07306 -4.04827,-9.2179 -5.00946,-24.59418 -2.10893,-33.73673 1.23252,-3.88489 2.24094,-7.6189 2.24094,-8.2978 0,-2.90968 -8.88378,5.967 -13.18006,13.16952 -11.52349,19.31861 -15.95967,46.69615 -9.24239,57.03858 2.6696,4.11035 4.51138,5.57407 7.38914,5.87243 0.46728,0.0484 2.56083,-0.99931 4.65234,-2.32836 z m 493.27393,-1.57618 c 5.39751,-4.62331 24.22045,-35.08677 31.45562,-50.90844 6.26885,-13.70847 6.45586,-18.05183 0.8776,-20.38218 -2.24113,-0.93623 -5.69027,-1.70225 -7.66474,-1.70225 -16.78643,0 -36.45367,27.70881 -38.88471,54.78388 -1.02222,11.38478 -0.0587,16.48324 3.73714,19.77468 3.77947,3.27725 5.04614,3.08799 10.47909,-1.56569 z M 431.88538,205.6676 c 22.54732,-9.26172 36.37335,-22.21568 37.96138,-35.567 0.69999,-5.88498 -0.66638,-7.27785 -6.06552,-6.18313 -9.21648,1.8687 -31.95634,24.71766 -39.91629,40.10781 -1.87408,3.62342 -1.86796,4.03082 0.0605,4.03082 1.17988,0 4.76186,-1.07483 7.95998,-2.3885 z m 136.06152,-3.8487 c 12.52411,-5.04178 20.62071,-15.47372 21.94981,-28.28092 0.86208,-8.307 -1.03111,-11.22687 -7.27923,-11.22687 -7.07381,0 -22.26891,16.71192 -28.11936,30.92634 -4.09635,9.95258 -3.87033,11.47146 1.70709,11.47146 2.50952,0 7.79327,-1.30051 11.74169,-2.89001 z M 313.7004,179.32601 c 19.85803,-17.31868 33.53637,-44.26235 33.53637,-66.06007 0,-8.94311 -1.89743,-10.1918 -6.88633,-4.53182 -4.27635,4.85158 -14.16385,22.18151 -20.70115,36.28313 -5.42522,11.70275 -15.22723,36.57214 -15.22723,38.63413 0,2.29776 3.61807,0.61109 9.27834,-4.32537 z"
     id="path1409"
     inkscape:connector-curvature="0" />
  <path
     style="fill:#a0a0a0;stroke:none;stroke-width:0.99999988"
     d="M 51.806965,330.47338 C 37.64304,325.77613 32.427399,316.43031 36.973472,303.89353 c 1.200833,-3.31156 6.887325,-12.04435 12.636659,-19.4062 6.0262,-7.71636 11.602093,-16.38976 13.16579,-20.47963 2.698014,-7.05667 3.424663,-11.32234 1.928757,-11.32234 -0.431039,0 -4.262433,2.28924 -8.514187,5.08718 -18.087587,11.90284 -28.844027,12.85559 -41.206557,3.64988 C 5.3142256,254.22191 2.8933682,247.53174 3.7477786,230.37073 4.3378775,218.51865 5.2853699,213.9944 10.056743,200.24598 c 7.184133,-20.70062 18.6785,-48.44324 21.525341,-51.95319 3.662224,-4.51528 16.719551,-3.41461 23.89319,2.01407 5.96775,4.51612 4.382649,13.54179 -7.986594,45.47619 -7.314937,18.88543 -10.982523,31.77388 -10.994125,38.63507 -0.01812,10.72852 6.657693,10.66109 16.931559,-0.17098 6.716633,-7.08158 33.008707,-50.10191 42.474152,-69.49822 8.023914,-16.44237 10.487934,-18.80541 18.216454,-17.46998 11.84081,2.04601 17.16156,7.85085 15.94014,17.39043 -0.42323,3.30534 -5.8017,18.2284 -11.95219,33.16234 -14.43827,35.05747 -14.5111,37.31335 -0.77124,23.8921 10.19862,-9.96213 24.1199,-26.63079 36.57444,-43.79247 16.08038,-22.15786 30.13113,-31.8431 48.10636,-33.15983 9.8957,-0.72489 16.67281,1.54844 21.98909,7.37608 2.02047,2.21484 5.77482,5.96523 8.34296,8.3342 7.2689,6.70516 8.52855,10.43219 9.94477,29.42436 0.71486,9.58674 1.87799,17.89755 2.58473,18.46848 1.83064,1.47887 10.20655,-0.97165 13.59366,-3.97703 4.15293,-3.68493 5.27228,-5.86397 9.29676,-18.09827 15.85902,-48.21079 38.55353,-85.67706 59.22475,-97.773872 4.96132,-2.90336 6.5173,-3.19985 16.79302,-3.19985 10.44065,0 11.78063,0.2666 17.15846,3.4137 9.31324,5.4501 12.51658,12.309612 12.47394,26.711052 -0.019,6.44336 -0.86968,15.49569 -1.89024,20.11633 -4.57035,20.69279 -21.64684,45.19015 -42.23436,60.58803 -9.11209,6.81513 -15.75035,10.01894 -23.48857,11.33619 -2.65867,0.45258 -5.6108,1.32845 -6.56033,1.94637 -2.14867,1.39831 -2.30893,15.28883 -0.24568,21.29136 1.93621,5.63285 10.23523,13.03088 14.61788,13.03088 14.96113,0 51.28139,-31.93844 69.15995,-60.81624 7.02265,-11.34314 12.56212,-22.74122 29.54808,-60.79853 7.53195,-16.87544 14.75567,-31.323802 16.05274,-32.107482 4.96097,-2.99738 20.35969,0.61138 27.19222,6.37264 8.60778,7.258152 6.28431,15.659932 -12.5959,45.547362 -7.07752,11.20371 -12.86821,20.61768 -12.86821,20.91996 0,1.66471 3.7124,-0.17414 12.71839,-6.29978 13.26609,-9.0232 21.45846,-12.09313 32.30904,-12.10716 6.4942,-0.009 9.49688,0.57114 13.08776,2.52605 27.21385,14.81543 11.3083,55.1068 -28.78082,72.90657 -11.76517,5.22377 -14.14205,6.88199 -14.14205,9.86612 0,2.98143 5.5837,9.22525 10.6755,11.93758 8.32076,4.43238 18.09662,1.76526 32.26845,-8.80372 10.96023,-8.17386 15.20553,-13.52701 32.99364,-41.60365 13.35938,-21.08633 15.27981,-23.50292 24.86017,-31.28276 6.68178,-5.42605 13.336,-9.60168 18.66907,-11.71519 7.41758,-2.9396 9.66286,-3.28254 21.40736,-3.26977 10.94271,0.0124 14.09472,0.43224 18.98884,2.53243 11.14855,4.78408 16.16215,14.39214 15.28082,29.28402 -0.50804,8.58438 -1.23312,10.87618 -5.80542,18.34992 -6.29708,10.293 -16.73555,19.1438 -27.679,23.46911 -6.68408,2.64183 -9.98919,3.15435 -23.4321,3.63359 l -15.65043,0.55794 0.975,3.47718 c 1.43278,5.10989 4.74171,9.73541 9.67083,13.51874 3.89268,2.98784 5.27752,3.3441 12.89864,3.3183 13.1443,-0.0445 24.69381,-4.92232 38.93581,-16.44413 12.85878,-10.40279 21.16654,-20.19189 30.36931,-35.78437 12.73748,-21.58144 28.15813,-36.37297 44.48248,-42.66776 10.32617,-3.98185 27.19423,-5.01676 37.14125,-2.27873 3.61423,0.99484 7.69101,1.80883 9.05948,1.80883 3.6789,0 6.61494,-5.52051 17.58296,-33.06061 5.40871,-13.58094 10.67302,-25.255142 11.69849,-25.942662 2.56253,-1.71805 15.1087,0.27597 20.21395,3.21268 6.17693,3.55321 10.24724,11.547722 10.222,20.077152 -0.0388,13.14043 -7.66132,28.69658 -26.46261,54.00581 -10.50577,14.14227 -13.1054,19.26462 -17.63298,34.74419 -7.97013,27.24945 -6.28005,44.62286 4.11401,42.29084 5.78074,-1.29697 15.6432,-11.50043 24.15949,-24.99476 9.72423,-15.40844 11.7534,-16.40712 19.27517,-9.48644 8.37723,7.70776 5.38562,19.73899 -8.62701,34.69485 -8.21805,8.77123 -22.38543,19.47741 -29.26332,22.11403 -7.81564,2.9961 -22.303,2.8159 -28.65696,-0.35649 -5.39943,-2.69581 -10.7205,-7.88839 -14.30333,-13.95792 -1.31179,-2.2223 -2.96153,-4.04055 -3.66607,-4.04055 -0.70454,0 -5.26313,3.47463 -10.13023,7.7214 -4.98495,4.34961 -11.59578,8.79548 -15.13877,10.18105 -8.00265,3.12961 -21.28089,3.34305 -28.79417,0.46285 -6.80457,-2.60851 -15.09517,-11.19381 -18.85599,-19.52626 -1.65058,-3.65704 -3.64111,-6.64916 -4.42338,-6.64916 -0.78227,0 -5.51566,2.90327 -10.51863,6.4517 -12.87466,9.13157 -18.95914,12.79281 -28.43197,17.10845 -8.00614,3.64745 -8.87551,3.78836 -25.67599,4.16168 -15.50051,0.34443 -18.15779,0.11929 -24.46481,-2.07253 -8.48287,-2.94801 -17.91896,-10.74145 -23.1085,-19.08568 -2.05432,-3.30317 -3.9674,-6.21194 -4.25126,-6.46396 -0.28387,-0.252 -6.93658,4.58813 -14.7838,10.75583 -18.76716,14.75049 -22.41779,16.24423 -41.10986,16.82096 -12.71177,0.39222 -15.34347,0.15202 -20.18171,-1.84198 -7.87549,-3.24574 -16.79928,-11.76043 -23.02783,-21.97209 -6.57553,-10.78056 -7.0968,-10.43173 -12.40971,8.30427 -3.45924,12.19905 -4.14711,13.5529 -7.20053,14.172 -5.73131,1.16208 -12.30666,-0.52709 -16.79513,-4.31454 -4.70341,-3.96884 -6.56181,-8.65561 -7.95881,-20.07158 -0.50688,-4.14215 -1.36055,-7.53119 -1.89704,-7.53119 -0.53648,0 -4.47064,3.45625 -8.74255,7.68057 -9.56959,9.46296 -24.26241,19.19337 -34.95091,23.14644 -11.02851,4.07884 -27.30327,4.31817 -36.9555,0.54346 -8.99898,-3.51926 -16.61772,-10.9455 -21.67104,-21.12356 -7.86011,-15.83124 -7.53025,-15.6386 -24.29508,-14.18823 l -8.3547,0.72279 -6.74812,9.14045 c -8.92846,12.09379 -22.65383,23.21706 -31.6992,25.68955 -8.25912,2.2576 -25.38815,2.44839 -31.56407,0.3516 -2.44435,-0.8299 -7.12638,-3.86684 -10.4045,-6.74876 -5.80564,-5.10396 -14.06273,-17.32503 -14.06491,-20.81707 -6.1e-4,-0.9566 -0.8191,-2.64302 -1.81888,-3.74756 -1.65823,-1.83199 -3.15915,-0.8468 -17.09817,11.223 -18.41256,15.94346 -31.16519,27.92823 -33.464571,31.44958 -2.400805,3.67671 -4.7069,10.45109 -10.509905,30.8739 -6.845394,24.0914 -7.417346,25.1129 -14.036519,25.0697 -2.887312,-0.0189 -8.609542,-1.14854 -12.71605,-2.51041 z M 192.88451,240.69125 c 4.75479,-4.03883 10.85311,-14.00764 11.68202,-19.09633 0.37097,-2.27739 -0.60423,-7.93794 -2.2245,-12.91215 -3.2654,-10.02476 -3.81081,-24.42386 -1.30665,-34.49699 0.86812,-3.49206 1.15135,-6.69416 0.62943,-7.1158 -3.14387,-2.53977 -16.45246,17.50686 -21.10739,31.79395 -4.19635,12.87956 -5.26261,33.39928 -1.98503,38.2012 5.08624,7.45176 8.72345,8.37329 14.31212,3.62612 z m 492.60266,-0.89327 c 5.28147,-4.85938 25.74966,-37.909 31.68658,-51.16377 7.23511,-16.15302 5.33426,-21.86019 -7.28089,-21.86019 -7.61094,0 -14.73492,4.28879 -22.06086,13.28112 -11.30406,13.87533 -17.35085,30.21256 -17.38409,46.9684 -0.0154,7.50915 0.55099,10.2387 2.71795,13.10985 3.54219,4.69329 6.95688,4.60033 12.32131,-0.33541 z M 436.93961,203.87211 c 20.14492,-9.5298 33.92043,-24.1496 32.96089,-34.98107 -0.3912,-4.41591 -0.813,-4.94154 -4.21972,-5.25837 -2.97915,-0.27707 -5.44923,0.91076 -11.60078,5.57866 -12.09232,9.17585 -28.49002,28.07447 -31.52614,36.33438 -1.42669,3.88132 3.97057,3.25342 14.38575,-1.6736 z m 131.10125,-1.88088 c 12.53313,-5.13064 20.69686,-15.54923 21.93314,-27.99118 0.86143,-8.6695 -0.91818,-11.68894 -6.88927,-11.68894 -3.47937,0 -5.73989,1.17903 -11.09494,5.78685 -7.88968,6.78878 -18.51081,23.57393 -19.82752,31.33453 l -0.89526,5.27642 h 5.06758 c 2.78714,0 8.05498,-1.22296 11.70627,-2.71768 z M 314.51819,179.04707 c 19.2969,-17.33864 31.12537,-39.89316 32.38641,-61.75446 0.65247,-11.31096 0.53177,-12.0785 -1.84117,-11.70932 -3.95989,0.61606 -9.57258,8.03825 -17.99279,23.79349 -8.06656,15.09356 -22.64858,49.25321 -22.64858,53.0563 0,3.67355 3.57282,2.47532 10.09613,-3.38601 z"
     id="path1411"
     inkscape:connector-curvature="0" />
  <path
     style="fill:#f9f9f9;stroke:none;stroke-width:0.99999988"
     d="m 52.52143,330.78347 c -21.128706,-6.666 -22.942163,-20.71446 -5.55575,-43.03905 12.81236,-16.45139 20.006404,-29.78965 18.298997,-33.92761 -0.280261,-0.67924 -4.228984,1.10008 -8.774919,3.95402 -19.694752,12.36432 -29.661285,13.06729 -42.456958,2.99461 -7.6085493,-5.98939 -10.6947948,-13.6593 -10.6947948,-26.57853 0,-15.37437 4.9745927,-32.5516 19.7845618,-68.31591 7.704643,-18.60581 9.042517,-20.29587 16.06647,-20.29587 2.971514,0 7.152326,0.53552 9.290726,1.19005 13.568956,4.15324 13.635395,11.27458 0.426122,45.67068 -11.65315,30.34406 -15.031749,45.95284 -10.591142,48.93006 7.167631,4.80556 17.013578,-6.48034 41.227054,-47.25647 5.83034,-9.81843 13.523628,-23.78184 17.096212,-31.02979 7.051591,-14.30605 10.099441,-17.18757 16.834221,-15.91551 7.85307,1.48328 11.46416,3.24663 14.33602,7.00049 4.50521,5.88886 2.97984,12.81896 -9.70281,44.08194 -11.24579,27.72114 -12.29128,31.00843 -9.86188,31.00843 3.40506,0 25.67818,-24.83087 42.88957,-47.81483 19.73775,-26.35761 31.67841,-35.09905 50.03542,-36.62961 12.11982,-1.01051 16.33743,0.74924 26.78382,11.17523 5.02286,5.01305 10.02913,10.8083 11.12504,12.87832 1.14944,2.17118 2.53134,10.63166 3.26597,19.99529 1.56552,19.95476 1.82185,20.73046 6.5346,19.77492 5.56282,-1.12789 11.47995,-5.02325 13.46737,-8.86582 0.99362,-1.92112 4.72432,-11.76255 8.29044,-21.86985 15.81805,-44.83241 36.6221,-77.8254 56.35516,-89.373202 4.97056,-2.90878 6.50721,-3.19985 16.89288,-3.19985 10.7678,0 11.76173,0.20857 17.28041,3.62613 9.13338,5.65602 11.53799,10.47547 12.10389,24.259292 0.26434,6.43901 -0.26867,15.47644 -1.18453,20.08317 -4.34915,21.87644 -20.82767,46.23907 -42.19949,62.38974 -9.75292,7.3703 -16.51238,10.63622 -24.52786,11.85098 -6.45211,0.97784 -7.83977,3.05847 -7.83977,11.75464 0,9.43361 2.39184,15.1356 8.5387,20.35567 4.59493,3.90211 5.70785,4.32389 9.71945,3.68351 10.97605,-1.7521 31.88967,-17.5957 49.44128,-37.4554 16.97665,-19.20911 22.58571,-29.22255 47.53461,-84.86009 7.28819,-16.25311 14.29304,-30.178722 15.56631,-30.945782 4.83579,-2.91323 17.35912,-0.46689 25.13482,4.90989 11.09638,7.673002 9.40371,15.678162 -9.70525,45.898842 -7.50335,11.86649 -13.64245,21.79486 -13.64245,22.06304 0,1.42927 3.14911,-0.17538 12.46876,-6.35357 13.72289,-9.09719 21.79653,-12.10146 32.55867,-12.11538 9.64172,-0.0125 15.61809,2.50999 20.87372,8.81025 16.08765,19.28528 -1.49242,50.39766 -38.12138,67.46548 -15.0775,7.02558 -15.95989,10.05553 -5.33279,18.31189 9.29472,7.22118 19.18854,5.66288 34.62827,-5.45405 10.55653,-7.60093 15.607,-13.89695 33.47123,-41.72587 13.87844,-21.61988 15.84776,-24.08325 25.48594,-31.87956 12.82911,-10.37744 22.87688,-14.70329 35.68169,-15.36197 27.19805,-1.39906 39.98048,9.25859 38.62258,32.2025 -0.50865,8.59456 -1.23241,10.8832 -5.80594,18.35893 -6.32145,10.33282 -16.74303,19.14675 -27.812,23.52168 -6.81599,2.69396 -10.01983,3.19827 -23.07949,3.63297 l -15.1648,0.50476 0.80712,4.018 c 1.07986,5.37577 7.43464,12.51528 13.3411,14.98861 6.47493,2.71136 15.97252,1.74535 27.57724,-2.80492 17.07246,-6.69423 38.48706,-27.21922 50.36193,-48.26984 11.04716,-19.58331 28.39658,-36.20577 44.38476,-42.52498 10.09618,-3.99043 26.4562,-4.96815 37.75891,-2.25657 4.12432,0.98944 8.24978,1.79899 9.16767,1.79899 2.6547,0 7.17399,-8.89253 17.37652,-34.19138 5.23279,-12.97556 10.40994,-24.192512 11.5048,-24.926562 2.62473,-1.75976 14.70687,0.25786 20.09101,3.35502 6.13186,3.52728 10.19906,11.542442 10.1739,20.049482 -0.0376,12.74929 -7.28936,27.85515 -25.17857,52.44941 -9.7801,13.44577 -13.13475,19.11318 -15.85021,26.77756 -4.41659,12.46589 -7.85761,29.05524 -7.85761,37.88193 0,8.18526 0.33854,9.35372 3.4348,11.85502 3.29591,2.6626 3.60493,2.70372 7.64292,1.01683 5.6156,-2.34593 14.63174,-12.44477 23.34533,-26.14873 8.26683,-13.00129 10.64206,-13.96542 17.91642,-7.27238 5.66104,5.20865 6.15952,12.81003 1.41439,21.56878 -6.30451,11.63718 -28.81259,31.77956 -39.77795,35.59716 -7.94199,2.76499 -21.99916,2.37426 -28.33192,-0.78753 -5.56367,-2.77782 -11.74879,-8.92384 -14.62421,-14.53185 -0.95675,-1.86596 -2.28626,-3.39264 -2.9545,-3.39264 -0.66823,0 -5.05034,3.27599 -9.73805,7.27998 -4.68768,4.00398 -10.45598,8.24501 -12.81843,9.42452 -10.64976,5.31718 -27.10969,5.01007 -36.34105,-0.67806 -5.54932,-3.41934 -12.18459,-11.45047 -14.40414,-17.43436 -2.75717,-7.43312 -3.67526,-7.27096 -19.55655,3.4542 -8.05898,5.44249 -18.54775,11.59526 -23.30841,13.67284 -8.31059,3.6268 -9.34909,3.7934 -26.045,4.1782 -15.41271,0.35524 -18.17547,0.12759 -24.30608,-2.00297 -8.77375,-3.04911 -17.05035,-9.84595 -23.0667,-18.94261 l -4.71113,-7.12321 -14.51427,11.26415 c -19.0841,14.81065 -22.48694,16.19873 -41.12005,16.77365 -12.73293,0.39286 -15.33899,0.15386 -20.20959,-1.85346 -7.36175,-3.03403 -16.15415,-11.15295 -22.46147,-20.74101 -2.80361,-4.26191 -5.73408,-7.92036 -6.51219,-8.12987 -1.4772,-0.39781 -2.78106,2.9251 -7.29019,18.57922 -1.48838,5.16716 -3.5038,9.83316 -4.47873,10.36891 -0.97492,0.53575 -4.46719,0.7581 -7.76059,0.49412 -4.39245,-0.35206 -7.21925,-1.44403 -10.60887,-4.09808 -4.84534,-3.79386 -6.69296,-8.2831 -8.37892,-20.3585 -0.49376,-3.53661 -1.29579,-6.62892 -1.78226,-6.87182 -0.48648,-0.24288 -4.45404,3.0059 -8.81679,7.21953 -8.65602,8.36014 -23.29645,18.42458 -32.27121,22.18456 -11.75771,4.92591 -30.85715,5.26923 -41.67708,0.74916 -6.26548,-2.61742 -14.05948,-10.38427 -18.45143,-18.38716 -6.46424,-11.77899 -8.61198,-14.94107 -10.93038,-16.09265 -1.28384,-0.63772 -6.37373,-0.75485 -12.43008,-0.28608 l -10.25596,0.79385 -6.21504,8.39121 c -7.78257,10.50764 -19.08473,20.69379 -27.25037,24.55963 -4.89978,2.3197 -8.61022,3.07547 -17.03269,3.46936 -15.86061,0.74174 -19.878,-0.18926 -28.1767,-6.52969 -7.33452,-5.60377 -13.04851,-13.52663 -15.84806,-21.97448 -0.86429,-2.60802 -2.3946,-4.74186 -3.40069,-4.74186 -3.63825,0 -46.888057,39.2762 -50.110422,45.50648 -1.136484,2.19734 -4.824045,13.49138 -8.194562,25.09787 -3.370516,11.60648 -7.011843,22.81115 -8.091829,24.89925 -1.754302,3.39186 -2.523159,3.79097 -7.213282,3.74434 -2.887312,-0.0287 -8.288027,-1.01079 -12.001585,-2.1824 z m 139.07831,-89.28884 c 4.33678,-2.75582 13.38797,-17.00189 13.36541,-21.03646 -0.01,-1.60509 -1.24463,-6.93498 -2.74592,-11.84421 -3.07354,-10.05039 -3.6723,-26.77479 -1.2382,-34.58401 2.0715,-6.64584 1.16176,-8.29181 -2.72577,-4.93168 -13.63841,11.7882 -25.1389,46.43615 -20.89492,62.95102 1.59398,6.20276 5.77506,11.71023 8.88999,11.71023 0.98185,0 3.38909,-1.0192 5.34941,-2.26489 z m 493.38525,-1.61878 c 2.49369,-2.13601 9.52485,-12.05208 15.6248,-22.0357 22.98209,-37.6142 25.89196,-48.67568 13.30653,-50.58304 -7.55253,-1.14461 -11.87865,0.34528 -19.56597,6.7384 -7.87471,6.54897 -16.76627,20.16376 -20.42264,31.27126 -2.66444,8.09417 -4.25179,24.34471 -2.93278,30.02462 0.96451,4.15329 4.98615,8.46813 7.89273,8.46813 0.85983,0 3.60363,-1.74766 6.09733,-3.88367 z M 438.61831,202.92211 c 17.51046,-8.5898 29.58302,-20.77201 30.95354,-31.23474 1.47467,-11.25779 -5.14724,-10.93644 -19.17709,0.93065 -13.78174,11.65722 -30.27272,32.58099 -27.46574,34.8486 1.49425,1.20711 7.52629,-0.54012 15.68929,-4.54451 z m 129.77959,-1.33745 c 12.62097,-5.32635 21.91592,-18.37782 21.91592,-30.77319 0,-9.67747 -7.30197,-11.52735 -16.42149,-4.16019 -9.83206,7.94278 -22.24986,27.72375 -22.24986,35.44296 0,2.22758 0.6923,2.61467 4.67621,2.61467 2.5719,0 8.00757,-1.40591 12.07922,-3.12425 z m -253.95859,-22.7285 c 18.79519,-16.1726 32.79746,-43.90883 32.79746,-64.96651 0,-12.25676 -3.86731,-11.09193 -13.2428,3.98871 -3.35142,5.3908 -8.50317,14.70654 -11.44833,20.70164 -6.22543,12.67235 -18.12358,41.75717 -18.12358,44.30282 0,3.12936 3.19187,1.84632 10.01725,-4.02666 z"
     id="path1413"
     inkscape:connector-curvature="0" />
  <path
     style="fill:#e6e6e6;stroke:none;stroke-width:0.99999988"
     d="m 59.033583,331.85281 c -7.474688,-1.19397 -12.636245,-3.41934 -17.480187,-7.53643 -7.942712,-6.75092 -7.311219,-16.26886 2.001665,-30.16944 15.627671,-23.32614 21.933317,-33.96931 21.933317,-37.02072 0,-1.82882 -0.665496,-3.32511 -1.478896,-3.32511 -0.813401,0 -5.397457,2.2589 -10.186793,5.01979 -10.229553,5.89701 -16.9962,8.36898 -22.908728,8.36898 -5.585834,0 -9.044962,-1.5068 -16.158752,-7.0388 -16.4213438,-12.76994 -14.60871612,-36.24437 6.861756,-88.86333 9.760963,-23.92177 11.597068,-26.14158 20.697621,-25.02285 13.727002,1.68747 17.674617,6.7917 14.842465,19.19121 -0.93646,4.09994 -4.457831,14.96424 -7.825275,24.14289 -14.599972,39.79514 -16.400124,53.04478 -7.206904,53.04478 3.282981,0 10.958508,-7.21894 17.936947,-16.86991 7.328289,-10.13482 24.803605,-39.34757 34.29305,-57.32624 9.710491,-18.39747 11.529451,-20.64104 16.734521,-20.64104 5.82574,0 12.99039,2.60891 15.67831,5.70905 4.99911,5.76579 3.17965,13.57872 -12.14759,52.16253 -10.28652,25.8947 -10.15733,28.0384 1.08122,17.94035 5.7901,-5.20253 18.80301,-20.50525 41.22274,-48.4765 17.41331,-21.72519 27.60846,-28.44216 44.49915,-29.31785 13.11841,-0.68012 16.51877,0.82511 27.72351,12.27226 10.16539,10.38532 10.80205,12.08058 13.09042,34.85667 0.79926,7.95516 2.02077,14.92239 2.71444,15.48278 2.10755,1.70257 8.54916,-0.30213 13.29799,-4.13845 3.3421,-2.6999 5.42318,-6.17716 8.14052,-13.60195 19.83331,-54.19163 34.27014,-79.88698 53.96836,-96.055352 9.18964,-7.5429 10.14575,-8.02216 17.48086,-8.76252 10.82423,-1.09252 17.77757,0.12533 23.86702,4.18026 8.66286,5.76855 10.32526,10.225842 10.36026,27.778082 0.0334,16.70737 -2.64504,26.94572 -10.89343,41.64158 -12.02267,21.4204 -36.59446,43.03013 -53.42182,46.98199 -4.20795,0.98822 -8.08411,2.66629 -8.85832,3.83494 -2.14421,3.23662 -1.65379,17.37952 0.76511,22.06465 2.88426,5.58643 10.05822,11.40041 14.06715,11.40041 9.39273,0 30.72689,-15.07992 48.93262,-34.58769 14.99293,-16.0652 26.87166,-36.01239 45.1811,-75.86975 21.34467,-46.464652 19.53569,-43.518722 26.7045,-43.489042 7.62272,0.0315 16.08873,3.16721 20.82301,7.71246 7.60733,7.303572 4.71962,16.406122 -15.60006,49.173962 -5.31438,8.57004 -9.66251,15.83963 -9.66251,16.15464 0,1.55259 3.3255,-0.007 13.28349,-6.23108 12.86593,-8.04122 16.09821,-9.4911 24.58356,-11.0273 21.43635,-3.88089 36.92177,10.65224 32.49059,30.49253 -3.42568,15.33827 -17.70108,30.71957 -39.24389,42.28405 -6.85775,3.68134 -13.24551,7.48086 -14.19503,8.44341 -3.74188,3.79317 -0.77297,8.96059 8.23169,14.32748 9.20758,5.48779 21.70652,1.69937 36.47682,-11.05611 8.81637,-7.61373 13.72458,-14.05087 32.41253,-42.50914 20.21599,-30.78516 36.82371,-42.06789 62.13761,-42.21425 16.89439,-0.0977 28.10289,5.4322 31.59412,15.5874 2.51451,7.31418 1.77919,22.86265 -1.40654,29.74116 -5.88632,12.7095 -21.19574,25.52441 -34.70116,29.04697 -3.27562,0.85437 -12.01533,1.88555 -19.42158,2.29152 -13.11543,0.71892 -13.46592,0.80917 -13.46592,3.46778 0,6.37754 9.67106,16.26331 17.45385,17.84133 9.86666,2.00052 27.3854,-3.85755 40.20138,-13.44293 12.1345,-9.07567 22.53951,-20.72686 33.62059,-37.64725 11.69881,-17.86363 19.19876,-26.50533 30.04159,-34.61493 10.06908,-7.5309 18.01854,-10.77819 29.64015,-12.10776 8.1838,-0.93626 11.4931,-0.72279 29.5049,1.9033 5.61912,0.81926 5.64973,0.77068 18.90277,-30.00705 5.74245,-13.33576 11.11211,-25.260142 11.93259,-26.498622 2.01973,-3.04876 8.80313,-2.94281 16.55869,0.25859 7.7654,3.20548 10.68143,6.52162 12.74593,14.494782 3.18122,12.28596 -2.75031,28.00808 -19.68242,52.1702 -5.37536,7.67065 -11.95731,17.63368 -14.6265,22.14008 -6.52387,11.01417 -11.48543,28.90156 -12.51345,45.11351 -0.80351,12.67128 -0.71871,13.23914 2.37467,15.89918 1.76439,1.51722 4.01027,2.75857 4.99085,2.75857 5.05826,0 19.1019,-14.58192 28.47544,-29.56689 1.91928,-3.06827 4.8105,-6.54295 6.42494,-7.72152 2.91114,-2.12523 2.96896,-2.11681 7.02294,1.02083 9.43359,7.30129 8.52703,17.40693 -2.78748,31.07295 -8.95135,10.81171 -28.34785,25.8396 -35.39005,27.41928 -17.39832,3.90271 -30.66553,-0.96813 -39.12528,-14.36426 -1.56758,-2.48225 -3.53038,-4.5132 -4.36179,-4.5132 -0.83141,0 -6.34246,3.79775 -12.24678,8.43944 -8.12854,6.39028 -12.3352,8.82846 -17.32489,10.04159 -18.48271,4.49363 -32.02848,-1.04404 -41.51059,-16.97004 -2.68696,-4.51296 -5.63597,-8.20539 -6.55339,-8.20539 -2.06912,0 -5.08662,1.69525 -21.61829,12.14524 -19.29035,12.19381 -23.42714,13.47008 -44.4243,13.70567 -15.28236,0.17147 -17.97897,-0.0889 -23.57155,-2.27601 -7.79814,-3.04962 -17.60684,-11.36312 -22.37454,-18.96381 -1.97575,-3.14975 -3.95803,-5.72681 -4.40511,-5.72681 -0.44707,0 -7.67254,5.04492 -16.05659,11.21096 -8.38408,6.16602 -17.12808,11.99813 -19.43114,12.96024 -4.90102,2.04742 -26.49684,3.73049 -33.84219,2.63749 -2.79495,-0.41588 -6.40699,-1.33221 -8.02677,-2.03626 -4.74459,-2.06228 -14.83924,-11.75689 -21.08383,-20.24832 -3.1837,-4.32922 -6.3341,-7.8713 -7.00088,-7.8713 -1.35808,0 -3.00835,3.82338 -6.26048,14.5045 -4.50919,14.80985 -4.27092,14.50451 -11.31854,14.50451 -5.40789,0 -6.98512,-0.57737 -11.46627,-4.19744 -5.23151,-4.22626 -6.32555,-6.79446 -9.02486,-21.18544 -0.48917,-2.60803 -1.37364,-4.74187 -1.96545,-4.74187 -0.59181,0 -7.86121,5.43811 -16.1542,12.08469 -20.35478,16.3137 -28.58381,19.72892 -47.41536,19.6784 -9.4885,-0.0254 -14.31733,-0.54473 -17.35988,-1.86687 -7.18044,-3.12022 -15.00347,-11.07831 -21.17427,-21.5398 -8.01353,-13.58554 -8.48678,-13.93828 -18.67534,-13.91984 -12.83377,0.0232 -13.89488,0.51442 -20.99679,9.71945 -8.33292,10.80061 -21.15657,21.84246 -28.87066,24.85923 -8.00339,3.1299 -28.18967,3.63947 -34.5837,0.87303 -9.15584,-3.96139 -18.13306,-14.1329 -24.16327,-27.37789 -0.90801,-1.99437 -2.44218,-3.62613 -3.40923,-3.62613 -3.71139,0 -44.356992,36.55046 -49.688242,44.68199 -1.024825,1.56314 -5.322536,13.86408 -9.550443,27.33543 -7.076209,22.54676 -9.587675,27.72735 -13.167034,27.16045 -0.424525,-0.0673 -3.365769,-0.53657 -6.536108,-1.04299 z M 192.83754,240.69125 c 5.14967,-4.43192 12.14938,-16.34333 12.11097,-20.60922 -0.0181,-2.01187 -0.63057,-5.66626 -1.36099,-8.12086 -3.11669,-10.47362 -4.17339,-24.0788 -2.65412,-34.17287 0.83467,-5.54576 1.15852,-10.3733 0.71963,-10.72785 -2.65935,-2.14834 -12.58343,11.20697 -18.1469,24.42115 -9.27515,22.02998 -9.77742,42.49072 -1.2304,50.12031 3.32315,2.96643 6.36116,2.7045 10.56181,-0.91066 z m 492.79745,-1.11572 c 5.0432,-4.83034 28.68713,-43.22309 32.98433,-53.55957 5.50155,-13.23348 3.0555,-19.24194 -7.83344,-19.24194 -9.8197,0 -19.72929,7.5289 -29.05452,22.07443 -7.93086,12.37056 -10.02891,19.01478 -10.82151,34.27002 -0.63174,12.15875 -0.43435,13.72192 2.14856,17.01492 3.72616,4.75052 7.19489,4.59665 12.57658,-0.55786 z m -249.8301,-35.03262 c 19.42259,-8.36294 35.06417,-24.71845 34.09561,-35.65187 -0.38547,-4.35126 -0.84267,-4.9446 -4.04125,-5.24445 -6.94037,-0.65066 -27.52922,17.53673 -39.09516,34.53511 -2.72077,3.99871 -4.94686,7.85628 -4.94686,8.57239 0,2.28823 5.59037,1.40449 13.98766,-2.21118 z m 133.45856,-3.21964 c 12.63786,-5.85502 21.05037,-17.95957 21.05037,-30.28882 0,-11.13003 -8.79295,-12.12796 -19.34506,-2.19553 -7.4644,7.02606 -18.04848,24.13696 -18.95675,30.64673 l -0.72877,5.22326 5.35881,-0.01 c 3.41558,-0.006 7.99241,-1.2306 12.6214,-3.37518 z M 314.30352,179.32601 c 12.06044,-10.45062 21.57443,-24.12926 28.13115,-40.44528 3.09079,-7.69123 3.83951,-11.67819 3.96134,-21.09427 0.10223,-7.89926 -0.36135,-11.75202 -1.45017,-12.05315 -2.72971,-0.75496 -8.69995,6.83858 -16.6034,21.11775 -8.15835,14.73975 -23.91476,51.1457 -23.91823,55.26428 -0.004,3.89948 3.20581,2.99342 9.87931,-2.78933 z"
     id="path1415"
     inkscape:connector-curvature="0" />
  <path
     style="fill:#ffffff;stroke:none;stroke-width:1"
     d="m 62.062838,332.6196 c -10.018165,-1.55822 -17.106128,-4.64046 -21.068811,-9.16189 -1.513105,-1.72646 -3.237448,-3.62759 -3.831877,-4.22473 -0.594427,-0.59715 -0.869768,-1.29674 -0.611867,-1.55463 0.2579,-0.25791 -0.05553,-1.30868 -0.696516,-2.33506 -0.923731,-1.47913 -0.942529,-2.45666 -0.09064,-4.71357 0.591132,-1.56609 0.861432,-3.19265 0.600665,-3.61458 -0.260766,-0.42192 -0.0025,-0.76714 0.573961,-0.76714 0.576444,0 0.815255,-0.60674 0.530691,-1.3483 -0.284565,-0.74156 -0.101724,-1.3483 0.406312,-1.3483 0.508035,0 0.695066,-0.36994 0.415621,-0.82209 -0.279445,-0.45214 -0.131408,-0.95776 0.328969,-1.12358 0.460377,-0.16582 0.968509,-0.87451 1.129181,-1.57488 0.160672,-0.70036 1.014741,-2.02971 1.89793,-2.95409 0.883188,-0.92439 1.391123,-2.02806 1.128743,-2.4526 -0.26238,-0.42454 0.152992,-1.01367 0.923051,-1.30916 0.770058,-0.2955 1.174547,-0.90223 0.898865,-1.3483 -0.275684,-0.44607 0.103169,-1.04296 0.841892,-1.32643 0.738724,-0.28348 1.343134,-0.96149 1.343134,-1.50669 0,-0.5452 0.610451,-1.60173 1.356558,-2.34784 0.746107,-0.7461 1.126725,-1.72844 0.845817,-2.18296 -0.280908,-0.45452 -0.150738,-0.82639 0.289268,-0.82639 1.585839,0 14.282665,-20.81444 13.844781,-22.69633 -0.08627,-0.37079 0.203776,-0.67415 0.644558,-0.67415 1.241124,0 2.109645,-4.6394 1.064229,-5.68482 -0.831233,-0.83123 -4.723992,0.44673 -6.359972,2.08793 -0.911358,0.91426 -13.529111,7.30533 -15.052953,7.62454 -0.866822,0.18157 -3.193997,0.90999 -5.171499,1.6187 -5.921921,2.12236 -18.426723,0.62057 -18.426723,-2.213 0,-0.46357 -0.362105,-0.61906 -0.804677,-0.34554 -0.442573,0.27353 -1.046449,-0.13272 -1.341948,-0.90279 -0.295499,-0.77006 -0.843495,-1.2632 -1.217768,-1.09589 -0.374274,0.16733 -2.35216,-1.42499 -4.395303,-3.53848 -2.043143,-2.11349 -3.5324333,-3.8427 -3.3095342,-3.8427 0.2228991,0 -0.3867883,-1.11235 -1.3548609,-2.47188 -0.9680726,-1.35953 -1.8045941,-2.77525 -1.8589366,-3.14603 -0.054343,-0.37078 -0.1288621,-0.77527 -0.1655992,-0.89886 -1.3908814,-4.67932 -1.6405403,-19.74746 -0.4281731,-25.84236 0.3441857,-1.73031 0.7166277,-3.75987 0.8276487,-4.51012 0.1110209,-0.75026 0.5265782,-1.88951 0.9234605,-2.53168 0.3968823,-0.64217 0.4823653,-1.40682 0.1899622,-1.69922 -0.2924031,-0.2924 -0.1164702,-1.0319 0.3909621,-1.64332 0.5074323,-0.61141 0.8430945,-1.45761 0.745916,-1.88043 -0.097179,-0.42282 0.3107868,-1.95392 0.9065896,-3.40243 0.5958028,-1.44851 1.1667319,-3.47095 1.2687309,-4.49432 0.101999,-1.02337 0.589942,-2.16402 1.084317,-2.53481 0.563738,-0.4228 0.396175,-1.00414 -0.449432,-1.55925 -1.1669118,-0.76603 -1.146289,-0.88694 0.153297,-0.89886 1.25982,-0.0115 2.402066,-2.44843 2.955747,-6.30582 0.03548,-0.24718 0.385554,-0.95504 0.777943,-1.57301 0.431866,-0.68014 0.269944,-1.12358 -0.410281,-1.12358 -0.665986,0 -0.484091,-0.46771 0.446553,-1.14821 0.863645,-0.63151 1.668263,-1.74385 1.788041,-2.47188 0.119777,-0.72801 0.718166,-2.23376 1.329754,-3.34611 0.611588,-1.11234 0.886177,-2.02244 0.610199,-2.02244 -0.275979,0 0.160798,-1.01123 0.970617,-2.24717 0.809818,-1.23593 1.214307,-2.24716 0.898864,-2.24716 -0.315443,0 0.08904,-1.01122 0.898865,-2.24716 0.809818,-1.23594 1.214307,-2.24716 0.898864,-2.24716 -0.315443,0 0.07507,-0.9899 0.867814,-2.19977 0.79274,-1.20987 1.400602,-2.42758 1.350805,-2.70601 -0.0498,-0.27843 0.508258,-1.66419 1.240121,-3.07946 0.731863,-1.41526 1.077133,-2.82674 0.767267,-3.1366 -0.309867,-0.30987 -0.06762,-0.5634 0.538329,-0.5634 0.605948,0 0.851736,-0.40449 0.546195,-0.89886 -0.305541,-0.49438 -0.154426,-0.89887 0.335811,-0.89887 0.791493,0 2.452769,-3.60479 1.995402,-4.32981 -0.320668,-0.50832 6.315513,-5.47068 8.053739,-6.02237 0.928387,-0.29466 3.200783,-0.11803 5.049769,0.3925 2.346748,0.64796 3.539597,0.64054 3.950673,-0.0246 0.360285,-0.58295 0.820113,-0.35024 1.184559,0.59949 0.327623,0.85377 0.843867,1.30413 1.147207,1.00079 0.303341,-0.30334 1.810654,0.34505 3.349584,1.44086 1.538931,1.09582 2.961741,1.79172 3.1618,1.54646 0.20006,-0.24527 0.481399,0.3557 0.6252,1.33547 0.143801,0.97978 0.58685,1.88931 0.984553,2.02118 1.012517,0.33572 0.45395,12.11723 -0.693337,14.62413 -0.113125,0.24719 -0.299661,0.85393 -0.414522,1.3483 -0.11486,0.49438 -0.306057,1.20223 -0.42488,1.57301 -0.118823,0.37079 -0.317164,1.07864 -0.440758,1.57302 -0.123594,0.49437 -0.325838,1.10111 -0.449432,1.3483 -0.123594,0.24718 -0.325839,0.85392 -0.449432,1.34829 -0.123594,0.49438 -0.325839,1.10111 -0.449433,1.3483 -0.123594,0.24719 -0.325838,0.85392 -0.449432,1.3483 -0.123594,0.49437 -0.325838,1.1011 -0.449432,1.34829 -0.123594,0.24719 -0.310212,0.7528 -0.414707,1.12358 -0.44592,1.58228 -1.574882,4.38303 -2.355119,5.84262 -0.592585,1.10855 -0.506858,1.58109 0.290331,1.60035 0.663406,0.016 0.503177,0.39363 -0.387461,0.91311 -0.8636,0.50371 -1.370507,1.65506 -1.175191,2.66926 0.188907,0.98091 -0.08107,1.78348 -0.599955,1.78348 -0.518883,0 -0.720625,0.58061 -0.448317,1.29022 0.272308,0.70963 0.09537,1.42347 -0.393203,1.58633 -0.488569,0.16285 -0.956413,1.20022 -1.039651,2.30524 -0.08323,1.10501 -0.513032,2.00913 -0.955094,2.00913 -0.442063,0 -0.580953,0.5806 -0.308646,1.29022 0.272308,0.70963 0.125037,1.41748 -0.327269,1.57301 -0.452306,0.15554 -1.006259,1.29402 -1.231007,2.52996 -0.224747,1.23593 -0.48925,2.34828 -0.587784,2.47187 -0.09853,0.1236 -0.280275,0.62921 -0.403869,1.12358 -0.123594,0.49438 -0.325839,1.10111 -0.449433,1.3483 -0.123593,0.24719 -0.281471,0.7528 -0.350838,1.12358 -0.06936,0.37078 -0.447166,1.17976 -0.839555,1.79773 -0.392387,0.61797 -0.481887,1.12358 -0.198889,1.12358 0.282999,0 -0.07698,1.41571 -0.79995,3.14603 -0.722972,1.73031 -1.1695,3.14602 -0.992286,3.14602 0.177215,0 -0.243113,2.12357 -0.934062,4.71904 -1.326189,4.98169 -1.595875,9.73332 -0.734624,12.94344 0.353849,1.3189 1.420051,2.0683 3.358468,2.36056 1.562018,0.23551 2.975703,0.0713 3.141521,-0.36494 0.165819,-0.43623 0.674287,-0.56275 1.12993,-0.28114 0.455642,0.28161 1.071104,-0.12037 1.367693,-0.89326 0.296589,-0.7729 1.086923,-1.40527 1.7563,-1.40527 2.800337,0 28.104345,-37.71181 36.673697,-54.65662 0.923488,-1.82608 1.973852,-3.52239 2.334142,-3.76958 0.36029,-0.24718 3.218679,-5.3033 6.351974,-11.2358 3.133298,-5.93251 6.12782,-11.08355 6.6545,-11.44676 0.52668,-0.36321 0.63848,-0.66658 0.24844,-0.67415 -0.39004,-0.008 0.11557,-0.89901 1.12358,-1.98098 1.00801,-1.08197 1.83275,-2.29544 1.83275,-2.6966 0,-1.13129 3.38063,-4.24003 3.96998,-3.65068 0.28839,0.28839 0.52434,0.13366 0.52434,-0.34385 0,-0.4775 1.47092,-0.69646 3.2687,-0.48658 2.26822,0.26481 3.07735,0.072 2.64354,-0.62992 -0.34383,-0.55634 -0.2305,-1.01153 0.25186,-1.01153 0.48235,0 1.01917,0.42652 1.19294,0.94782 0.17377,0.52129 0.91534,1.03828 1.64792,1.14885 0.73259,0.11058 1.83759,0.51691 2.45556,0.90297 0.61797,0.38605 1.12358,0.46541 1.12358,0.17635 0,-0.28906 1.20966,0.1 2.68813,0.86453 2.73157,1.41254 5.56455,4.94647 6.05649,7.55498 0.5874,3.11474 0.0261,9.35631 -0.90343,10.04505 -0.38391,0.28448 -0.7884,1.80051 -0.89886,3.36896 -0.11046,1.56845 -0.45164,2.85252 -0.75818,2.8535 -0.44042,0.002 -2.81035,6.99104 -3.04833,8.99044 -0.0294,0.24719 -0.50489,1.25841 -1.05658,2.24716 -0.55171,0.98875 -1.09448,2.20222 -1.20618,2.69659 -0.45587,2.01774 -1.04893,3.67897 -1.84515,5.16847 -0.55173,1.03212 -0.51713,1.57302 0.10063,1.57302 0.51782,0 0.11618,0.88586 -0.89254,1.9686 -1.38761,1.48943 -1.56022,2.14245 -0.70916,2.68283 0.8857,0.56237 0.87469,0.71715 -0.0518,0.72799 -0.64714,0.007 -0.94798,0.38371 -0.66854,0.83586 0.27944,0.45214 0.0831,0.96375 -0.43632,1.13689 -0.51943,0.17314 -1.01251,1.21891 -1.09575,2.32393 -0.0832,1.10502 -0.46976,2.00914 -0.85892,2.00914 -0.38917,0 -0.62166,0.30336 -0.51662,0.67414 0.10503,0.37079 -0.31369,1.58425 -0.93049,2.6966 -0.6168,1.11234 -0.88211,2.02244 -0.58958,2.02244 0.29253,0 -0.0705,1.11235 -0.80674,2.47188 -1.69155,3.1236 -4.1562,10.81424 -4.1562,12.96894 0,0.90068 0.40449,1.63761 0.89886,1.63761 0.49438,0 0.89887,-0.40449 0.89887,-0.89887 0,-0.49437 0.54037,-0.89886 1.20083,-0.89886 1.83924,0 14.97952,-14.34197 28.0007,-30.56139 3.37358,-4.2022 6.47535,-7.77518 6.89284,-7.93997 0.4175,-0.1648 0.75907,-0.82937 0.75907,-1.47684 0,-0.64748 0.60674,-1.41005 1.3483,-1.69462 0.74156,-0.28457 1.3483,-1.13682 1.3483,-1.8939 0,-0.75708 0.57948,-1.37651 1.28772,-1.37651 0.70825,0 1.53263,-0.77161 1.83195,-1.71469 0.29932,-0.94308 1.13555,-1.94161 1.8583,-2.21894 0.72274,-0.27735 1.31408,-1.07718 1.31408,-1.7774 0,-0.70022 1.00867,-1.93403 2.24149,-2.74181 1.23282,-0.80777 2.14292,-1.78537 2.02244,-2.17244 -0.12047,-0.38707 1.29648,-2.03812 3.14878,-3.66901 1.85231,-1.63088 3.16821,-3.28823 2.92423,-3.683 -0.24398,-0.39476 1.07192,-1.95947 2.92423,-3.47713 1.8523,-1.51766 4.21937,-3.58085 5.26015,-4.58488 1.04078,-1.00402 2.35536,-1.8255 2.92131,-1.8255 0.56594,0 1.02898,-0.40449 1.02898,-0.89886 0,-0.49438 0.60674,-0.89887 1.3483,-0.89887 0.74156,0 1.3483,-0.30574 1.3483,-0.67944 0,-0.7887 5.04006,-3.16813 7.5698,-3.57373 0.94995,-0.15231 2.20063,-0.66985 2.77929,-1.1501 0.57867,-0.48025 1.35134,-0.57396 1.71706,-0.20824 0.36571,0.36571 1.2386,-0.1196 1.93974,-1.07847 0.70114,-0.95887 1.2748,-1.2616 1.2748,-0.67273 0,0.62437 1.31137,1.07066 3.14603,1.07066 3.03811,0 4.31,-1.25992 2.03682,-2.01765 -0.61007,-0.20336 1.01204,-0.33819 3.60467,-0.29962 3.38057,0.0503 4.59213,0.38791 4.28344,1.19369 -0.27013,0.70514 0.36806,1.12358 1.71361,1.12358 1.17923,0 2.34807,-0.50561 2.59742,-1.12358 0.28216,-0.69924 0.48018,-0.55648 0.52434,0.37801 0.043,0.91048 1.1325,1.73475 2.76756,2.09387 1.48312,0.32575 2.69659,0.97732 2.69659,1.44793 0,0.47061 0.60582,1.08813 1.34626,1.37226 1.21759,0.46723 12.42628,11.44977 15.73217,15.41474 0.74156,0.88941 1.47893,2.35891 1.63858,3.26556 0.15966,0.90664 0.71834,2.70952 1.24152,4.00638 0.98491,2.4414 1.08297,2.95673 1.98587,10.43577 0.29763,2.46531 0.76732,5.19502 1.04375,6.06601 0.27645,0.871 0.67331,3.91004 0.88192,6.75343 0.61695,8.40928 0.99375,10.19438 2.46164,11.66227 0.90902,0.90902 1.96497,1.1477 3.03641,0.68631 0.90349,-0.38905 2.36772,-0.84894 3.25385,-1.02195 0.88613,-0.17302 2.09959,-0.71288 2.69659,-1.19971 0.597,-0.48682 2.32718,-1.87711 3.84484,-3.0895 1.51766,-1.2124 3.43213,-3.74656 4.25437,-5.63145 1.63236,-3.742 3.51311,-8.42921 3.80966,-9.49443 0.10322,-0.37078 0.28614,-0.97752 0.40648,-1.3483 0.12034,-0.37078 0.1709,-0.97751 0.11235,-1.34829 -0.0585,-0.37079 0.34132,-0.67415 0.88859,-0.67415 0.54727,0 0.76221,-0.60674 0.47764,-1.3483 -0.28456,-0.74156 -0.0823,-1.3483 0.44944,-1.3483 0.53175,0 0.74402,-0.5806 0.47172,-1.29022 -0.27231,-0.70962 -0.0476,-1.4394 0.49944,-1.62174 0.547,-0.18233 1.09085,-0.91632 1.20855,-1.63109 0.11769,-0.71476 0.72587,-2.51303 1.35151,-3.99616 0.62564,-1.48313 1.18574,-2.89884 1.24469,-3.14603 0.059,-0.24718 0.61268,-1.35953 1.23052,-2.47187 0.61785,-1.11235 0.89755,-2.02245 0.62158,-2.02245 -0.27598,0 0.16079,-1.01122 0.97062,-2.24716 0.80981,-1.23594 1.12251,-2.25335 0.69486,-2.26092 -0.42764,-0.008 -0.25165,-0.34734 0.39108,-0.75503 0.64274,-0.40769 1.23443,-1.61497 1.31487,-2.68283 0.0804,-1.06786 0.48853,-1.94157 0.90688,-1.94157 0.41835,0 0.51065,-0.40449 0.20511,-0.89886 -0.30555,-0.49438 -0.17102,-0.89887 0.29893,-0.89887 0.82167,0 2.39938,-4.22936 2.09568,-5.6179 -0.0811,-0.37078 0.28091,-0.67415 0.80446,-0.67415 0.52356,0 0.70193,-0.40449 0.39638,-0.89886 -0.30554,-0.49438 -0.10329,-0.89887 0.44944,-0.89887 0.55273,0 0.75497,-0.40449 0.44943,-0.89886 -0.30554,-0.49438 -0.12717,-0.89887 0.39638,-0.89887 0.52355,0 0.85856,-0.30336 0.74447,-0.67415 -0.30699,-0.99763 4.90525,-11.90995 5.68877,-11.90995 0.36921,0 1.13853,-1.41571 1.70959,-3.14603 0.57106,-1.73031 1.41141,-3.14602 1.86744,-3.14602 0.45604,0 0.82916,-0.57784 0.82916,-1.28409 0,-0.70625 0.50561,-1.8186 1.12358,-2.47188 0.61797,-0.65328 1.69754,-2.30013 2.39905,-3.65966 0.70151,-1.35954 1.61161,-2.47188 2.02244,-2.47188 0.41084,0 0.74698,-0.42156 0.74698,-0.9368 0,-1.01518 1.33874,-2.82655 3.82017,-5.16884 0.86516,-0.81664 1.57301,-1.80655 1.57301,-2.1998 0,-0.39325 2.92633,-3.43814 6.50295,-6.76644 3.57662,-3.328289 7.62151,-7.132669 8.98864,-8.454172 1.36714,-1.321504 2.4857,-2.22653 2.4857,-2.011169 0,0.21536 1.51684,-0.565971 3.37075,-1.736291 3.70581,-2.339375 3.82808,-2.382955 6.74148,-2.402783 1.4559,-0.0099 1.68544,-0.227371 0.81942,-0.776292 -0.70649,-0.447808 2.38697,-0.762528 7.49508,-0.762528 5.1081,0 8.20156,0.31472 7.49507,0.762528 -0.90365,0.572768 -0.75565,0.800024 0.59471,0.913202 3.64199,0.305249 9.43808,2.558675 9.43808,3.669377 0,0.38599 0.39904,0.7018 0.88676,0.7018 1.55721,0 7.10411,6.650262 7.68474,9.213361 0.30799,1.359537 0.83121,2.473317 1.16271,2.475067 0.3315,0.002 0.72085,4.75451 0.86521,10.56166 0.14437,5.80716 0.47228,11.77193 0.72869,13.25506 0.3678,2.12743 0.25464,2.41201 -0.5361,1.3483 -0.77554,-1.04326 -0.93893,-0.38233 -0.72221,2.92131 0.15405,2.34828 -0.0734,4.2696 -0.50537,4.2696 -0.43201,0 -0.57391,0.80898 -0.31534,1.79773 0.25856,0.98875 0.0602,1.79773 -0.44077,1.79773 -0.50098,0 -0.69323,0.56719 -0.42721,1.26042 0.26602,0.69323 0.20817,1.53592 -0.12855,1.87264 -0.33672,0.33671 -0.66278,0.98299 -0.72457,1.43617 -0.0618,0.45318 -0.21348,1.0262 -0.33708,1.27339 -0.12359,0.24719 -0.28961,0.7528 -0.36893,1.12358 -0.0793,0.37078 -0.62125,1.53107 -1.20431,2.57841 -0.58305,1.04734 -0.80468,2.15969 -0.49248,2.47188 0.31219,0.31219 0.0957,0.56762 -0.48106,0.56762 -0.57677,0 -0.96853,0.30336 -0.87058,0.67414 0.33402,1.26447 -1.19555,4.71904 -2.08944,4.71904 -0.49024,0 -0.64136,0.40449 -0.33582,0.89887 0.30554,0.49437 0.12717,0.89886 -0.39638,0.89886 -0.52355,0 -0.95191,0.53471 -0.95191,1.18824 0,1.30079 -8.144,13.45808 -10.94568,16.33962 -0.96136,0.98875 -4.51866,4.73027 -7.90512,8.3145 -3.38647,3.58422 -6.58842,6.51676 -7.11545,6.51676 -0.52704,0 -1.61855,1.00776 -2.42559,2.23944 -0.80703,1.2317 -1.79991,2.03391 -2.20638,1.7827 -0.40647,-0.25122 -1.37345,0.449 -2.14884,1.55602 -0.77539,1.10702 -1.42266,1.61939 -1.43838,1.13862 -0.0157,-0.48079 -0.62246,-0.089 -1.3483,0.87066 -0.72584,0.95964 -1.33257,1.36413 -1.34829,0.89886 -0.0157,-0.46527 -0.63988,-0.0369 -1.387,0.95178 -0.74711,0.98875 -1.44211,1.6368 -1.54443,1.44011 -0.1023,-0.1967 -2.00622,0.594 -4.23091,1.75711 -2.22469,1.1631 -4.34825,2.18357 -4.71903,2.26771 -0.37079,0.0841 -0.8764,0.2541 -1.12359,0.37769 -0.24718,0.1236 -0.75279,0.30341 -1.12358,0.39959 -5.40941,1.40318 -8.51207,2.61826 -10.22274,4.00348 -1.88843,1.52916 -2.06994,2.37031 -1.98556,9.20162 0.051,4.13525 0.25092,8.13777 0.4441,8.8945 0.88152,3.45318 5.56862,9.94369 9.05411,12.53779 3.31502,2.46723 4.34893,2.78564 7.64227,2.35363 10.80382,-1.41721 34.78646,-19.49159 50.12328,-37.77512 1.9775,-2.35745 4.50555,-5.20305 5.6179,-6.32355 1.11234,-1.12052 2.02244,-2.45325 2.02244,-2.96164 0,-0.50838 0.60674,-1.15716 1.3483,-1.44173 0.74156,-0.28456 1.3483,-1.1031 1.3483,-1.81899 0,-0.71588 0.34353,-1.43643 0.76339,-1.60122 1.82508,-0.71632 19.64248,-32.502 19.18854,-34.23176 -0.0973,-0.37078 0.25145,-0.67415 0.775,-0.67415 0.52356,0 0.70193,-0.40449 0.39638,-0.89886 -0.30554,-0.49438 -0.0598,-0.89887 0.5462,-0.89887 0.60595,0 0.84623,-0.2555 0.53394,-0.56778 -0.31227,-0.31227 0.42862,-2.26798 1.64642,-4.34601 1.21781,-2.07803 1.94521,-4.04722 1.61645,-4.37598 -0.32876,-0.32875 -0.10196,-0.59774 0.50399,-0.59774 0.60595,0 0.85173,-0.40449 0.54619,-0.89886 -0.30554,-0.49438 -0.16674,-0.89887 0.30846,-0.89887 1.03417,0 2.9168,-5.01432 2.16493,-5.7662 -0.28922,-0.28922 -0.0301,-0.52585 0.57587,-0.52585 0.60596,0 0.85174,-0.40449 0.5462,-0.89886 -0.30554,-0.49438 -0.21438,-0.89887 0.20259,-0.89887 0.41695,0 1.45452,-1.17893 2.30569,-2.61985 1.17884,-1.99561 1.27856,-2.72833 0.41852,-3.07507 -0.875,-0.35277 -0.86429,-0.47117 0.0476,-0.52617 0.64716,-0.039 0.92665,-0.47545 0.62111,-0.96982 -0.30554,-0.49438 -0.13539,-0.89887 0.37811,-0.89887 1.54905,0 4.73249,-6.97117 3.42502,-7.50016 -0.60859,-0.24623 -0.33127,-0.47963 0.61629,-0.51866 0.94755,-0.039 1.47527,-0.31851 1.17271,-0.62107 -0.30256,-0.30256 0.64161,-2.66172 2.09816,-5.24257 1.45654,-2.58086 2.37823,-4.96249 2.04821,-5.29251 -0.33002,-0.33003 -0.10427,-0.60005 0.50168,-0.60005 0.60595,0 0.85173,-0.40449 0.54619,-0.89886 -0.30554,-0.49438 -0.12717,-0.89887 0.39638,-0.89887 0.52356,0 0.85574,-0.30336 0.7382,-0.67414 -0.38163,-1.20377 2.20214,-6.516772 3.16918,-6.516772 0.51679,0 0.69427,-0.245345 0.39441,-0.545212 -0.29987,-0.299865 -0.0639,-1.147352 0.52433,-1.883303 4.69947,-5.879419 8.18142,-7.599444 11.70047,-5.779837 1.07425,0.55547 3.29853,1.100011 4.94283,1.210092 1.64431,0.110082 3.18909,0.522854 3.43285,0.917273 0.24377,0.394418 0.81975,0.48441 1.27997,0.199981 0.46021,-0.284428 0.83675,-0.06491 0.83675,0.487819 0,0.552729 0.40449,0.754973 0.89886,0.449432 0.49438,-0.305541 0.89887,-0.05976 0.89887,0.546195 0,0.605948 0.2688,0.832927 0.59732,0.504397 0.5239,-0.523896 6.3475,5.07589 8.84076,8.500975 1.07194,1.47257 1.47104,7.25939 0.45746,6.63296 -0.64327,-0.39756 -1.64517,3.02968 -2.03502,6.96123 -0.0858,0.86516 -0.49765,1.57302 -0.91526,1.57302 -0.41762,0 -0.50932,0.40449 -0.20378,0.89886 0.30555,0.49438 0.1033,0.89887 -0.44943,0.89887 -0.55273,0 -0.75497,0.40449 -0.44943,0.89886 0.30554,0.49438 0.1033,0.89887 -0.44943,0.89887 -0.55273,0 -0.75498,0.40448 -0.44944,0.89886 0.30555,0.49438 0.15854,0.89886 -0.32667,0.89886 -0.48522,0 -1.34943,1.41572 -1.92049,3.14603 -0.57105,1.73031 -1.43527,3.14603 -1.92048,3.14603 -0.48521,0 -0.63222,0.40449 -0.32668,0.89886 0.30554,0.49438 0.12717,0.89887 -0.39638,0.89887 -0.52355,0 -0.95192,0.41158 -0.95192,0.91463 0,0.50305 -2.04553,4.21272 -4.54563,8.2437 -2.50009,4.03099 -4.62366,7.76395 -4.71903,8.29548 -0.0954,0.53152 -0.62897,1.37236 -1.18575,1.86852 -0.55679,0.49616 -2.54999,3.6987 -4.42933,7.11674 l -3.417,6.21462 3.9799,-2.16973 c 2.18894,-1.19335 4.11473,-2.4731 4.27952,-2.84388 0.1648,-0.37078 0.87265,-0.67415 1.57301,-0.67415 0.70037,0 1.2734,-0.40449 1.2734,-0.89886 0,-0.49438 0.30337,-0.83465 0.67415,-0.75616 0.85741,0.18149 4.1266,-1.17126 4.71904,-1.95268 1.8014,-2.37608 13.47709,-7.55039 19.77502,-8.7637 5.55761,-1.07068 16.23808,-0.49482 18.66724,1.00648 0.60927,0.37655 1.11397,0.3574 1.12154,-0.0425 0.007,-0.39996 0.31476,-0.25402 0.68266,0.32431 0.36788,0.57833 1.20629,1.18507 1.86312,1.3483 1.71193,0.42544 8.66546,7.10762 9.95703,9.56848 0.60064,1.14443 1.30131,2.96463 1.55703,4.04489 0.78539,3.31777 0.80188,14.24354 0.0222,14.72517 -0.40449,0.24988 -0.5183,1.02013 -0.25293,1.71169 0.26538,0.69156 0.0475,1.25738 -0.48432,1.25738 -0.53176,0 -0.734,0.60673 -0.44943,1.3483 0.28456,0.74156 0.17467,1.34829 -0.24421,1.34829 -0.8034,0 -3.08674,4.86789 -2.78998,5.94798 0.0955,0.34754 -0.47787,0.99649 -1.27412,1.4421 -0.79626,0.4456 -1.23931,1.14744 -0.98457,1.55963 0.25474,0.41218 -0.14123,0.98136 -0.87996,1.26484 -0.73868,0.28347 -1.3431,0.86285 -1.3431,1.2875 0,0.95569 -12.45733,13.4933 -12.93364,13.017 -0.18941,-0.18941 -1.14577,0.67443 -2.12525,1.91964 -0.97948,1.24521 -2.0273,2.01759 -2.32848,1.71641 -0.30119,-0.30118 -0.80175,0.11471 -1.11238,0.92419 -0.31062,0.80948 -0.92973,1.24623 -1.37581,0.97054 -0.44606,-0.27569 -1.05279,0.1288 -1.34829,0.89886 -0.2955,0.77007 -0.89938,1.17632 -1.34194,0.90279 -0.44258,-0.27352 -0.80469,-0.069 -0.80469,0.4546 0,0.52355 -0.60673,0.95191 -1.34829,0.95191 -0.74157,0 -1.3483,0.42836 -1.3483,0.95192 0,0.52355 -0.40449,0.70192 -0.89886,0.39638 -0.49438,-0.30554 -0.89887,-0.0598 -0.89887,0.54619 0,0.60595 -0.25039,0.85133 -0.55644,0.54529 -0.30604,-0.30605 -1.10098,-0.0701 -1.76653,0.52433 -2.89149,2.58249 -3.96908,3.36578 -3.96908,2.88506 0,-0.67486 -8.08916,3.81707 -10.11223,5.61534 -3.07327,2.73177 -1.99279,5.8613 3.59546,10.41396 5.76821,4.69928 10.60125,6.42536 15.70558,5.60915 4.19113,-0.67018 15.08053,-5.05642 15.08053,-6.0744 0,-0.40664 0.61943,-0.73933 1.37651,-0.73933 0.75708,0 1.60844,-0.60442 1.89192,-1.34314 0.28347,-0.73872 0.84984,-1.13645 1.25858,-0.88383 0.40875,0.25263 1.37759,-0.44644 2.15298,-1.55346 0.77538,-1.10702 1.40979,-1.61997 1.40979,-1.13989 0,1.67319 12.24387,-12.0078 16.62407,-18.57532 2.42702,-3.63898 4.73559,-6.75116 5.13015,-6.91594 0.39457,-0.1648 0.7174,-0.68732 0.7174,-1.16118 0,-0.47384 0.79499,-1.71486 1.76664,-2.75781 0.97166,-1.04294 1.58071,-2.19711 1.35346,-2.56482 -0.22725,-0.3677 0.21686,-0.91033 0.98693,-1.20582 0.77005,-0.2955 1.14834,-0.94462 0.84065,-1.44249 -0.3077,-0.49786 -0.17762,-0.90521 0.28907,-0.90521 1.03781,0 4.05151,-4.4638 4.05151,-6.00095 0,-0.61193 0.56496,-1.3294 1.25546,-1.59436 0.6905,-0.26498 1.0037,-0.88912 0.69601,-1.38699 -0.3077,-0.49786 0.0711,-0.90521 0.84189,-0.90521 0.77074,0 1.40134,-0.60673 1.40134,-1.3483 0,-0.74156 0.40449,-1.34829 0.89887,-1.34829 0.49437,0 0.89886,-0.56346 0.89886,-1.25213 0,-0.68867 0.66463,-1.50717 1.47695,-1.81889 0.81233,-0.31171 1.27919,-0.76452 1.03748,-1.00623 -0.24171,-0.24171 1.01498,-2.11009 2.79266,-4.15197 1.77766,-2.04188 5.39444,-6.18285 8.03728,-9.20217 2.64284,-3.01931 7.29446,-7.24212 10.33694,-9.38402 5.9575,-4.19407 14.071,-8.63164 14.071,-7.69596 0,0.31605 0.60674,0.0711 1.3483,-0.54435 0.74156,-0.61544 1.3483,-0.81769 1.3483,-0.44943 0,0.36825 0.54282,0.21905 1.20628,-0.33157 0.66345,-0.55062 1.44553,-0.76189 1.73793,-0.46949 0.2924,0.2924 1.06417,0.19731 1.71502,-0.21132 2.86683,-1.79988 23.72687,-1.78641 26.64519,0.0172 0.58008,0.35851 1.43124,0.41913 1.89145,0.1347 0.46022,-0.28443 1.0949,-0.0995 1.41041,0.41104 0.31551,0.51051 0.95019,0.69548 1.41041,0.41105 0.46021,-0.28443 0.83675,-0.0649 0.83675,0.48782 0,0.55273 0.37188,0.77513 0.8264,0.49422 0.45452,-0.28091 1.43685,0.0997 2.18296,0.84582 0.74611,0.7461 1.71426,1.35656 2.15146,1.35656 2.49549,0 8.32215,9.05687 8.32215,12.93584 0,1.23132 0.31542,2.4337 0.70094,2.67196 1.24647,0.77036 -0.50283,17.49531 -2.43814,23.31093 -1.0335,3.10566 -3.07945,7.04626 -4.54656,8.75689 -6.98655,8.1462 -9.53719,10.73108 -10.59816,10.74043 -0.63349,0.005 -1.38462,0.61687 -1.66918,1.35844 -0.28457,0.74156 -1.00458,1.34829 -1.60003,1.34829 -0.59544,0 -1.8778,0.70786 -2.84967,1.57302 -1.74403,1.55252 -8.06702,5.06262 -9.51277,5.28082 -0.40943,0.0618 -0.94666,0.21349 -1.19385,0.33708 -0.24719,0.12359 -0.85392,0.32584 -1.3483,0.44943 -0.49437,0.1236 -1.20223,0.32318 -1.57301,0.44352 -0.37078,0.12034 -1.03786,0.15078 -1.48241,0.0677 -0.44454,-0.0831 -1.45576,0.13148 -2.24716,0.47691 -0.79139,0.34545 -2.85461,0.7062 -4.58493,0.80167 -7.4684,0.41212 -20.38656,1.50394 -22.24689,1.88027 -2.43329,0.49223 -2.5329,1.91065 -0.44944,6.39964 1.90491,4.10425 4.13609,6.80019 8.18171,9.88593 2.35091,1.79313 4.62393,2.49026 9.90637,3.03827 5.99228,0.62166 7.81738,0.42645 14.49576,-1.5504 13.29477,-3.93535 24.08627,-11.08096 37.36584,-24.74185 7.89678,-8.12355 19.04596,-22.6629 18.58848,-24.24078 -0.12359,-0.42629 0.20365,-0.77506 0.7272,-0.77506 0.52355,0 0.70192,-0.40449 0.39638,-0.89887 -0.30554,-0.49437 0.0751,-0.89886 0.84581,-0.89886 0.77075,0 1.40135,-0.57303 1.40135,-1.2734 0,-0.70036 0.30337,-1.40821 0.67415,-1.57301 1.10454,-0.49091 5.76917,-7.0411 5.01422,-7.0411 -0.38235,0 0.21056,-0.63441 1.31758,-1.4098 1.10702,-0.77539 1.81964,-1.72229 1.5836,-2.10422 -0.23605,-0.38193 0.76841,-1.57983 2.23213,-2.662 1.46371,-1.0822 2.66129,-2.51517 2.66129,-3.1844 0,-0.66924 1.71908,-2.66698 3.82017,-4.43944 2.1011,-1.77245 4.8271,-4.14533 6.05778,-5.27306 1.23068,-1.12773 2.94976,-2.34076 3.82017,-2.69561 0.87042,-0.35485 1.58258,-1.08658 1.58258,-1.62606 0,-0.53948 0.37962,-0.74626 0.84362,-0.45949 0.46399,0.28676 1.24451,-0.19498 1.7345,-1.07054 0.48998,-0.87555 1.02045,-1.45339 1.17883,-1.28408 0.5548,0.59313 5.23169,-1.95381 5.23169,-2.84909 0,-0.49741 0.25543,-0.64896 0.56762,-0.33677 0.31219,0.31219 1.42454,0.0906 2.47188,-0.49249 1.04734,-0.58306 2.20762,-1.125 2.57841,-1.20431 0.37078,-0.0793 0.87639,-0.24533 1.12358,-0.36893 0.24718,-0.12359 0.85392,-0.32584 1.34829,-0.44943 0.49438,-0.12359 0.99999,-0.30899 1.12358,-0.41198 0.1236,-0.103 1.0337,-0.34034 2.02245,-0.52744 0.98875,-0.18709 3.0112,-0.56973 4.49432,-0.8503 6.20766,-1.17434 16.96506,-1.38481 19.97677,-0.39086 2.54739,0.84071 3.30834,0.80469 3.93618,-0.18634 0.65801,-1.03866 0.78042,-1.03868 0.79206,-1.2e-4 0.009,0.78359 0.66443,1.05826 1.8106,0.75853 0.98826,-0.25843 1.99652,-0.14679 2.24058,0.24811 0.24406,0.39489 2.36802,0.66029 4.71993,0.58976 l 4.27619,-0.12823 5.06412,-9.88751 c 2.78526,-5.43813 5.02514,-10.08975 4.9775,-10.33694 -0.0476,-0.24718 0.41805,-1.35953 1.03485,-2.47187 0.6168,-1.11235 0.80385,-2.02864 0.41568,-2.03621 -0.38818,-0.008 -0.29305,-0.31094 0.21138,-0.67415 1.36816,-0.98512 3.22652,-5.61598 2.63668,-6.57036 -0.28265,-0.45733 -0.17275,-0.83151 0.24421,-0.83151 0.41696,0 1.47492,-1.21347 2.35103,-2.69659 0.8761,-1.48313 1.35848,-2.6966 1.07194,-2.6966 -0.28653,0 0.0965,-0.94239 0.85119,-2.0942 0.7547,-1.1518 1.1011,-2.36527 0.76978,-2.69659 -0.33131,-0.33132 -0.0631,-0.60239 0.59609,-0.60239 0.65917,0 0.94299,-0.25551 0.63071,-0.56778 -0.31227,-0.31228 0.42861,-2.26799 1.64641,-4.346018 1.21781,-2.07803 1.94522,-4.047219 1.61646,-4.375976 -0.32876,-0.328757 -0.10197,-0.597741 0.50398,-0.597741 0.60596,0 0.88941,-0.343527 0.62993,-0.763393 -0.25949,-0.419866 0.53975,-1.304763 1.7761,-1.966438 1.23642,-0.661709 2.04423,-1.733828 1.79527,-2.382633 -0.27495,-0.716483 0.21265,-1.179587 1.24196,-1.179587 0.93204,0 1.82944,0.362171 1.99424,0.804826 0.25308,0.679838 4.36397,1.673999 8.61411,2.083209 0.61797,0.0595 1.12358,0.478961 1.12358,0.932139 0,0.453177 0.502,0.656626 1.11556,0.452107 0.61355,-0.204518 1.68355,0.196151 2.37778,0.890375 1.03921,1.039207 1.39553,1.051969 2.0167,0.07223 0.58048,-0.915551 0.75766,-0.842263 0.76825,0.317776 0.007,0.829276 1.02499,2.303201 2.26093,3.275391 1.23593,0.972189 2.24716,2.215014 2.24716,2.761833 0,0.546819 0.42836,0.994216 0.95191,0.994216 0.52356,0 0.70193,0.404489 0.39638,0.898864 -0.30554,0.49438 -0.10329,0.89887 0.44944,0.89887 0.55273,0 0.77225,0.37654 0.48782,0.83675 -0.28444,0.46022 -0.12373,1.0799 0.35712,1.37708 0.48085,0.29718 0.66212,1.0932 0.40281,1.76892 -0.25929,0.67573 -0.13171,1.43856 0.28351,1.69518 1.01087,0.62475 0.70241,8.32993 -0.50913,12.71777 -0.53537,1.93897 -0.78563,3.71316 -0.55614,3.94266 0.2295,0.2295 -0.0333,0.9601 -0.58385,1.62356 -0.55062,0.66345 -0.64824,1.21248 -0.21692,1.22005 0.43131,0.008 0.25834,0.34733 -0.3844,0.75502 -0.64274,0.4077 -1.23443,1.61497 -1.31486,2.68283 -0.0804,1.06786 -0.48854,1.94157 -0.90689,1.94157 -0.41835,0 -0.51064,0.40449 -0.2051,0.89886 0.30554,0.49438 0.1033,0.89887 -0.44943,0.89887 -0.55273,0 -0.75498,0.40449 -0.44943,0.89886 0.30554,0.49438 0.10329,0.89887 -0.44944,0.89887 -0.55273,0 -0.75497,0.40449 -0.44943,0.89886 0.30554,0.49438 0.1033,0.89887 -0.44943,0.89887 -0.55273,0 -0.75498,0.40449 -0.44943,0.89886 0.30554,0.49438 0.10329,0.89887 -0.44944,0.89887 -0.55273,0 -0.75497,0.40449 -0.44943,0.89886 0.30554,0.49438 0.12717,0.89887 -0.39638,0.89887 -0.52355,0 -0.95191,0.60673 -0.95191,1.34829 0,0.74157 -0.42837,1.3483 -0.95192,1.3483 -0.52355,0 -0.72327,0.36994 -0.44383,0.82209 0.27945,0.45215 0.17865,0.95776 -0.22399,1.12358 -1.137,0.46825 -6.64748,8.83723 -5.83908,8.86804 0.39453,0.015 0.009,0.43962 -0.85568,0.94353 -0.86516,0.5039 -1.57301,1.50283 -1.57301,2.21982 0,0.717 -0.40449,1.30364 -0.89887,1.30364 -0.49437,0 -0.89886,0.60673 -0.89886,1.34829 0,0.74157 -0.33957,1.3483 -0.75458,1.3483 -0.73019,0 -3.17451,4.56669 -2.84346,5.31238 0.09,0.20275 -0.47932,0.72846 -1.26518,1.16825 -0.78586,0.43979 -1.42884,1.38625 -1.42884,2.10325 0,0.717 -0.37486,1.30363 -0.83303,1.30363 -0.45817,0 -1.41042,1.11234 -2.11614,2.47188 -0.70572,1.35953 -2.80456,5.10105 -4.66408,8.31449 -3.71238,6.41531 -7.02411,15.03891 -6.25397,16.28503 0.2697,0.43637 0.0187,0.7934 -0.55773,0.7934 -0.57644,0 -0.82023,0.59378 -0.54173,1.31951 0.27848,0.72573 0.0919,1.57562 -0.41455,1.88865 -0.50648,0.31302 -0.70873,1.122 -0.44943,1.79773 0.2593,0.67572 0.0571,1.4847 -0.44943,1.79773 -0.50649,0.31302 -0.71893,1.09541 -0.47211,1.73863 0.24683,0.64323 0.20763,1.41064 -0.0871,1.70537 -0.29472,0.29474 -0.64015,1.44663 -0.7676,2.55976 -0.12746,1.11314 -0.69162,4.85531 -1.25371,8.31594 -3.0546,18.80643 1.69187,26.48403 12.21246,19.7541 3.97985,-2.54588 6.98623,-5.68731 15.2587,-15.9442 0.70233,-0.87081 1.27696,-1.93988 1.27696,-2.37571 0,-0.43583 0.63237,-1.03509 1.40527,-1.33168 0.7729,-0.29659 1.15351,-0.94659 0.84582,-1.44446 -0.3077,-0.49787 -0.16408,-0.90522 0.31915,-0.90522 0.48323,0 1.81359,-1.51683 2.95636,-3.37074 2.19734,-3.56474 8.06216,-9.48113 9.842,-9.92854 0.58145,-0.14616 2.013,0.6322 3.18123,1.72969 1.16823,1.0975 2.12406,1.66001 2.12406,1.25003 0,-0.40999 0.79292,-0.0279 1.76205,0.8492 0.96913,0.87705 1.71279,1.84985 1.65258,2.16176 -0.0602,0.31192 0.40957,1.78059 1.04396,3.26371 1.24768,2.91693 1.42669,6.91037 0.45215,10.08657 -0.33697,1.09823 -0.55407,2.22502 -0.48244,2.50398 0.0716,0.27896 -0.49467,1.1321 -1.25844,1.89585 -0.76375,0.76377 -1.15882,1.76054 -0.87791,2.21506 0.2809,0.45452 0.0823,0.8264 -0.44117,0.8264 -0.52355,0 -0.95192,0.60674 -0.95192,1.3483 0,0.74156 -0.41718,1.3483 -0.92707,1.3483 -0.5099,0 -1.16912,0.63077 -1.46497,1.40171 -0.46911,1.22248 -16.48411,17.67046 -16.48411,16.92977 0,-0.15518 -2.62428,1.70417 -5.83173,4.13189 -3.20745,2.4277 -7.75795,5.52686 -10.11222,6.88701 -2.35428,1.36015 -4.57768,2.8969 -4.94089,3.41502 -0.44395,0.63327 -0.66489,0.60135 -0.67415,-0.0974 -0.008,-0.59504 -0.78234,-0.83845 -1.81149,-0.56932 -0.98875,0.25857 -1.79773,0.73265 -1.79773,1.05352 0,0.98561 -16.73556,-0.81841 -18.66724,-2.01225 -0.60928,-0.37656 -1.10778,-0.42964 -1.10778,-0.11796 0,0.31168 -0.63934,-0.0726 -1.42076,-0.85408 -0.78142,-0.78142 -1.75026,-1.21712 -2.15298,-0.96823 -0.40271,0.24889 -0.96558,-0.15564 -1.25081,-0.89894 -0.28524,-0.74331 -0.83323,-1.26105 -1.21777,-1.15052 -0.74318,0.2136 -7.41728,-6.25153 -7.4744,-7.24036 -0.0186,-0.32135 -1.37006,-2.14513 -3.00332,-4.05284 l -2.96958,-3.46857 -3.06401,2.67315 c -1.6852,1.47023 -3.97411,2.95722 -5.08645,3.30443 -1.11235,0.3472 -2.02245,1.01852 -2.02245,1.49182 0,0.47329 -1.02158,1.24894 -2.2702,1.72366 -1.2486,0.47473 -2.50445,1.47361 -2.79077,2.21975 -0.28633,0.74614 -0.88555,1.13107 -1.33162,0.85538 -0.44606,-0.27568 -1.05279,0.12881 -1.34829,0.89887 -0.2955,0.77006 -0.87452,1.19168 -1.2867,0.93693 -0.41219,-0.25474 -1.07767,0.12333 -1.47883,0.84018 -0.40116,0.71684 -1.04791,1.29423 -1.43721,1.28307 -0.38929,-0.0111 -2.41174,0.6831 -4.49432,1.54279 -2.08258,0.85968 -4.79773,1.76884 -6.03367,2.02036 -3.49141,0.71052 -12.69423,0.6342 -16.17956,-0.13418 -1.73032,-0.38147 -3.65164,-0.73642 -4.26961,-0.7888 -0.61797,-0.0524 -1.12358,-0.40503 -1.12358,-0.7837 0,-0.59581 -3.20191,-1.99304 -4.49432,-1.9612 -0.24719,0.006 -0.98272,-0.75031 -1.63452,-1.68088 -0.65179,-0.93057 -1.50309,-1.4954 -1.89178,-1.25518 -0.38869,0.24023 -1.64499,-0.56198 -2.79178,-1.78269 -1.14679,-1.2207 -1.74182,-2.21946 -1.32227,-2.21946 0.41954,0 -0.0649,-0.9101 -1.0765,-2.02244 -1.01162,-1.11235 -3.00345,-3.83747 -4.4263,-6.05582 -5.10661,-7.96172 -6.38387,-8.62089 -10.4726,-5.4047 -1.25699,0.98875 -2.72726,1.79773 -3.26725,1.79773 -0.53999,0 -0.9818,0.40448 -0.9818,0.89886 0,0.49438 -0.58664,0.89886 -1.30363,0.89886 -0.717,0 -1.71593,0.70786 -2.21983,1.57302 -0.50391,0.86516 -0.9285,1.26457 -0.94353,0.88759 -0.015,-0.37698 -1.63726,0.33087 -3.60493,1.57301 -1.96768,1.24214 -3.99013,2.25844 -4.49433,2.25844 -0.5042,0 -0.91672,0.40449 -0.91672,0.89886 0,0.49438 -0.60673,0.89887 -1.3483,0.89887 -0.74156,0 -1.34829,0.36492 -1.34829,0.81092 0,0.44602 -1.11235,1.27112 -2.47188,1.83356 -1.35953,0.56244 -4.47967,2.1904 -6.93364,3.61768 -2.45396,1.42729 -4.77977,2.39852 -5.16847,2.15829 -0.38869,-0.24022 -0.7129,0.29495 -0.72047,1.18929 -0.0106,1.25512 -0.19005,1.34785 -0.78651,0.40652 -0.51373,-0.81077 -0.9707,-0.89925 -1.36332,-0.26398 -0.32482,0.52557 -1.18436,0.72772 -1.91009,0.44923 -0.85741,-0.32902 -1.34436,0.0782 -1.39047,1.16284 -0.0403,0.94619 -0.26733,1.18251 -0.52434,0.5456 -0.47492,-1.17699 -3.18795,-1.53503 -4.17236,-0.55063 -0.77741,0.77741 -33.8939,1.0363 -34.36832,0.26867 -0.39129,-0.63312 -5.74905,-2.07154 -6.93083,-1.86073 -0.37078,0.0661 -0.67414,-0.35166 -0.67414,-0.92843 0,-0.57677 -0.23643,-0.81224 -0.52541,-0.52328 -0.28896,0.28898 -1.19907,-0.0514 -2.02244,-0.75641 -0.82337,-0.70499 -1.82692,-1.25765 -2.23009,-1.22812 -0.40319,0.0296 -1.54792,-0.98223 -2.54386,-2.24836 -0.99595,-1.26614 -2.14215,-2.09728 -2.54713,-1.84698 -0.40499,0.25029 -2.00104,-1.06045 -3.54678,-2.91275 -1.54573,-1.8523 -3.40669,-4.00849 -4.13544,-4.79153 -0.72876,-0.78303 -1.32501,-1.89538 -1.32501,-2.47187 0,-0.5765 -0.31728,-1.04818 -0.70506,-1.04818 -0.38779,0 -1.42188,-1.21347 -2.29798,-2.69659 -1.71397,-2.90153 -3.92537,-3.5277 -4.76168,-1.3483 -0.28457,0.74156 -1.05792,1.3483 -1.71855,1.3483 -0.66064,0 -1.83084,0.89898 -2.60043,1.99773 -0.76959,1.09875 -1.39927,1.65676 -1.39927,1.24001 0,-0.41674 -1.78715,0.70673 -3.97145,2.4966 -2.18429,1.78986 -4.36571,3.2543 -4.84758,3.2543 -0.48188,0 -1.10896,0.60674 -1.39353,1.3483 -0.28457,0.74156 -1.09354,1.3483 -1.79773,1.3483 -0.70418,0 -1.523,0.63236 -1.81959,1.40526 -0.29659,0.7729 -0.94945,1.15175 -1.45081,0.8419 -0.50136,-0.30986 -1.15334,0.0667 -1.44884,0.83672 -0.29549,0.77007 -0.87451,1.19168 -1.2867,0.93693 -0.41219,-0.25473 -1.16648,0.2532 -1.67621,1.12875 -0.50973,0.87556 -0.93908,1.29746 -0.95411,0.93756 -0.015,-0.35988 -1.9067,0.53752 -4.20371,1.99423 -2.29701,1.45673 -4.5217,2.43517 -4.94375,2.17432 -0.42206,-0.26084 -1.242,-0.18093 -1.82208,0.17758 -1.44479,0.89292 -4.5567,1.14618 -19.16975,1.56007 -6.92126,0.19603 -12.98859,0.11749 -13.48297,-0.17454 -0.49438,-0.29203 -1.69422,-0.65461 -2.66634,-0.80573 -2.17038,-0.33738 -6.06889,-2.7808 -7.04112,-4.41306 -0.39535,-0.66375 -1.10191,-1.20681 -1.57013,-1.20681 -0.82159,0 -9.84573,-8.91914 -9.84573,-9.73116 0,-0.2198 -0.9101,-1.28936 -2.02244,-2.3768 -1.11235,-1.08745 -2.91609,-3.15628 -4.00833,-4.5974 -1.09222,-1.44112 -2.73298,-3.57886 -3.64612,-4.75052 l -1.66025,-2.1303 -1.54306,2.35501 c -0.84869,1.29526 -1.28197,2.35502 -0.96286,2.35502 0.31913,0 0.0767,0.60673 -0.53877,1.34829 -0.61544,0.74157 -0.80452,1.3483 -0.42018,1.3483 0.38434,0 -0.0333,0.80898 -0.92812,1.79773 -0.89481,0.98875 -1.31245,1.79773 -0.92811,1.79773 0.38434,0 0.19526,0.60673 -0.42018,1.3483 -0.84589,1.01922 -0.85708,1.34829 -0.0458,1.34829 0.68762,0 0.5657,0.50743 -0.33937,1.41251 -1.24444,1.24444 -1.83841,3.3907 -1.18779,4.29197 0.1236,0.17119 -0.33042,0.98017 -1.00892,1.79773 -0.67851,0.81754 -0.93387,1.48644 -0.56747,1.48644 0.3664,0 -0.39305,1.38873 -1.68766,3.08605 -1.29462,1.69733 -2.35385,3.56706 -2.35385,4.15495 0,0.80107 -0.30734,0.81383 -1.22656,0.051 -0.67462,-0.55988 -2.59594,-0.99606 -4.26961,-0.96929 -1.67368,0.0268 -3.85202,-0.0353 -4.84077,-0.13801 -2.12415,-0.22056 -12.70588,-10.52348 -12.81432,-12.4767 -0.16137,-2.90637 -1.12939,-5.74823 -2.2206,-6.51914 -0.85435,-0.60355 -0.87567,-0.91893 -0.084,-1.24354 0.78346,-0.32126 0.67148,-1.53641 -0.42856,-4.6506 -0.81902,-2.31864 -1.59231,-4.37692 -1.71843,-4.57395 -0.39518,-0.6174 -6.96239,4.26102 -10.11562,7.51434 -1.65836,1.71099 -3.32321,2.92053 -3.69967,2.68787 -0.37645,-0.23266 -1.52582,0.64661 -2.55416,1.95392 -1.02834,1.30732 -1.88316,2.01903 -1.89961,1.58158 -0.0164,-0.43745 -0.77521,0.0975 -1.68614,1.18886 -0.91093,1.09132 -1.89918,1.74128 -2.1961,1.44436 -0.29692,-0.29692 -0.7949,0.12476 -1.10662,0.93708 -0.31177,0.81231 -1.13027,1.47694 -1.81894,1.47694 -0.68867,0 -1.25213,0.40448 -1.25213,0.89886 0,0.49438 -0.60673,0.89886 -1.3483,0.89886 -0.74156,0 -1.34829,0.35439 -1.34829,0.78753 0,0.43313 -2.7303,2.20144 -6.06734,3.92957 -5.36761,2.77969 -7.24655,3.49707 -12.80882,4.89044 -3.01753,0.7559 -8.04299,1.14678 -15.2807,1.18854 -12.44967,0.0718 -16.45289,-0.65306 -20.8986,-3.78429 -1.35953,-0.95756 -2.47187,-1.51474 -2.47187,-1.23818 0,0.27655 -2.12357,-1.85624 -4.71904,-4.73954 -7.061,-7.84405 -9.56659,-10.92005 -8.90754,-10.93534 0.32617,-0.007 0.1704,-0.31093 -0.34615,-0.67415 -0.51656,-0.36321 -2.70725,-3.49181 -4.86822,-6.95243 -2.16096,-3.46063 -4.56975,-6.81266 -5.35286,-7.44896 -0.97585,-0.7929 -3.60294,-1.05251 -8.34977,-0.82513 -3.80926,0.18248 -6.76318,0.0684 -6.56424,-0.25346 0.59735,-0.96654 -5.17345,0.0438 -8.30729,1.45434 -1.60672,0.72321 -2.92131,1.63303 -2.92131,2.02181 0,0.38879 -1.20223,1.88665 -2.67162,3.32857 -1.46939,1.44193 -2.68286,3.05123 -2.69659,3.57623 -0.0138,0.525 -1.24969,1.86001 -2.74657,2.9667 -1.49687,1.10669 -2.52383,2.33213 -2.28213,2.7232 0.5343,0.86453 -5.24712,6.62499 -5.94684,5.92528 -0.27249,-0.27249 -1.76272,0.94795 -3.31165,2.71207 -1.54891,1.76412 -2.82967,2.89004 -2.84612,2.50207 -0.0164,-0.38799 -0.7752,0.18746 -1.68614,1.27879 -0.91093,1.09132 -1.89917,1.74128 -2.1961,1.44436 -0.29692,-0.29692 -0.79401,0.12244 -1.10464,0.93193 -0.31062,0.80948 -0.92688,1.24799 -1.36945,0.97446 -0.44257,-0.27352 -0.80468,-0.0451 -0.80468,0.50765 0,0.55273 -0.40449,0.75497 -0.89886,0.44943 -0.49438,-0.30554 -0.89887,-0.1033 -0.89887,0.44943 0,0.55273 -0.30336,0.82634 -0.67414,0.60802 -0.37079,-0.21832 -1.68538,0.0153 -2.92131,0.51909 -3.84089,1.5657 -5.47747,1.71648 -18.42673,1.69766 -14.01247,-0.0204 -14.83126,-0.0883 -14.83126,-1.2299 0,-0.44116 -0.40449,-0.55211 -0.89887,-0.24657 -0.49437,0.30554 -0.89886,0.1033 -0.89886,-0.44943 0,-0.55273 -0.40449,-0.75498 -0.89886,-0.44944 -0.49438,0.30555 -0.89887,0.12717 -0.89887,-0.39638 0,-0.52355 -0.46102,-0.95191 -1.02449,-0.95191 -0.56346,0 -1.54208,-0.70786 -2.1747,-1.57302 -0.63261,-0.86515 -1.48619,-1.57914 -1.89682,-1.58663 -0.86474,-0.0158 -5.89199,-4.93013 -5.04339,-4.93013 0.31089,0 -0.25964,-0.9101 -1.26785,-2.02245 -2.17984,-2.40499 -7.50985,-10.8858 -9.05453,-14.40705 -0.60248,-1.37342 -1.67297,-2.71874 -2.37887,-2.98962 -1.35766,-0.52099 -5.87877,1.96048 -7.09126,3.89212 -0.39535,0.62984 -1.29334,1.14516 -1.99553,1.14516 -0.7022,0 -2.16214,1.19759 -3.24431,2.6613 -1.08217,1.46372 -2.28219,2.46686 -2.66672,2.22921 -0.38452,-0.23765 -1.99155,1.17615 -3.57117,3.14177 -1.57962,1.96562 -3.19762,3.49054 -3.59555,3.3887 -0.39794,-0.10185 -2.67036,1.73355 -5.04982,4.07865 -2.37946,2.3451 -8.58906,8.41243 -13.799111,13.48297 -8.86135,8.62405 -9.605082,9.6253 -11.521788,15.5112 -1.126931,3.46063 -2.28983,6.89878 -2.584219,7.64035 -0.294389,0.74156 -0.576381,1.55054 -0.626649,1.79772 -0.05026,0.24719 -0.41244,0.95505 -0.804829,1.57302 -0.392387,0.61797 -0.484796,1.49352 -0.205351,1.94567 0.279445,0.45215 0.07905,0.9651 -0.445332,1.1399 -0.524378,0.17479 -1.043884,0.9172 -1.154458,1.64978 -0.110574,0.73259 -0.516908,1.83759 -0.902964,2.45556 -0.406189,0.6502 -0.273811,1.12358 0.314197,1.12358 0.587417,0 0.420183,0.59594 -0.396384,1.41251 -0.776876,0.77687 -1.463063,1.99034 -1.52486,2.69659 -0.124004,1.4172 -0.440918,2.84008 -0.786506,3.53125 -0.123594,0.24719 -0.309171,0.7528 -0.412394,1.12358 -0.103223,0.37079 -0.670794,1.88762 -1.261271,3.37075 -0.590477,1.48312 -1.940205,4.92128 -2.999395,7.64034 -1.059191,2.71907 -2.69329,6.0561 -3.631333,7.41564 -1.664852,2.41292 -2.349517,2.59718 -6.976304,1.87754 z M 191.15339,241.31739 c 3.7786,-2.92905 5.72581,-5.47049 10.0752,-13.14981 2.69885,-4.76508 3.75131,-7.54904 3.44377,-9.10944 -0.24359,-1.23594 -0.71787,-3.66287 -1.05395,-5.39319 -0.33607,-1.73031 -0.87455,-3.34827 -1.19659,-3.59546 -0.32205,-0.24718 -0.64606,-1.6629 -0.72002,-3.14602 -0.074,-1.48313 -0.42445,-4.5168 -0.77886,-6.74149 -1.04195,-6.54054 -0.41861,-27.50741 0.88029,-29.60906 0.37696,-0.60993 0.23634,-1.55801 -0.31249,-2.10684 -1.15196,-1.15196 -5.15779,1.41714 -6.77587,4.34565 -0.53261,0.96393 -1.28582,1.98743 -1.67381,2.27442 -0.97096,0.71824 -4.67881,7.34347 -7.87059,14.06324 -2.40263,5.05838 -7.73342,22.07528 -7.96141,25.41443 -0.0506,0.74156 -0.3371,3.79725 -0.63657,6.79042 -0.53637,5.36089 0.68985,11.0356 3.46017,16.01302 0.58631,1.05344 1.08036,2.25131 1.09787,2.66194 0.0542,1.27079 3.42014,3.29828 5.47562,3.29828 1.07479,0 3.12104,-0.90454 4.54724,-2.01009 z m 492.4993,-0.82906 c 1.77849,-1.56153 4.99593,-5.30881 7.14987,-8.32729 4.89271,-6.85653 20.77133,-32.99901 21.56824,-35.50986 0.3251,-1.02431 0.99221,-1.86238 1.48244,-1.86238 0.49024,0 0.64135,-0.40449 0.33581,-0.89887 -0.30554,-0.49437 -0.10329,-0.89886 0.44943,-0.89886 0.55273,0 0.75498,-0.40449 0.44944,-0.89887 -0.30554,-0.49437 -0.15854,-0.89886 0.32667,-0.89886 0.71474,0 2.63976,-4.27042 3.34281,-7.41563 0.0829,-0.37079 0.25181,-0.8764 0.37541,-1.12358 0.12359,-0.24719 0.28147,-0.7528 0.35083,-1.12358 0.0694,-0.37079 0.35309,-1.07864 0.63048,-1.57302 0.27739,-0.49437 0.59803,-2.51682 0.71253,-4.49432 0.15114,-2.61048 -0.3082,-4.14951 -1.67672,-5.6179 -1.03669,-1.11235 -2.17249,-2.03773 -2.52402,-2.0564 -0.35152,-0.0187 -2.14587,-0.25255 -3.98743,-0.51974 -6.11487,-0.88717 -12.61256,1.78794 -19.11318,7.86896 -5.69475,5.32715 -13.09372,15.34824 -14.34295,19.42595 -0.34078,1.11235 -1.0207,2.02245 -1.51093,2.02245 -0.49024,0 -0.6627,0.36994 -0.38326,0.82209 0.27944,0.45215 0.0831,0.96375 -0.43632,1.13689 -0.51943,0.17314 -1.01251,1.21892 -1.09575,2.32393 -0.0832,1.10502 -0.51303,2.00914 -0.95509,2.00914 -0.44206,0 -0.57093,0.60673 -0.28636,1.34829 0.28456,0.74157 0.0823,1.3483 -0.44943,1.3483 -0.53176,0 -0.73898,0.59378 -0.46048,1.31951 0.27848,0.72573 0.14525,1.54267 -0.29607,1.81543 -0.44133,0.27276 -0.80102,1.19581 -0.79932,2.05123 0.002,0.85542 -0.21474,2.76878 -0.48099,4.25191 -1.15481,6.43281 -1.39811,19.51221 -0.3982,21.40721 2.13821,4.05231 4.87114,6.80917 6.79776,6.85729 1.09515,0.0273 3.4463,-1.22789 5.22478,-2.78942 z M 429.25806,206.45938 c 0.31052,-0.50244 0.91318,-0.69809 1.33923,-0.43478 0.42606,0.26332 1.03279,0.061 1.3483,-0.44943 0.31551,-0.5105 0.95019,-0.69548 1.41041,-0.41104 0.46021,0.28443 0.83675,0.0888 0.83675,-0.43477 0,-0.52355 0.32448,-0.8508 0.72106,-0.7272 1.08099,0.33688 10.06532,-4.01249 10.06532,-4.87269 0,-0.40987 0.42086,-0.74521 0.93526,-0.74521 3.119,0 18.41831,-14.67961 21.07824,-20.22446 2.2266,-4.64153 2.42103,-12.86541 0.33575,-14.20067 -3.39916,-2.17657 -16.20368,6.88782 -27.755,19.64788 -9.28351,10.25496 -10.77381,12.03376 -10.77381,12.85939 0,0.45466 -0.63237,1.06932 -1.40527,1.36591 -0.7729,0.29659 -1.15351,0.94659 -0.84582,1.44446 0.3077,0.49787 0.14148,0.90521 -0.36937,0.90521 -1.06815,0 -4.07702,5.3861 -3.02053,5.40695 0.38347,0.007 0.0905,0.40587 -0.65107,0.88511 -0.98905,0.63917 -0.34457,0.875 2.41883,0.8851 2.07192,0.007 4.0212,-0.39733 4.33172,-0.89976 z m 136.16198,-4.02779 c 2.19611,-0.77483 5.67141,-2.39244 7.72289,-3.59469 5.03003,-2.94779 12.56449,-11.34961 13.90225,-15.50262 0.59823,-1.85721 1.45366,-3.83978 1.90095,-4.40571 0.4473,-0.56594 0.71893,-1.37492 0.60363,-1.79773 -0.11528,-0.42282 0.11119,-1.71403 0.50328,-2.86936 1.73692,-5.11795 -1.77858,-11.83181 -6.19536,-11.83181 -4.23235,0 -11.67381,5.00957 -16.40775,11.04566 -5.06592,6.45937 -11.91212,16.61834 -12.17772,18.07032 -0.10019,0.54779 -0.50581,1.23463 -0.90135,1.5263 -0.39556,0.29166 -0.785,1.40401 -0.86544,2.47188 -0.0804,1.06786 -0.49837,1.94156 -0.92874,1.94156 -0.43037,0 -0.60879,0.50561 -0.3965,1.12358 0.21229,0.61797 0.0856,2.18865 -0.28165,3.49039 l -0.66763,2.36681 5.09812,-0.3129 c 2.80396,-0.17209 6.89493,-0.94685 9.09102,-1.72168 z m -254.86947,-20.8464 c 4.05123,-2.68754 13.98071,-11.96313 13.98071,-13.06004 0,-0.38626 0.70786,-1.48227 1.57301,-2.43559 2.9564,-3.25765 3.82018,-4.48309 3.82018,-5.41968 0,-0.51524 0.40449,-0.9368 0.89886,-0.9368 0.49438,0 0.89887,-0.57303 0.89887,-1.27339 0,-0.70037 0.30336,-1.40822 0.67414,-1.57301 1.7368,-0.77191 10.54152,-19.86019 12.57661,-27.26556 0.72188,-2.62681 1.36903,-21.00445 0.79255,-22.50673 -0.95956,-2.50058 -4.24438,0.0812 -8.67324,6.81705 -2.4233,3.68557 -4.84923,7.21534 -5.39096,7.84395 -0.54173,0.6286 -1.40495,2.34768 -1.91826,3.82017 -0.51331,1.47249 -1.3221,2.67726 -1.79728,2.67726 -0.47519,0 -0.614,0.40449 -0.30845,0.89887 0.30554,0.49437 0.10329,0.89886 -0.44944,0.89886 -0.55273,0 -0.77632,0.36994 -0.49688,0.82209 0.27945,0.45215 0.15085,0.95777 -0.28578,1.12358 -0.83599,0.31749 -7.49379,13.10982 -7.09142,13.62548 0.12856,0.16474 -0.52858,1.88586 -1.46029,3.82471 -0.93172,1.93885 -2.29327,4.9409 -3.02568,6.67121 -0.7324,1.73032 -1.91428,4.25837 -2.62639,5.61791 -0.71212,1.35953 -1.06032,2.47187 -0.77378,2.47187 0.28653,0 -0.14161,1.01123 -0.95143,2.24716 -0.80981,1.23594 -1.17411,2.24717 -0.80953,2.24717 0.36458,0 0.15934,0.60673 -0.45611,1.34829 -0.61544,0.74157 -0.76609,1.35449 -0.33477,1.36206 0.43131,0.008 0.25833,0.34734 -0.3844,0.75503 -0.64274,0.40769 -1.23443,1.61496 -1.31487,2.68283 -0.0804,1.06786 -0.50794,1.94157 -0.95,1.94157 -0.44206,0 -0.57093,0.60673 -0.28636,1.34829 0.28456,0.74157 0.12559,1.3483 -0.35326,1.3483 -0.47886,0 -0.87066,1.01122 -0.87066,2.24716 0,2.8701 1.26758,2.8329 5.79431,-0.17007 z"
     id="path4520"
     inkscape:connector-curvature="0" />
</svg>
