<?xml version="1.0" encoding="UTF-8" standalone="no"?>
<!-- Created with Inkscape (http://www.inkscape.org/) -->

<svg
   xmlns:dc="http://purl.org/dc/elements/1.1/"
   xmlns:cc="http://creativecommons.org/ns#"
   xmlns:rdf="http://www.w3.org/1999/02/22-rdf-syntax-ns#"
   xmlns:svg="http://www.w3.org/2000/svg"
   xmlns="http://www.w3.org/2000/svg"
   xmlns:sodipodi="http://sodipodi.sourceforge.net/DTD/sodipodi-0.dtd"
   xmlns:inkscape="http://www.inkscape.org/namespaces/inkscape"
   version="1.1"
   id="svg5096"
   width="300"
   height="300"
   viewBox="0 0 300 300"
   sodipodi:docname="yolked_logo_grey.svg"
   inkscape:version="0.92.3 (2405546, 2018-03-11)">
  <metadata
     id="metadata5102">
    <rdf:RDF>
      <cc:Work
         rdf:about="">
        <dc:format>image/svg+xml</dc:format>
        <dc:type
           rdf:resource="http://purl.org/dc/dcmitype/StillImage" />
        <dc:title />
      </cc:Work>
    </rdf:RDF>
  </metadata>
  <defs
     id="defs5100" />
  <sodipodi:namedview
     pagecolor="#ffffff"
     bordercolor="#666666"
     borderopacity="1"
     objecttolerance="10"
     gridtolerance="10"
     guidetolerance="10"
     inkscape:pageopacity="0"
     inkscape:pageshadow="2"
     inkscape:window-width="1920"
     inkscape:window-height="1017"
     id="namedview5098"
     showgrid="false"
     inkscape:zoom="1.5733333"
     inkscape:cx="24.201076"
     inkscape:cy="124.05694"
     inkscape:window-x="1912"
     inkscape:window-y="-8"
     inkscape:window-maximized="1"
     inkscape:current-layer="svg5096" />
  <g
     id="g5690"
     transform="matrix(0.84984884,0,0,0.94622733,-189.68333,-140.04794)"
     style="stroke-width:1.11514509">
    <path
       style="fill:#ececec;stroke-width:1.11514509"
       d="m 389.5,367.60016 c -26.10783,-5.03988 -46.98368,-24.62158 -53.528,-50.20964 -2.73096,-10.67793 -2.69084,-26.33669 0.0932,-36.38325 5.45366,-19.68017 18.69398,-35.98531 36.00229,-44.33596 14.97366,-7.22425 28.13171,-9.13612 43.09454,-6.26162 21.39331,4.10985 38.96226,17.56975 48.35554,37.04608 9.98591,20.70509 9.91586,41.50545 -0.21062,62.54423 -8.31588,17.27709 -25.82385,31.73309 -44.16992,36.4703 -8.80436,2.2734 -21.25444,2.74804 -29.63703,1.12986 z"
       id="path5698"
       inkscape:connector-curvature="0" />
    <path
       style="fill:#ffffff;stroke-width:1.11514509"
       d="m 392.53573,366.93391 c -14.32897,-2.19949 -26.83804,-8.41063 -37.02246,-18.3828 -13.15213,-12.87803 -19.49979,-27.37032 -20.29459,-46.33442 -0.57789,-13.78826 1.1058,-21.94702 7.06114,-34.21669 3.36832,-6.93967 5.78644,-10.15926 13.17292,-17.53893 14.40855,-14.39529 27.8603,-19.93561 48.04726,-19.78906 8.97771,0.0652 12.47076,0.55757 19,2.67834 25.27035,8.20805 42.65864,28.96586 46.54849,55.56869 4.26626,29.1771 -11.12055,58.53631 -37.69623,71.9273 -10.22999,5.1547 -27.37595,7.84369 -38.81653,6.08757 z"
       id="path5696"
       inkscape:connector-curvature="0" />
    <path
       style="fill:#b3b3b3;stroke-width:1.11514509"
       d="m 402.69598,331.74624 c -3.806,-2.36334 -7.67699,-7.14393 -7.68939,-9.49624 -0.008,-1.4699 3.56255,-5.25 4.95861,-5.25 0.53087,0 2.45354,1.30678 4.27262,2.90395 5.34374,4.69186 9.12817,4.54716 10.76471,-0.41163 1.87301,-5.67525 6.79208,-7.26161 9.53523,-3.07503 2.21852,3.38588 0.51458,9.1704 -3.98635,13.53288 -4.73864,4.59287 -12.15067,5.33844 -17.85543,1.79607 z m -29.12135,-15.66377 c -2.33448,-2.57957 -1.66605,-5.94189 1.67537,-8.42739 l 2.75,-2.04558 2.75,2.05123 c 3.39526,2.53252 3.89416,4.70721 1.80974,7.88844 -1.97615,3.01599 -6.49555,3.28423 -8.98511,0.5333 z m 56.9968,-9.6539 C 427.21393,303.07107 429.95344,296 434.61172,296 c 2.45839,0 5.63828,3.65599 5.63828,6.48244 0,4.87133 -6.21813,7.40657 -9.67857,3.94613 z"
       id="path5694"
       inkscape:connector-curvature="0" />
    <path
       style="fill:#b3b3b3;stroke-width:1.11514509"
       d="m 406.31524,331.89812 c -4.64651,-1.34444 -9.49504,-6.53925 -9.11905,-9.7703 0.43464,-3.73494 3.25812,-3.81412 7.36688,-0.20659 5.49689,4.82634 9.27302,4.10865 11.93772,-2.26888 1.34427,-3.21728 1.98037,-3.73119 4.28879,-3.46495 2.49069,0.28726 2.70335,0.65814 2.6232,4.57487 -0.0998,4.87799 -2.91913,8.64601 -8.13066,10.86661 -3.62416,1.54423 -4.47241,1.5697 -8.96688,0.26924 z m -31.26956,-16.34308 c -2.84426,-3.42712 1.07853,-9.22068 4.70432,-6.9478 3.56834,2.23687 2.28475,8.39276 -1.75,8.39276 -0.96531,0 -2.29475,-0.65023 -2.95432,-1.44496 z m 56.45064,-10.5591 C 427.81375,300.92674 433.916,295.316 437.8,299.2 c 1.66087,1.66087 1.50009,4.35705 -0.37143,6.22857 -2.10017,2.10017 -3.74891,1.97993 -5.93225,-0.43263 z"
       id="path5692"
       inkscape:connector-curvature="0" />
  </g>
  <path
     style="fill:#cccccc;stroke:none;stroke-width:0.99999988"
     d="m 137.36293,288.20803 c -9.36361,-1.8521 -20.28545,-7.0011 -25.22628,-11.89267 -6.96966,-6.90018 -10.80248,-12.95642 -16.287556,-25.73589 C 90.739398,238.67456 89.48026,236.4931 84.425826,230.7886 79.335765,225.04389 75.750975,222.40416 65.548935,216.88823 49.138742,208.01573 47.577717,207.13437 42.929634,204.117 22.475526,190.839 16.297321,183.69023 12.223124,168.58666 c -1.22647,-4.54668 -1.392628,-6.15252 -1.41209,-13.64712 -0.01845,-7.12462 0.168398,-9.24965 1.159245,-13.18047 1.675689,-6.64772 4.826452,-12.96311 10.049392,-20.14302 10.301959,-14.16196 15.163979,-22.161513 16.72816,-27.523058 0.435269,-1.49195 1.833305,-9.698285 3.10674,-18.236305 1.273452,-8.538011 2.789945,-17.237134 3.370006,-19.331366 2.786513,-10.0605 11.839888,-19.850278 22.936089,-24.801747 9.575002,-4.272667 23.520492,-4.413795 40.427964,-0.409142 13.02245,3.084462 19.30751,3.551918 25.43835,1.891998 6.48761,-1.756512 9.41891,-3.146986 16.34464,-7.753113 12.25244,-8.148785 21.38487,-12.294128 31.66166,-14.371694 7.28559,-1.4728757 25.42023,-1.5088477 30.57007,-0.0607 7.77884,2.187523 14.54469,8.012589 17.71463,15.251421 2.27793,5.201884 3.54541,12.155332 4.6135,25.309948 0.87968,10.834129 1.69077,14.35755 4.76994,20.721097 3.24549,6.707267 7.39284,12.396615 15.18756,20.834309 21.10755,22.848712 24.53516,27.408022 29.34302,39.031252 4.51197,10.90792 5.86357,19.24842 5.02567,31.01271 -0.44043,6.18381 -0.60723,6.86054 -3.13995,12.73979 -7.13643,16.5659 -14.71606,23.16084 -35.83025,31.17549 -14.39281,5.46331 -22.8,10.63308 -31.66164,19.46946 -4.38159,4.36909 -6.4725,6.87037 -17.49555,20.92929 -6.76243,8.62489 -16.06915,18.97753 -21.17319,23.55269 -5.23242,4.69024 -13.42057,10.60165 -18.47101,13.3351 -7.02239,3.80071 -16.58147,5.3162 -24.12315,3.82446 z m 29.25808,-81.96551 c 11.99814,-3.73856 23.14387,-12.33899 30.76646,-23.74052 3.31091,-4.9523 7.78961,-14.83497 9.48367,-20.92652 3.199,-11.50309 3.19781,-26.97737 -0.003,-38.46125 -3.20083,-11.48409 -8.08349,-20.08168 -16.30598,-28.71227 -8.02381,-8.422028 -15.35235,-13.093042 -24.69384,-15.739214 -6.74315,-1.91012 -20.22621,-1.911243 -26.89065,-0.0026 -11.09031,3.176802 -17.70755,7.508765 -26.57357,17.396421 -14.473353,16.141073 -20.059044,34.823783 -17.079896,57.127653 3.344303,25.03758 18.063216,44.65423 39.282536,52.35379 6.20218,2.2505 9.486,2.6726 18.87912,2.42669 6.91979,-0.18118 9.11019,-0.46843 13.13512,-1.72256 z"
     id="path5712"
     inkscape:connector-curvature="0" />
</svg>
