<?xml version="1.0" encoding="UTF-8" standalone="no"?>
<!-- Created with Inkscape (http://www.inkscape.org/) -->

<svg
   xmlns:dc="http://purl.org/dc/elements/1.1/"
   xmlns:cc="http://creativecommons.org/ns#"
   xmlns:rdf="http://www.w3.org/1999/02/22-rdf-syntax-ns#"
   xmlns:svg="http://www.w3.org/2000/svg"
   xmlns="http://www.w3.org/2000/svg"
   xmlns:sodipodi="http://sodipodi.sourceforge.net/DTD/sodipodi-0.dtd"
   xmlns:inkscape="http://www.inkscape.org/namespaces/inkscape"
   version="1.1"
   id="svg5096"
   width="800"
   height="600"
   viewBox="0 0 800 600"
   sodipodi:docname="yolked_logo.svg"
   inkscape:version="0.92.3 (2405546, 2018-03-11)">
  <metadata
     id="metadata5102">
    <rdf:RDF>
      <cc:Work
         rdf:about="">
        <dc:format>image/svg+xml</dc:format>
        <dc:type
           rdf:resource="http://purl.org/dc/dcmitype/StillImage" />
        <dc:title></dc:title>
      </cc:Work>
    </rdf:RDF>
  </metadata>
  <defs
     id="defs5100" />
  <sodipodi:namedview
     pagecolor="#ffffff"
     bordercolor="#666666"
     borderopacity="1"
     objecttolerance="10"
     gridtolerance="10"
     guidetolerance="10"
     inkscape:pageopacity="0"
     inkscape:pageshadow="2"
     inkscape:window-width="1920"
     inkscape:window-height="1001"
     id="namedview5098"
     showgrid="false"
     inkscape:zoom="1.5733333"
     inkscape:cx="409.4584"
     inkscape:cy="242.44252"
     inkscape:window-x="-9"
     inkscape:window-y="-9"
     inkscape:window-maximized="1"
     inkscape:current-layer="svg5096" />
  <g
     id="g5690"
     transform="translate(1.2711944,1.2711867)">
    <path
       style="fill:#fad45a"
       d="m 389.5,367.60016 c -26.10783,-5.03988 -46.98368,-24.62158 -53.528,-50.20964 -2.73096,-10.67793 -2.69084,-26.33669 0.0932,-36.38325 5.45366,-19.68017 18.69398,-35.98531 36.00229,-44.33596 14.97366,-7.22425 28.13171,-9.13612 43.09454,-6.26162 21.39331,4.10985 38.96226,17.56975 48.35554,37.04608 9.98591,20.70509 9.91586,41.50545 -0.21062,62.54423 -8.31588,17.27709 -25.82385,31.73309 -44.16992,36.4703 -8.80436,2.2734 -21.25444,2.74804 -29.63703,1.12986 z"
       id="path5698"
       inkscape:connector-curvature="0" />
    <path
       style="fill:#f9cb36"
       d="m 392.53573,366.93391 c -14.32897,-2.19949 -26.83804,-8.41063 -37.02246,-18.3828 -13.15213,-12.87803 -19.49979,-27.37032 -20.29459,-46.33442 -0.57789,-13.78826 1.1058,-21.94702 7.06114,-34.21669 3.36832,-6.93967 5.78644,-10.15926 13.17292,-17.53893 14.40855,-14.39529 27.8603,-19.93561 48.04726,-19.78906 8.97771,0.0652 12.47076,0.55757 19,2.67834 25.27035,8.20805 42.65864,28.96586 46.54849,55.56869 4.26626,29.1771 -11.12055,58.53631 -37.69623,71.9273 -10.22999,5.1547 -27.37595,7.84369 -38.81653,6.08757 z"
       id="path5696"
       inkscape:connector-curvature="0" />
    <path
       style="fill:#000000"
       d="m 402.69598,331.74624 c -3.806,-2.36334 -7.67699,-7.14393 -7.68939,-9.49624 -0.008,-1.4699 3.56255,-5.25 4.95861,-5.25 0.53087,0 2.45354,1.30678 4.27262,2.90395 5.34374,4.69186 9.12817,4.54716 10.76471,-0.41163 1.87301,-5.67525 6.79208,-7.26161 9.53523,-3.07503 2.21852,3.38588 0.51458,9.1704 -3.98635,13.53288 -4.73864,4.59287 -12.15067,5.33844 -17.85543,1.79607 z m -29.12135,-15.66377 c -2.33448,-2.57957 -1.66605,-5.94189 1.67537,-8.42739 l 2.75,-2.04558 2.75,2.05123 c 3.39526,2.53252 3.89416,4.70721 1.80974,7.88844 -1.97615,3.01599 -6.49555,3.28423 -8.98511,0.5333 z m 56.9968,-9.6539 C 427.21393,303.07107 429.95344,296 434.61172,296 c 2.45839,0 5.63828,3.65599 5.63828,6.48244 0,4.87133 -6.21813,7.40657 -9.67857,3.94613 z"
       id="path5694"
       inkscape:connector-curvature="0" />
    <path
       style="fill:#000000"
       d="m 406.31524,331.89812 c -4.64651,-1.34444 -9.49504,-6.53925 -9.11905,-9.7703 0.43464,-3.73494 3.25812,-3.81412 7.36688,-0.20659 5.49689,4.82634 9.27302,4.10865 11.93772,-2.26888 1.34427,-3.21728 1.98037,-3.73119 4.28879,-3.46495 2.49069,0.28726 2.70335,0.65814 2.6232,4.57487 -0.0998,4.87799 -2.91913,8.64601 -8.13066,10.86661 -3.62416,1.54423 -4.47241,1.5697 -8.96688,0.26924 z m -31.26956,-16.34308 c -2.84426,-3.42712 1.07853,-9.22068 4.70432,-6.9478 3.56834,2.23687 2.28475,8.39276 -1.75,8.39276 -0.96531,0 -2.29475,-0.65023 -2.95432,-1.44496 z m 56.45064,-10.5591 C 427.81375,300.92674 433.916,295.316 437.8,299.2 c 1.66087,1.66087 1.50009,4.35705 -0.37143,6.22857 -2.10017,2.10017 -3.74891,1.97993 -5.93225,-0.43263 z"
       id="path5692"
       inkscape:connector-curvature="0" />
  </g>
  <path
     style="fill:#f9f9f9;stroke:none;stroke-width:1"
     d="m 385.71083,458.04394 c -11.46617,-2.00952 -24.8405,-7.59619 -30.89077,-12.90356 -8.53467,-7.48672 -13.22815,-14.05774 -19.94488,-27.92352 -6.25706,-12.91684 -7.79894,-15.28374 -13.98833,-21.47313 -6.23302,-6.23303 -10.62277,-9.09714 -23.11565,-15.08194 -20.09506,-9.62666 -22.0066,-10.58296 -27.6984,-13.8568 -25.04703,-14.40668 -32.61253,-22.16311 -37.60158,-38.55052 -1.50187,-4.93316 -1.70534,-6.6755 -1.72917,-14.80716 -0.0226,-7.73023 0.20621,-10.03589 1.41955,-14.30084 2.05196,-7.2128 5.91022,-14.065 12.30596,-21.85523 12.61523,-15.36576 18.569,-24.04528 20.48442,-29.86257 0.53301,-1.61877 2.24497,-10.52267 3.80436,-19.78644 1.55939,-9.26377 3.41641,-18.70233 4.12672,-20.97458 3.41222,-10.91567 14.4985,-21.5376 28.08633,-26.90996 11.72505,-4.63585 28.80196,-4.78898 49.50595,-0.44392 15.94662,3.34665 23.64297,3.85384 31.15047,2.05282 7.94439,-1.90582 11.5339,-3.41448 20.01479,-8.41214 15.00369,-8.84145 26.18678,-13.33916 38.77119,-15.59333 8.92156,-1.59807 31.12829,-1.6371 37.43451,-0.0658 9.52555,2.37346 17.81067,8.69368 21.6924,16.54782 2.78944,5.64406 4.34152,13.18857 5.64946,27.46137 1.07721,11.75504 2.07042,15.57796 5.84101,22.48243 3.97427,7.27741 9.05288,13.45035 18.59789,22.60528 25.84719,24.7909 30.04448,29.73778 35.93192,42.349 5.52512,11.83512 7.18022,20.8846 6.15417,33.64886 -0.53934,6.70946 -0.74359,7.44371 -3.84502,13.82272 -8.7389,17.97403 -18.0205,25.12957 -43.87584,33.82548 -17.62468,5.92771 -27.91967,11.53691 -38.77118,21.1244 -5.36546,4.74047 -7.92588,7.45437 -21.42412,22.70835 -8.28092,9.35804 -19.67744,20.59068 -25.92758,25.55473 -6.40735,5.08892 -16.43412,11.50281 -22.61864,14.46861 -8.59922,4.12378 -20.30479,5.76809 -29.53994,4.14956 z m 35.82792,-88.93278 c 14.69229,-4.05632 28.34076,-13.38782 37.67498,-25.7585 4.05437,-5.37327 9.53876,-16.09597 11.61322,-22.70533 3.91732,-12.48089 3.91586,-29.27053 -0.004,-41.73055 -3.91957,-12.46026 -9.89862,-21.78868 -19.96746,-31.15288 -9.82552,-9.13792 -18.79967,-14.20599 -30.23877,-17.07709 -8.2573,-2.07249 -24.76795,-2.07371 -32.92887,-0.003 -13.58062,3.44684 -21.68373,8.14703 -32.5406,18.87516 -17.72329,17.51309 -24.56325,37.78386 -20.91513,61.98363 4.09524,27.16585 22.11926,48.44995 48.10333,56.804 7.59485,2.44181 11.61604,2.89978 23.11836,2.63296 8.47363,-0.19657 11.15588,-0.50824 16.08459,-1.86898 z"
     id="path5712"
     inkscape:connector-curvature="0" />
</svg>
