<?xml version="1.0" encoding="UTF-8" standalone="no"?>
<!-- Created with Inkscape (http://www.inkscape.org/) -->

<svg
   xmlns:dc="http://purl.org/dc/elements/1.1/"
   xmlns:cc="http://creativecommons.org/ns#"
   xmlns:rdf="http://www.w3.org/1999/02/22-rdf-syntax-ns#"
   xmlns:svg="http://www.w3.org/2000/svg"
   xmlns="http://www.w3.org/2000/svg"
   xmlns:sodipodi="http://sodipodi.sourceforge.net/DTD/sodipodi-0.dtd"
   xmlns:inkscape="http://www.inkscape.org/namespaces/inkscape"
   version="1.1"
   id="svg821"
   width="800"
   height="600"
   viewBox="0 0 800 600"
   sodipodi:docname="yolked_text.svg"
   inkscape:version="0.92.3 (2405546, 2018-03-11)">
  <metadata
     id="metadata827">
    <rdf:RDF>
      <cc:Work
         rdf:about="">
        <dc:format>image/svg+xml</dc:format>
        <dc:type
           rdf:resource="http://purl.org/dc/dcmitype/StillImage" />
        <dc:title />
      </cc:Work>
    </rdf:RDF>
  </metadata>
  <defs
     id="defs825" />
  <sodipodi:namedview
     pagecolor="#ffffff"
     bordercolor="#666666"
     borderopacity="1"
     objecttolerance="10"
     gridtolerance="10"
     guidetolerance="10"
     inkscape:pageopacity="0"
     inkscape:pageshadow="2"
     inkscape:window-width="1920"
     inkscape:window-height="1001"
     id="namedview823"
     showgrid="false"
     inkscape:zoom="1.1125147"
     inkscape:cx="167.67942"
     inkscape:cy="314.06634"
     inkscape:window-x="-9"
     inkscape:window-y="-9"
     inkscape:window-maximized="1"
     inkscape:current-layer="svg821" />
  <g
     id="g1376"
     transform="translate(1.9527296,-0.15876036)" />
  <path
     style="fill:#ffffff;stroke:none;stroke-width:0.99999988"
     d="m 58.216049,332.91982 c -14.576803,-2.77435 -23.65884,-10.38847 -23.624575,-19.80618 0.02965,-8.15243 4.110149,-16.06371 15.120697,-29.31616 6.568498,-7.90594 11.176524,-14.85375 12.98004,-19.57083 2.809412,-7.34801 3.519344,-11.54129 1.953987,-11.54129 -0.463213,0 -4.16975,2.45683 -8.236753,5.4596 -17.04102,12.58181 -32.420837,13.3207 -44.138875,2.12052 -7.7908261,-7.44652 -9.5621521,-12.45096 -9.5940195,-27.10542 -0.026889,-12.4012 0.4068079,-14.64741 5.8805532,-30.45217 9.3766803,-27.07404 20.7675013,-54.36926 23.5331373,-56.39119 1.397246,-1.02153 4.518171,-1.85731 6.935402,-1.85731 5.546669,0 16.24154,4.00535 18.908655,7.0815 3.546832,4.09077 2.308661,12.56937 -4.261234,29.17979 -15.031474,38.0035 -18.911453,51.76157 -16.650161,59.04007 1.407002,4.52872 6.557587,3.80404 12.443242,-1.75077 12.243957,-11.55566 32.919958,-44.9074 47.237319,-76.19686 3.354456,-7.33089 6.870526,-13.72471 7.813476,-14.2085 3.21202,-1.64791 12.72303,-0.92533 17.26469,1.31167 2.4757,1.21941 5.77036,3.85344 7.32148,5.85342 4.13648,5.33352 2.84721,10.8687 -9.29317,39.89761 -14.85849,35.52823 -14.52789,34.58769 -12.15716,34.58769 4.37694,0 30.36214,-28.93017 44.09484,-49.0922 9.51719,-13.97293 15.34944,-20.61334 23.02441,-26.21483 9.87521,-7.20732 25.91284,-11.40379 36.32898,-9.50598 5.36871,0.97817 14.59724,7.10699 14.59724,9.69427 0,0.78594 1.52112,2.23416 3.38026,3.21823 1.85914,0.98408 5.42715,4.36615 7.92896,7.5157 4.54045,5.71606 4.55033,5.75969 5.44002,23.99463 0.5543,11.36056 1.49248,18.7538 2.48113,19.55249 2.40047,1.93921 16.01514,-4.1361 17.87535,-7.97658 0.79496,-1.64124 3.3528,-9.36106 5.68406,-17.15512 11.60023,-38.78283 32.24247,-74.8461 51.95727,-90.772622 8.57245,-6.92522 14.33862,-8.70634 26.20911,-8.09573 11.23746,0.57806 18.84991,4.5881 23.96383,12.62352 3.3239,5.222802 3.54157,6.539492 3.41216,20.641042 -0.1509,16.44274 -2.94419,26.59466 -11.52321,41.87962 -13.75059,24.49894 -39.4309,46.19103 -56.8998,48.06307 -8.07754,0.86564 -8.76301,2.12279 -7.79578,14.29797 0.82317,10.36214 5.10856,17.94736 11.53924,20.42468 4.22933,1.62927 5.08908,1.6109 11.21999,-0.23976 5.03724,-1.52051 10.13978,-4.86165 21.142,-13.84377 28.63255,-23.37534 42.98663,-43.68042 62.00362,-87.7093 6.89129,-15.95498 14.89691,-34.02982 17.79029,-40.16636 l 5.26066,-11.157312 6.87749,-0.32841 c 7.74463,-0.36981 14.71872,1.59155 21.11206,5.93748 5.52516,3.75577 7.36775,9.142292 5.66394,16.557722 -1.47337,6.41253 -11.44026,23.70601 -21.93645,38.06177 -6.56121,8.97385 -9.73114,15.08333 -7.82602,15.08333 0.46967,0 5.46122,-3.45104 11.09232,-7.66899 11.82241,-8.85552 19.73788,-12.31333 30.18016,-13.18398 14.97164,-1.24829 26.47525,6.49746 29.93398,20.15549 2.9998,11.84583 -4.37637,29.09985 -17.46981,40.86453 -7.56985,6.80167 -23.35597,16.06147 -30.58773,17.94211 -9.75827,2.53769 -10.86026,5.46128 -4.87106,12.92313 9.79626,12.20499 22.61985,10.69448 41.90491,-4.93604 10.20026,-8.26732 11.35101,-9.75561 26.94982,-34.85576 17.53622,-28.21761 21.40729,-32.85069 34.39483,-41.16538 15.51313,-9.93161 25.67147,-12.40428 42.15156,-10.26023 12.01893,1.56367 18.21902,5.09026 23.09038,13.1337 12.35855,20.40618 -2.37015,50.44236 -30.25515,61.69912 -7.74841,3.12792 -9.4259,3.37035 -23.32069,3.37035 h -14.97171 v 3.12877 c 0,3.76841 6.39235,12.23473 11.89725,15.75726 3.49953,2.23931 4.99077,2.46683 12.22698,1.86554 13.24263,-1.10042 24.25467,-5.99008 37.34784,-16.58356 12.87305,-10.41537 23.38812,-22.7361 28.90454,-33.868 11.01438,-22.2266 30.40418,-40.50813 49.11646,-46.30905 12.17148,-3.77323 23.67396,-3.97624 35.48684,-0.62632 7.61853,2.16047 10.25834,2.50409 11.31744,1.47316 0.75972,-0.73951 5.75458,-12.87456 11.09971,-26.96682 5.34511,-14.09225 10.68809,-27.314472 11.87327,-29.382732 2.12152,-3.70229 2.27013,-3.75275 9.60505,-3.26137 9.72225,0.65132 16.33952,4.29084 20.77243,11.4249 8.73153,14.052002 0.95621,36.168382 -23.55606,67.003772 -8.65236,10.88431 -11.36488,15.41379 -14.5009,24.21433 -5.20484,14.6061 -8.23411,29.51383 -8.23411,40.5218 0,7.79283 0.41348,9.41647 2.85199,11.19925 2.79255,2.04161 2.97945,2.03045 8.96662,-0.53542 7.19331,-3.08277 13.2909,-9.98107 21.48868,-24.31052 3.0859,-5.39405 6.08796,-10.56048 6.67127,-11.48097 2.59448,-4.09428 10.47589,-1.62475 15.32699,4.80248 5.13303,6.80077 2.5342,16.66287 -7.7312,29.33872 -7.34601,9.07096 -25.21467,23.38553 -32.54645,26.07295 -7.26987,2.66474 -19.9381,2.9703 -26.82127,0.64697 -6.25841,-2.11247 -13.87462,-8.87469 -16.7109,-14.83717 -1.2406,-2.60803 -2.94808,-4.73996 -3.7944,-4.73761 -0.84632,0.002 -4.05933,2.63825 -7.13998,5.85758 -3.0807,3.21934 -9.19058,7.84754 -13.57755,10.2849 -7.02615,3.90364 -9.10747,4.48317 -17.47213,4.865 -7.709,0.35191 -10.68019,-0.0297 -15.78995,-2.02799 -7.50559,-2.93522 -16.36288,-12.24716 -19.33213,-20.32445 -1.08961,-2.96409 -2.38595,-5.91842 -2.88074,-6.56518 -0.51923,-0.67868 -5.07407,2.07572 -10.77158,6.51375 -10.73313,8.36048 -23.65527,15.851 -33.80694,19.59669 -5.46846,2.0177 -9.07604,2.38407 -23.71365,2.40812 -16.55026,0.0272 -17.56682,-0.10712 -24.58883,-3.24975 -9.08717,-4.0668 -15.51531,-9.72033 -20.96086,-18.43506 l -4.19714,-6.71681 -13.45265,10.92051 c -17.63066,14.31213 -24.07867,17.09878 -41.24282,17.82406 -11.77226,0.49744 -13.47195,0.29995 -20.15551,-2.3419 -4.01451,-1.58684 -9.59847,-4.79232 -12.40886,-7.12331 -5.56576,-4.61639 -14.91648,-18.16502 -14.91648,-21.61307 0,-3.17153 -2.61078,-2.61283 -4.28915,0.91787 -0.80222,1.68754 -2.72719,8.15857 -4.27772,14.38002 -3.2058,12.86316 -3.52837,13.47186 -7.316,13.8057 -7.29341,0.64285 -11.82796,-0.21769 -15.96471,-3.02966 -6.07144,-4.12712 -8.08157,-8.62647 -9.1166,-20.40612 -0.48567,-5.52733 -1.27013,-10.04967 -1.74326,-10.04967 -0.47313,0 -2.05652,1.79452 -3.51865,3.98783 -3.59438,5.39185 -18.17132,17.12087 -29.1271,23.43653 -10.84307,6.25066 -18.59295,8.27906 -31.63189,8.27906 -20.3825,0 -34.03019,-9.95024 -41.38427,-30.17242 -3.46362,-9.5242 -3.08269,-9.32382 -16.06263,-8.44933 -6.26781,0.42227 -11.79551,0.96724 -12.28382,1.21102 -0.4883,0.2438 -4.25892,5.04404 -8.37915,10.66721 -9.14384,12.4792 -20.12612,21.11437 -31.05429,24.41744 -9.94056,3.00458 -24.05886,3.09486 -31.76173,0.2031 -10.81599,-4.06046 -20.90461,-15.55675 -24.55945,-27.98624 -0.90471,-3.07682 -2.04407,-5.5942 -2.53191,-5.5942 -2.28207,0 -46.914486,40.53218 -50.082996,45.48204 -1.895308,2.96086 -14.670084,47.18664 -14.670084,50.7873 0,2.22965 -4.567494,5.28268 -7.704905,5.15018 -1.459413,-0.0617 -4.993784,-0.55751 -7.854146,-1.1019 z M 192.42545,240.88459 c 5.62318,-3.82241 12.556,-15.69944 12.556,-21.51045 0,-2.49757 -1.31374,-7.19554 -2.91945,-10.43993 -4.17653,-8.4388 -5.05218,-23.12221 -1.98661,-33.31153 1.30945,-4.35236 2.05119,-8.17968 1.64827,-8.50517 -1.25179,-1.01125 -7.90962,5.52277 -11.58717,11.3717 -7.41053,11.78599 -14.15853,32.83406 -14.15853,44.16264 0,7.23528 2.905,15.74579 6.31507,18.5006 4.06426,3.28327 4.94242,3.26007 10.13242,-0.26786 z m 491.72029,-0.0283 c 5.38823,-3.66269 26.95107,-38.65484 33.86424,-54.95483 4.31345,-10.17033 4.6914,-11.90874 3.15347,-14.5045 -2.11986,-3.57798 -9.61906,-5.83146 -15.14531,-4.5511 -16.30371,3.77737 -33.03403,29.81152 -35.16193,54.71566 -0.96979,11.35009 0.10877,17.06071 3.78294,20.02884 3.48241,2.81327 4.3913,2.74309 9.50659,-0.73407 z m -230.64223,-46.8664 c 9.62885,-7.20165 15.22206,-15.22275 16.25547,-23.31171 0.64037,-5.01235 0.37385,-6.21291 -1.50888,-6.79656 -3.72105,-1.15352 -10.36044,1.76821 -17.69304,7.78601 -11.19299,9.18594 -30.06738,33.75061 -28.00439,36.44718 1.3877,1.81389 22.55723,-7.84716 30.95084,-14.12492 z m 113.66501,8.20864 c 12.43719,-4.21475 21.54085,-15.47123 22.80548,-28.19843 0.8595,-8.65005 -0.92165,-11.68894 -6.85111,-11.68894 -3.31729,0 -5.6505,1.12889 -9.96454,4.82125 -10.28884,8.80617 -21.51588,27.26124 -21.51588,35.36795 0,3.08234 0.2557,3.23006 4.48864,2.59299 2.46876,-0.37156 7.43559,-1.67423 11.03741,-2.89482 z M 315.0951,178.21028 c 19.8053,-18.67711 30.39868,-38.94841 31.77671,-60.80738 0.65725,-10.42548 0.47191,-11.99412 -1.41707,-11.99412 -6.02742,0 -21.5558,26.97501 -34.66519,60.21835 -3.50211,8.88081 -6.36749,16.78857 -6.36749,17.57278 0,3.0853 4.18498,1.12883 10.67304,-4.98963 z"
     id="path1407"
     inkscape:connector-curvature="0" />
  <path
     style="fill:#a0a0a0;stroke:none;stroke-width:0.99999988"
     d="m 56.511116,332.57309 c -9.516258,-2.4313 -14.385921,-5.04012 -18.279083,-9.79265 -3.100889,-3.78538 -3.733027,-5.73886 -3.581388,-11.06753 0.22745,-7.99318 4.017988,-14.98329 15.587491,-28.74489 4.692105,-5.58111 9.678759,-12.7951 11.081444,-16.03107 2.879938,-6.64393 4.861613,-14.25159 3.712315,-14.25159 -0.42013,0 -4.292949,2.49479 -8.606256,5.54399 -15.418997,10.90012 -27.81284,12.88492 -38.672903,6.19322 C 0.4317163,253.74982 -2.3732854,234.18403 8.7921444,201.91958 17.828178,175.80834 29.359469,148.31314 32.121002,146.29421 c 5.231498,-3.8247 21.173157,-0.40823 26.028607,5.5782 3.45077,4.25453 1.554924,14.36219 -6.457268,34.42692 -14.098131,35.30556 -18.093333,51.90492 -13.270903,55.13814 3.703158,2.48278 8.186865,-0.0471 16.056283,-9.05956 9.437679,-10.80851 30.890636,-46.35358 40.786611,-67.57866 8.745108,-18.75669 9.008098,-18.98861 20.163528,-17.77986 10.24167,1.10973 17.23974,8.86394 15.66341,17.35581 -1.10686,5.96274 -7.23886,21.98557 -17.14387,44.79663 -10.31496,23.75515 -9.58052,25.24588 5.08457,10.32051 12.34861,-12.56775 23.85162,-26.5991 34.96241,-42.64709 15.56553,-22.48225 31.11618,-32.45827 51.11217,-32.7894 8.58383,-0.14215 15.75913,2.84961 19.67358,8.20292 1.15851,1.58432 4.25512,4.72114 6.8814,6.97072 8.13324,6.96665 10.60045,12.46328 10.68107,23.79598 0.0807,11.3402 1.67039,24.57779 3.0892,25.72396 1.34841,1.08932 11.32927,-2.73438 14.69728,-5.63057 1.81612,-1.5617 4.51552,-7.9519 7.59901,-17.98881 13.80572,-44.93845 38.02781,-84.99885 58.58254,-96.888422 5.56769,-3.22055 6.84317,-3.47389 17.49029,-3.47389 10.53765,0 11.97222,0.27684 17.3979,3.35741 3.58566,2.03585 7.30206,5.53944 9.44153,8.90088 3.29839,5.182342 3.51925,6.526412 3.39005,20.630832 -0.16243,17.73162 -3.36867,28.36026 -13.6944,45.39686 -14.55302,24.01126 -40.70858,44.94641 -56.21062,44.99148 -4.79078,0.0139 -6.6089,2.74411 -6.6089,9.92422 0,10.28922 2.61972,17.0053 8.48171,21.7442 4.6774,3.78126 5.90701,4.23261 9.82659,3.60702 14.40223,-2.29871 42.99525,-26.91903 61.80047,-53.21393 8.90814,-12.45607 15.82562,-26.14983 32.64052,-64.61476 6.57232,-15.03448 13.08098,-29.469272 14.46372,-32.077282 2.48533,-4.68768 2.59404,-4.74187 9.5131,-4.74187 12.50617,0 23.70121,5.75414 26.28679,13.511162 2.66,7.98036 -4.2799,22.41673 -25.01035,52.02622 -3.11028,4.44246 -5.42449,8.63595 -5.14271,9.31887 0.2818,0.68293 5.31463,-2.2821 11.18412,-6.58892 12.09176,-8.87255 19.69342,-12.26266 29.62798,-13.21318 12.33495,-1.18018 21.61986,2.82914 27.14366,11.7209 6.59759,10.62029 5.78292,21.6224 -2.62689,35.47591 -8.09004,13.32678 -24.91822,26.07163 -41.99446,31.80455 -10.55339,3.54305 -10.70498,9.02877 -0.46664,16.8891 9.4554,7.25924 20.901,4.43388 37.77791,-9.3255 10.0054,-8.1572 11.31728,-9.86258 27.46992,-35.70981 16.03151,-25.6534 17.50437,-27.5752 26.82927,-35.00699 16.83491,-13.41712 31.64059,-17.94658 49.76778,-15.22535 11.48675,1.72438 17.60367,5.32282 22.33882,13.14138 12.33413,20.36588 -2.30702,50.41686 -30.0128,61.60128 -8.04573,3.24795 -9.55356,3.46819 -23.74374,3.46819 h -15.15243 l 0.76037,3.78534 c 1.03827,5.16866 7.05215,12.56041 12.42531,15.27215 6.00578,3.03098 16.66296,2.06919 28.60932,-2.5819 17.174,-6.68639 39.37961,-27.83571 49.12762,-46.79068 5.68796,-11.06018 14.8321,-22.97549 23.93695,-31.19116 16.70752,-15.07583 39.54315,-21.05035 59.16426,-15.47923 4.32248,1.2273 8.93263,2.23146 10.24478,2.23146 2.3607,0 8.71609,-14.10212 19.86165,-44.0714 2.05394,-5.522882 4.64472,-11.480902 5.75727,-13.240062 1.9178,-3.03243 2.4063,-3.17277 9.41111,-2.7035 9.65622,0.6469 16.28862,4.30431 20.71059,11.42076 8.74617,14.075582 1.34371,35.063742 -23.91796,67.814442 -9.83431,12.74977 -11.38481,15.54058 -15.18687,27.33544 -7.77586,24.12244 -9.57029,43.0084 -4.47727,47.12275 6.5069,5.25659 18.03836,-3.49129 29.13761,-22.1041 3.89728,-6.53548 7.55992,-12.6358 8.13921,-13.55629 2.57848,-4.09701 10.46982,-1.62321 15.31976,4.80248 7.45729,9.88021 -1.30399,26.4153 -23.60939,44.5578 -12.68354,10.31638 -19.30384,13.06225 -31.57483,13.0962 -6.97052,0.0193 -10.09956,-0.56426 -14.69734,-2.74098 -5.80846,-2.7499 -13.81798,-11.06228 -15.3211,-15.9004 -1.13016,-3.63757 -3.95328,-3.12426 -7.36844,1.33975 -3.9072,5.10722 -14.52926,12.65072 -21.43204,15.22047 -7.67996,2.85909 -20.2361,2.76277 -27.84693,-0.2136 -8.69901,-3.40195 -17.97867,-13.87608 -20.43344,-23.06363 -0.53286,-1.99437 -1.62415,-3.62613 -2.42507,-3.62613 -0.80093,0 -5.87993,3.38903 -11.2867,7.53119 -10.70186,8.19874 -22.04799,14.67925 -32.2866,18.44095 -5.55902,2.04241 -9.13922,2.40958 -23.80699,2.44148 -16.09335,0.035 -17.73819,-0.16465 -24.25723,-2.94406 -8.68347,-3.70221 -15.82917,-9.9885 -21.29246,-18.73157 l -4.19714,-6.71681 -13.45265,11.02314 c -17.49166,14.33273 -23.79464,17.00247 -41.83043,17.71807 -15.13631,0.60056 -20.38166,-0.88372 -30.95983,-8.76071 -5.11163,-3.80636 -13.75154,-15.63434 -16.49591,-22.5828 -1.83836,-4.65454 -3.91598,-0.0195 -9.24348,20.62161 -1.97011,7.63302 -2.52902,8.43786 -6.07689,8.75057 -7.29341,0.64285 -11.82796,-0.21769 -15.96471,-3.02966 -5.98548,-4.0687 -8.00827,-8.47562 -9.08513,-19.79334 -0.49962,-5.2507 -1.29785,-9.54672 -1.77389,-9.54672 -0.47602,0 -3.59973,3.0332 -6.94155,6.74045 -7.31798,8.11817 -24.16601,19.91024 -34.45617,24.11616 -10.73038,4.38586 -28.2516,5.0644 -38.53067,1.49215 -11.5389,-4.01006 -19.97211,-13.12256 -25.8071,-27.88584 -3.63441,-9.19551 -4.10793,-9.42016 -17.39054,-8.25064 l -11.33908,0.9984 -7.47113,10.04158 c -13.9599,18.76285 -26.36915,26.25178 -44.93853,27.12018 -14.37606,0.67231 -20.88233,-1.36059 -29.91908,-9.34829 -6.46114,-5.71108 -11.57788,-14.00268 -13.54549,-21.95027 -0.42487,-1.71616 -1.27976,-3.37358 -1.89974,-3.68311 -1.01968,-0.50911 -32.44616,26.86611 -44.620098,38.86802 -6.325328,6.23594 -7.429729,8.93405 -14.710202,35.93737 -3.308995,12.27305 -6.924123,23.19328 -8.033627,24.26717 -2.337117,2.26211 -6.912339,2.38397 -14.709787,0.39183 z M 191.83826,241.34307 c 4.68254,-2.97554 13.14319,-16.90876 13.14319,-21.64458 0,-1.91561 -1.30238,-6.44849 -2.89423,-10.07306 -4.04827,-9.2179 -5.00946,-24.59418 -2.10893,-33.73673 1.23252,-3.88489 2.24094,-7.6189 2.24094,-8.2978 0,-2.90968 -8.88378,5.967 -13.18006,13.16952 -11.52349,19.31861 -15.95967,46.69615 -9.24239,57.03858 2.6696,4.11035 4.51138,5.57407 7.38914,5.87243 0.46728,0.0484 2.56083,-0.99931 4.65234,-2.32836 z m 493.27393,-1.57618 c 5.39751,-4.62331 24.22045,-35.08677 31.45562,-50.90844 6.26885,-13.70847 6.45586,-18.05183 0.8776,-20.38218 -2.24113,-0.93623 -5.69027,-1.70225 -7.66474,-1.70225 -16.78643,0 -36.45367,27.70881 -38.88471,54.78388 -1.02222,11.38478 -0.0587,16.48324 3.73714,19.77468 3.77947,3.27725 5.04614,3.08799 10.47909,-1.56569 z M 431.88538,205.6676 c 22.54732,-9.26172 36.37335,-22.21568 37.96138,-35.567 0.69999,-5.88498 -0.66638,-7.27785 -6.06552,-6.18313 -9.21648,1.8687 -31.95634,24.71766 -39.91629,40.10781 -1.87408,3.62342 -1.86796,4.03082 0.0605,4.03082 1.17988,0 4.76186,-1.07483 7.95998,-2.3885 z m 136.06152,-3.8487 c 12.52411,-5.04178 20.62071,-15.47372 21.94981,-28.28092 0.86208,-8.307 -1.03111,-11.22687 -7.27923,-11.22687 -7.07381,0 -22.26891,16.71192 -28.11936,30.92634 -4.09635,9.95258 -3.87033,11.47146 1.70709,11.47146 2.50952,0 7.79327,-1.30051 11.74169,-2.89001 z M 313.7004,179.32601 c 19.85803,-17.31868 33.53637,-44.26235 33.53637,-66.06007 0,-8.94311 -1.89743,-10.1918 -6.88633,-4.53182 -4.27635,4.85158 -14.16385,22.18151 -20.70115,36.28313 -5.42522,11.70275 -15.22723,36.57214 -15.22723,38.63413 0,2.29776 3.61807,0.61109 9.27834,-4.32537 z"
     id="path1409"
     inkscape:connector-curvature="0" />
  <path
     style="fill:#a0a0a0;stroke:none;stroke-width:0.99999988"
     d="M 51.806965,330.47338 C 37.64304,325.77613 32.427399,316.43031 36.973472,303.89353 c 1.200833,-3.31156 6.887325,-12.04435 12.636659,-19.4062 6.0262,-7.71636 11.602093,-16.38976 13.16579,-20.47963 2.698014,-7.05667 3.424663,-11.32234 1.928757,-11.32234 -0.431039,0 -4.262433,2.28924 -8.514187,5.08718 -18.087587,11.90284 -28.844027,12.85559 -41.206557,3.64988 C 5.3142256,254.22191 2.8933682,247.53174 3.7477786,230.37073 4.3378775,218.51865 5.2853699,213.9944 10.056743,200.24598 c 7.184133,-20.70062 18.6785,-48.44324 21.525341,-51.95319 3.662224,-4.51528 16.719551,-3.41461 23.89319,2.01407 5.96775,4.51612 4.382649,13.54179 -7.986594,45.47619 -7.314937,18.88543 -10.982523,31.77388 -10.994125,38.63507 -0.01812,10.72852 6.657693,10.66109 16.931559,-0.17098 6.716633,-7.08158 33.008707,-50.10191 42.474152,-69.49822 8.023914,-16.44237 10.487934,-18.80541 18.216454,-17.46998 11.84081,2.04601 17.16156,7.85085 15.94014,17.39043 -0.42323,3.30534 -5.8017,18.2284 -11.95219,33.16234 -14.43827,35.05747 -14.5111,37.31335 -0.77124,23.8921 10.19862,-9.96213 24.1199,-26.63079 36.57444,-43.79247 16.08038,-22.15786 30.13113,-31.8431 48.10636,-33.15983 9.8957,-0.72489 16.67281,1.54844 21.98909,7.37608 2.02047,2.21484 5.77482,5.96523 8.34296,8.3342 7.2689,6.70516 8.52855,10.43219 9.94477,29.42436 0.71486,9.58674 1.87799,17.89755 2.58473,18.46848 1.83064,1.47887 10.20655,-0.97165 13.59366,-3.97703 4.15293,-3.68493 5.27228,-5.86397 9.29676,-18.09827 15.85902,-48.21079 38.55353,-85.67706 59.22475,-97.773872 4.96132,-2.90336 6.5173,-3.19985 16.79302,-3.19985 10.44065,0 11.78063,0.2666 17.15846,3.4137 9.31324,5.4501 12.51658,12.309612 12.47394,26.711052 -0.019,6.44336 -0.86968,15.49569 -1.89024,20.11633 -4.57035,20.69279 -21.64684,45.19015 -42.23436,60.58803 -9.11209,6.81513 -15.75035,10.01894 -23.48857,11.33619 -2.65867,0.45258 -5.6108,1.32845 -6.56033,1.94637 -2.14867,1.39831 -2.30893,15.28883 -0.24568,21.29136 1.93621,5.63285 10.23523,13.03088 14.61788,13.03088 14.96113,0 51.28139,-31.93844 69.15995,-60.81624 7.02265,-11.34314 12.56212,-22.74122 29.54808,-60.79853 7.53195,-16.87544 14.75567,-31.323802 16.05274,-32.107482 4.96097,-2.99738 20.35969,0.61138 27.19222,6.37264 8.60778,7.258152 6.28431,15.659932 -12.5959,45.547362 -7.07752,11.20371 -12.86821,20.61768 -12.86821,20.91996 0,1.66471 3.7124,-0.17414 12.71839,-6.29978 13.26609,-9.0232 21.45846,-12.09313 32.30904,-12.10716 6.4942,-0.009 9.49688,0.57114 13.08776,2.52605 27.21385,14.81543 11.3083,55.1068 -28.78082,72.90657 -11.76517,5.22377 -14.14205,6.88199 -14.14205,9.86612 0,2.98143 5.5837,9.22525 10.6755,11.93758 8.32076,4.43238 18.09662,1.76526 32.26845,-8.80372 10.96023,-8.17386 15.20553,-13.52701 32.99364,-41.60365 13.35938,-21.08633 15.27981,-23.50292 24.86017,-31.28276 6.68178,-5.42605 13.336,-9.60168 18.66907,-11.71519 7.41758,-2.9396 9.66286,-3.28254 21.40736,-3.26977 10.94271,0.0124 14.09472,0.43224 18.98884,2.53243 11.14855,4.78408 16.16215,14.39214 15.28082,29.28402 -0.50804,8.58438 -1.23312,10.87618 -5.80542,18.34992 -6.29708,10.293 -16.73555,19.1438 -27.679,23.46911 -6.68408,2.64183 -9.98919,3.15435 -23.4321,3.63359 l -15.65043,0.55794 0.975,3.47718 c 1.43278,5.10989 4.74171,9.73541 9.67083,13.51874 3.89268,2.98784 5.27752,3.3441 12.89864,3.3183 13.1443,-0.0445 24.69381,-4.92232 38.93581,-16.44413 12.85878,-10.40279 21.16654,-20.19189 30.36931,-35.78437 12.73748,-21.58144 28.15813,-36.37297 44.48248,-42.66776 10.32617,-3.98185 27.19423,-5.01676 37.14125,-2.27873 3.61423,0.99484 7.69101,1.80883 9.05948,1.80883 3.6789,0 6.61494,-5.52051 17.58296,-33.06061 5.40871,-13.58094 10.67302,-25.255142 11.69849,-25.942662 2.56253,-1.71805 15.1087,0.27597 20.21395,3.21268 6.17693,3.55321 10.24724,11.547722 10.222,20.077152 -0.0388,13.14043 -7.66132,28.69658 -26.46261,54.00581 -10.50577,14.14227 -13.1054,19.26462 -17.63298,34.74419 -7.97013,27.24945 -6.28005,44.62286 4.11401,42.29084 5.78074,-1.29697 15.6432,-11.50043 24.15949,-24.99476 9.72423,-15.40844 11.7534,-16.40712 19.27517,-9.48644 8.37723,7.70776 5.38562,19.73899 -8.62701,34.69485 -8.21805,8.77123 -22.38543,19.47741 -29.26332,22.11403 -7.81564,2.9961 -22.303,2.8159 -28.65696,-0.35649 -5.39943,-2.69581 -10.7205,-7.88839 -14.30333,-13.95792 -1.31179,-2.2223 -2.96153,-4.04055 -3.66607,-4.04055 -0.70454,0 -5.26313,3.47463 -10.13023,7.7214 -4.98495,4.34961 -11.59578,8.79548 -15.13877,10.18105 -8.00265,3.12961 -21.28089,3.34305 -28.79417,0.46285 -6.80457,-2.60851 -15.09517,-11.19381 -18.85599,-19.52626 -1.65058,-3.65704 -3.64111,-6.64916 -4.42338,-6.64916 -0.78227,0 -5.51566,2.90327 -10.51863,6.4517 -12.87466,9.13157 -18.95914,12.79281 -28.43197,17.10845 -8.00614,3.64745 -8.87551,3.78836 -25.67599,4.16168 -15.50051,0.34443 -18.15779,0.11929 -24.46481,-2.07253 -8.48287,-2.94801 -17.91896,-10.74145 -23.1085,-19.08568 -2.05432,-3.30317 -3.9674,-6.21194 -4.25126,-6.46396 -0.28387,-0.252 -6.93658,4.58813 -14.7838,10.75583 -18.76716,14.75049 -22.41779,16.24423 -41.10986,16.82096 -12.71177,0.39222 -15.34347,0.15202 -20.18171,-1.84198 -7.87549,-3.24574 -16.79928,-11.76043 -23.02783,-21.97209 -6.57553,-10.78056 -7.0968,-10.43173 -12.40971,8.30427 -3.45924,12.19905 -4.14711,13.5529 -7.20053,14.172 -5.73131,1.16208 -12.30666,-0.52709 -16.79513,-4.31454 -4.70341,-3.96884 -6.56181,-8.65561 -7.95881,-20.07158 -0.50688,-4.14215 -1.36055,-7.53119 -1.89704,-7.53119 -0.53648,0 -4.47064,3.45625 -8.74255,7.68057 -9.56959,9.46296 -24.26241,19.19337 -34.95091,23.14644 -11.02851,4.07884 -27.30327,4.31817 -36.9555,0.54346 -8.99898,-3.51926 -16.61772,-10.9455 -21.67104,-21.12356 -7.86011,-15.83124 -7.53025,-15.6386 -24.29508,-14.18823 l -8.3547,0.72279 -6.74812,9.14045 c -8.92846,12.09379 -22.65383,23.21706 -31.6992,25.68955 -8.25912,2.2576 -25.38815,2.44839 -31.56407,0.3516 -2.44435,-0.8299 -7.12638,-3.86684 -10.4045,-6.74876 -5.80564,-5.10396 -14.06273,-17.32503 -14.06491,-20.81707 -6.1e-4,-0.9566 -0.8191,-2.64302 -1.81888,-3.74756 -1.65823,-1.83199 -3.15915,-0.8468 -17.09817,11.223 -18.41256,15.94346 -31.16519,27.92823 -33.464571,31.44958 -2.400805,3.67671 -4.7069,10.45109 -10.509905,30.8739 -6.845394,24.0914 -7.417346,25.1129 -14.036519,25.0697 -2.887312,-0.0189 -8.609542,-1.14854 -12.71605,-2.51041 z M 192.88451,240.69125 c 4.75479,-4.03883 10.85311,-14.00764 11.68202,-19.09633 0.37097,-2.27739 -0.60423,-7.93794 -2.2245,-12.91215 -3.2654,-10.02476 -3.81081,-24.42386 -1.30665,-34.49699 0.86812,-3.49206 1.15135,-6.69416 0.62943,-7.1158 -3.14387,-2.53977 -16.45246,17.50686 -21.10739,31.79395 -4.19635,12.87956 -5.26261,33.39928 -1.98503,38.2012 5.08624,7.45176 8.72345,8.37329 14.31212,3.62612 z m 492.60266,-0.89327 c 5.28147,-4.85938 25.74966,-37.909 31.68658,-51.16377 7.23511,-16.15302 5.33426,-21.86019 -7.28089,-21.86019 -7.61094,0 -14.73492,4.28879 -22.06086,13.28112 -11.30406,13.87533 -17.35085,30.21256 -17.38409,46.9684 -0.0154,7.50915 0.55099,10.2387 2.71795,13.10985 3.54219,4.69329 6.95688,4.60033 12.32131,-0.33541 z M 436.93961,203.87211 c 20.14492,-9.5298 33.92043,-24.1496 32.96089,-34.98107 -0.3912,-4.41591 -0.813,-4.94154 -4.21972,-5.25837 -2.97915,-0.27707 -5.44923,0.91076 -11.60078,5.57866 -12.09232,9.17585 -28.49002,28.07447 -31.52614,36.33438 -1.42669,3.88132 3.97057,3.25342 14.38575,-1.6736 z m 131.10125,-1.88088 c 12.53313,-5.13064 20.69686,-15.54923 21.93314,-27.99118 0.86143,-8.6695 -0.91818,-11.68894 -6.88927,-11.68894 -3.47937,0 -5.73989,1.17903 -11.09494,5.78685 -7.88968,6.78878 -18.51081,23.57393 -19.82752,31.33453 l -0.89526,5.27642 h 5.06758 c 2.78714,0 8.05498,-1.22296 11.70627,-2.71768 z M 314.51819,179.04707 c 19.2969,-17.33864 31.12537,-39.89316 32.38641,-61.75446 0.65247,-11.31096 0.53177,-12.0785 -1.84117,-11.70932 -3.95989,0.61606 -9.57258,8.03825 -17.99279,23.79349 -8.06656,15.09356 -22.64858,49.25321 -22.64858,53.0563 0,3.67355 3.57282,2.47532 10.09613,-3.38601 z"
     id="path1411"
     inkscape:connector-curvature="0" />
  <path
     style="fill:#f9f9f9;stroke:none;stroke-width:0.99999988"
     d="m 52.52143,330.78347 c -21.128706,-6.666 -22.942163,-20.71446 -5.55575,-43.03905 12.81236,-16.45139 20.006404,-29.78965 18.298997,-33.92761 -0.280261,-0.67924 -4.228984,1.10008 -8.774919,3.95402 -19.694752,12.36432 -29.661285,13.06729 -42.456958,2.99461 -7.6085493,-5.98939 -10.6947948,-13.6593 -10.6947948,-26.57853 0,-15.37437 4.9745927,-32.5516 19.7845618,-68.31591 7.704643,-18.60581 9.042517,-20.29587 16.06647,-20.29587 2.971514,0 7.152326,0.53552 9.290726,1.19005 13.568956,4.15324 13.635395,11.27458 0.426122,45.67068 -11.65315,30.34406 -15.031749,45.95284 -10.591142,48.93006 7.167631,4.80556 17.013578,-6.48034 41.227054,-47.25647 5.83034,-9.81843 13.523628,-23.78184 17.096212,-31.02979 7.051591,-14.30605 10.099441,-17.18757 16.834221,-15.91551 7.85307,1.48328 11.46416,3.24663 14.33602,7.00049 4.50521,5.88886 2.97984,12.81896 -9.70281,44.08194 -11.24579,27.72114 -12.29128,31.00843 -9.86188,31.00843 3.40506,0 25.67818,-24.83087 42.88957,-47.81483 19.73775,-26.35761 31.67841,-35.09905 50.03542,-36.62961 12.11982,-1.01051 16.33743,0.74924 26.78382,11.17523 5.02286,5.01305 10.02913,10.8083 11.12504,12.87832 1.14944,2.17118 2.53134,10.63166 3.26597,19.99529 1.56552,19.95476 1.82185,20.73046 6.5346,19.77492 5.56282,-1.12789 11.47995,-5.02325 13.46737,-8.86582 0.99362,-1.92112 4.72432,-11.76255 8.29044,-21.86985 15.81805,-44.83241 36.6221,-77.8254 56.35516,-89.373202 4.97056,-2.90878 6.50721,-3.19985 16.89288,-3.19985 10.7678,0 11.76173,0.20857 17.28041,3.62613 9.13338,5.65602 11.53799,10.47547 12.10389,24.259292 0.26434,6.43901 -0.26867,15.47644 -1.18453,20.08317 -4.34915,21.87644 -20.82767,46.23907 -42.19949,62.38974 -9.75292,7.3703 -16.51238,10.63622 -24.52786,11.85098 -6.45211,0.97784 -7.83977,3.05847 -7.83977,11.75464 0,9.43361 2.39184,15.1356 8.5387,20.35567 4.59493,3.90211 5.70785,4.32389 9.71945,3.68351 10.97605,-1.7521 31.88967,-17.5957 49.44128,-37.4554 16.97665,-19.20911 22.58571,-29.22255 47.53461,-84.86009 7.28819,-16.25311 14.29304,-30.178722 15.56631,-30.945782 4.83579,-2.91323 17.35912,-0.46689 25.13482,4.90989 11.09638,7.673002 9.40371,15.678162 -9.70525,45.898842 -7.50335,11.86649 -13.64245,21.79486 -13.64245,22.06304 0,1.42927 3.14911,-0.17538 12.46876,-6.35357 13.72289,-9.09719 21.79653,-12.10146 32.55867,-12.11538 9.64172,-0.0125 15.61809,2.50999 20.87372,8.81025 16.08765,19.28528 -1.49242,50.39766 -38.12138,67.46548 -15.0775,7.02558 -15.95989,10.05553 -5.33279,18.31189 9.29472,7.22118 19.18854,5.66288 34.62827,-5.45405 10.55653,-7.60093 15.607,-13.89695 33.47123,-41.72587 13.87844,-21.61988 15.84776,-24.08325 25.48594,-31.87956 12.82911,-10.37744 22.87688,-14.70329 35.68169,-15.36197 27.19805,-1.39906 39.98048,9.25859 38.62258,32.2025 -0.50865,8.59456 -1.23241,10.8832 -5.80594,18.35893 -6.32145,10.33282 -16.74303,19.14675 -27.812,23.52168 -6.81599,2.69396 -10.01983,3.19827 -23.07949,3.63297 l -15.1648,0.50476 0.80712,4.018 c 1.07986,5.37577 7.43464,12.51528 13.3411,14.98861 6.47493,2.71136 15.97252,1.74535 27.57724,-2.80492 17.07246,-6.69423 38.48706,-27.21922 50.36193,-48.26984 11.04716,-19.58331 28.39658,-36.20577 44.38476,-42.52498 10.09618,-3.99043 26.4562,-4.96815 37.75891,-2.25657 4.12432,0.98944 8.24978,1.79899 9.16767,1.79899 2.6547,0 7.17399,-8.89253 17.37652,-34.19138 5.23279,-12.97556 10.40994,-24.192512 11.5048,-24.926562 2.62473,-1.75976 14.70687,0.25786 20.09101,3.35502 6.13186,3.52728 10.19906,11.542442 10.1739,20.049482 -0.0376,12.74929 -7.28936,27.85515 -25.17857,52.44941 -9.7801,13.44577 -13.13475,19.11318 -15.85021,26.77756 -4.41659,12.46589 -7.85761,29.05524 -7.85761,37.88193 0,8.18526 0.33854,9.35372 3.4348,11.85502 3.29591,2.6626 3.60493,2.70372 7.64292,1.01683 5.6156,-2.34593 14.63174,-12.44477 23.34533,-26.14873 8.26683,-13.00129 10.64206,-13.96542 17.91642,-7.27238 5.66104,5.20865 6.15952,12.81003 1.41439,21.56878 -6.30451,11.63718 -28.81259,31.77956 -39.77795,35.59716 -7.94199,2.76499 -21.99916,2.37426 -28.33192,-0.78753 -5.56367,-2.77782 -11.74879,-8.92384 -14.62421,-14.53185 -0.95675,-1.86596 -2.28626,-3.39264 -2.9545,-3.39264 -0.66823,0 -5.05034,3.27599 -9.73805,7.27998 -4.68768,4.00398 -10.45598,8.24501 -12.81843,9.42452 -10.64976,5.31718 -27.10969,5.01007 -36.34105,-0.67806 -5.54932,-3.41934 -12.18459,-11.45047 -14.40414,-17.43436 -2.75717,-7.43312 -3.67526,-7.27096 -19.55655,3.4542 -8.05898,5.44249 -18.54775,11.59526 -23.30841,13.67284 -8.31059,3.6268 -9.34909,3.7934 -26.045,4.1782 -15.41271,0.35524 -18.17547,0.12759 -24.30608,-2.00297 -8.77375,-3.04911 -17.05035,-9.84595 -23.0667,-18.94261 l -4.71113,-7.12321 -14.51427,11.26415 c -19.0841,14.81065 -22.48694,16.19873 -41.12005,16.77365 -12.73293,0.39286 -15.33899,0.15386 -20.20959,-1.85346 -7.36175,-3.03403 -16.15415,-11.15295 -22.46147,-20.74101 -2.80361,-4.26191 -5.73408,-7.92036 -6.51219,-8.12987 -1.4772,-0.39781 -2.78106,2.9251 -7.29019,18.57922 -1.48838,5.16716 -3.5038,9.83316 -4.47873,10.36891 -0.97492,0.53575 -4.46719,0.7581 -7.76059,0.49412 -4.39245,-0.35206 -7.21925,-1.44403 -10.60887,-4.09808 -4.84534,-3.79386 -6.69296,-8.2831 -8.37892,-20.3585 -0.49376,-3.53661 -1.29579,-6.62892 -1.78226,-6.87182 -0.48648,-0.24288 -4.45404,3.0059 -8.81679,7.21953 -8.65602,8.36014 -23.29645,18.42458 -32.27121,22.18456 -11.75771,4.92591 -30.85715,5.26923 -41.67708,0.74916 -6.26548,-2.61742 -14.05948,-10.38427 -18.45143,-18.38716 -6.46424,-11.77899 -8.61198,-14.94107 -10.93038,-16.09265 -1.28384,-0.63772 -6.37373,-0.75485 -12.43008,-0.28608 l -10.25596,0.79385 -6.21504,8.39121 c -7.78257,10.50764 -19.08473,20.69379 -27.25037,24.55963 -4.89978,2.3197 -8.61022,3.07547 -17.03269,3.46936 -15.86061,0.74174 -19.878,-0.18926 -28.1767,-6.52969 -7.33452,-5.60377 -13.04851,-13.52663 -15.84806,-21.97448 -0.86429,-2.60802 -2.3946,-4.74186 -3.40069,-4.74186 -3.63825,0 -46.888057,39.2762 -50.110422,45.50648 -1.136484,2.19734 -4.824045,13.49138 -8.194562,25.09787 -3.370516,11.60648 -7.011843,22.81115 -8.091829,24.89925 -1.754302,3.39186 -2.523159,3.79097 -7.213282,3.74434 -2.887312,-0.0287 -8.288027,-1.01079 -12.001585,-2.1824 z m 139.07831,-89.28884 c 4.33678,-2.75582 13.38797,-17.00189 13.36541,-21.03646 -0.01,-1.60509 -1.24463,-6.93498 -2.74592,-11.84421 -3.07354,-10.05039 -3.6723,-26.77479 -1.2382,-34.58401 2.0715,-6.64584 1.16176,-8.29181 -2.72577,-4.93168 -13.63841,11.7882 -25.1389,46.43615 -20.89492,62.95102 1.59398,6.20276 5.77506,11.71023 8.88999,11.71023 0.98185,0 3.38909,-1.0192 5.34941,-2.26489 z m 493.38525,-1.61878 c 2.49369,-2.13601 9.52485,-12.05208 15.6248,-22.0357 22.98209,-37.6142 25.89196,-48.67568 13.30653,-50.58304 -7.55253,-1.14461 -11.87865,0.34528 -19.56597,6.7384 -7.87471,6.54897 -16.76627,20.16376 -20.42264,31.27126 -2.66444,8.09417 -4.25179,24.34471 -2.93278,30.02462 0.96451,4.15329 4.98615,8.46813 7.89273,8.46813 0.85983,0 3.60363,-1.74766 6.09733,-3.88367 z M 438.61831,202.92211 c 17.51046,-8.5898 29.58302,-20.77201 30.95354,-31.23474 1.47467,-11.25779 -5.14724,-10.93644 -19.17709,0.93065 -13.78174,11.65722 -30.27272,32.58099 -27.46574,34.8486 1.49425,1.20711 7.52629,-0.54012 15.68929,-4.54451 z m 129.77959,-1.33745 c 12.62097,-5.32635 21.91592,-18.37782 21.91592,-30.77319 0,-9.67747 -7.30197,-11.52735 -16.42149,-4.16019 -9.83206,7.94278 -22.24986,27.72375 -22.24986,35.44296 0,2.22758 0.6923,2.61467 4.67621,2.61467 2.5719,0 8.00757,-1.40591 12.07922,-3.12425 z m -253.95859,-22.7285 c 18.79519,-16.1726 32.79746,-43.90883 32.79746,-64.96651 0,-12.25676 -3.86731,-11.09193 -13.2428,3.98871 -3.35142,5.3908 -8.50317,14.70654 -11.44833,20.70164 -6.22543,12.67235 -18.12358,41.75717 -18.12358,44.30282 0,3.12936 3.19187,1.84632 10.01725,-4.02666 z"
     id="path1413"
     inkscape:connector-curvature="0" />
  <path
     style="fill:#e6e6e6;stroke:none;stroke-width:0.99999988"
     d="m 59.033583,331.85281 c -7.474688,-1.19397 -12.636245,-3.41934 -17.480187,-7.53643 -7.942712,-6.75092 -7.311219,-16.26886 2.001665,-30.16944 15.627671,-23.32614 21.933317,-33.96931 21.933317,-37.02072 0,-1.82882 -0.665496,-3.32511 -1.478896,-3.32511 -0.813401,0 -5.397457,2.2589 -10.186793,5.01979 -10.229553,5.89701 -16.9962,8.36898 -22.908728,8.36898 -5.585834,0 -9.044962,-1.5068 -16.158752,-7.0388 -16.4213438,-12.76994 -14.60871612,-36.24437 6.861756,-88.86333 9.760963,-23.92177 11.597068,-26.14158 20.697621,-25.02285 13.727002,1.68747 17.674617,6.7917 14.842465,19.19121 -0.93646,4.09994 -4.457831,14.96424 -7.825275,24.14289 -14.599972,39.79514 -16.400124,53.04478 -7.206904,53.04478 3.282981,0 10.958508,-7.21894 17.936947,-16.86991 7.328289,-10.13482 24.803605,-39.34757 34.29305,-57.32624 9.710491,-18.39747 11.529451,-20.64104 16.734521,-20.64104 5.82574,0 12.99039,2.60891 15.67831,5.70905 4.99911,5.76579 3.17965,13.57872 -12.14759,52.16253 -10.28652,25.8947 -10.15733,28.0384 1.08122,17.94035 5.7901,-5.20253 18.80301,-20.50525 41.22274,-48.4765 17.41331,-21.72519 27.60846,-28.44216 44.49915,-29.31785 13.11841,-0.68012 16.51877,0.82511 27.72351,12.27226 10.16539,10.38532 10.80205,12.08058 13.09042,34.85667 0.79926,7.95516 2.02077,14.92239 2.71444,15.48278 2.10755,1.70257 8.54916,-0.30213 13.29799,-4.13845 3.3421,-2.6999 5.42318,-6.17716 8.14052,-13.60195 19.83331,-54.19163 34.27014,-79.88698 53.96836,-96.055352 9.18964,-7.5429 10.14575,-8.02216 17.48086,-8.76252 10.82423,-1.09252 17.77757,0.12533 23.86702,4.18026 8.66286,5.76855 10.32526,10.225842 10.36026,27.778082 0.0334,16.70737 -2.64504,26.94572 -10.89343,41.64158 -12.02267,21.4204 -36.59446,43.03013 -53.42182,46.98199 -4.20795,0.98822 -8.08411,2.66629 -8.85832,3.83494 -2.14421,3.23662 -1.65379,17.37952 0.76511,22.06465 2.88426,5.58643 10.05822,11.40041 14.06715,11.40041 9.39273,0 30.72689,-15.07992 48.93262,-34.58769 14.99293,-16.0652 26.87166,-36.01239 45.1811,-75.86975 21.34467,-46.464652 19.53569,-43.518722 26.7045,-43.489042 7.62272,0.0315 16.08873,3.16721 20.82301,7.71246 7.60733,7.303572 4.71962,16.406122 -15.60006,49.173962 -5.31438,8.57004 -9.66251,15.83963 -9.66251,16.15464 0,1.55259 3.3255,-0.007 13.28349,-6.23108 12.86593,-8.04122 16.09821,-9.4911 24.58356,-11.0273 21.43635,-3.88089 36.92177,10.65224 32.49059,30.49253 -3.42568,15.33827 -17.70108,30.71957 -39.24389,42.28405 -6.85775,3.68134 -13.24551,7.48086 -14.19503,8.44341 -3.74188,3.79317 -0.77297,8.96059 8.23169,14.32748 9.20758,5.48779 21.70652,1.69937 36.47682,-11.05611 8.81637,-7.61373 13.72458,-14.05087 32.41253,-42.50914 20.21599,-30.78516 36.82371,-42.06789 62.13761,-42.21425 16.89439,-0.0977 28.10289,5.4322 31.59412,15.5874 2.51451,7.31418 1.77919,22.86265 -1.40654,29.74116 -5.88632,12.7095 -21.19574,25.52441 -34.70116,29.04697 -3.27562,0.85437 -12.01533,1.88555 -19.42158,2.29152 -13.11543,0.71892 -13.46592,0.80917 -13.46592,3.46778 0,6.37754 9.67106,16.26331 17.45385,17.84133 9.86666,2.00052 27.3854,-3.85755 40.20138,-13.44293 12.1345,-9.07567 22.53951,-20.72686 33.62059,-37.64725 11.69881,-17.86363 19.19876,-26.50533 30.04159,-34.61493 10.06908,-7.5309 18.01854,-10.77819 29.64015,-12.10776 8.1838,-0.93626 11.4931,-0.72279 29.5049,1.9033 5.61912,0.81926 5.64973,0.77068 18.90277,-30.00705 5.74245,-13.33576 11.11211,-25.260142 11.93259,-26.498622 2.01973,-3.04876 8.80313,-2.94281 16.55869,0.25859 7.7654,3.20548 10.68143,6.52162 12.74593,14.494782 3.18122,12.28596 -2.75031,28.00808 -19.68242,52.1702 -5.37536,7.67065 -11.95731,17.63368 -14.6265,22.14008 -6.52387,11.01417 -11.48543,28.90156 -12.51345,45.11351 -0.80351,12.67128 -0.71871,13.23914 2.37467,15.89918 1.76439,1.51722 4.01027,2.75857 4.99085,2.75857 5.05826,0 19.1019,-14.58192 28.47544,-29.56689 1.91928,-3.06827 4.8105,-6.54295 6.42494,-7.72152 2.91114,-2.12523 2.96896,-2.11681 7.02294,1.02083 9.43359,7.30129 8.52703,17.40693 -2.78748,31.07295 -8.95135,10.81171 -28.34785,25.8396 -35.39005,27.41928 -17.39832,3.90271 -30.66553,-0.96813 -39.12528,-14.36426 -1.56758,-2.48225 -3.53038,-4.5132 -4.36179,-4.5132 -0.83141,0 -6.34246,3.79775 -12.24678,8.43944 -8.12854,6.39028 -12.3352,8.82846 -17.32489,10.04159 -18.48271,4.49363 -32.02848,-1.04404 -41.51059,-16.97004 -2.68696,-4.51296 -5.63597,-8.20539 -6.55339,-8.20539 -2.06912,0 -5.08662,1.69525 -21.61829,12.14524 -19.29035,12.19381 -23.42714,13.47008 -44.4243,13.70567 -15.28236,0.17147 -17.97897,-0.0889 -23.57155,-2.27601 -7.79814,-3.04962 -17.60684,-11.36312 -22.37454,-18.96381 -1.97575,-3.14975 -3.95803,-5.72681 -4.40511,-5.72681 -0.44707,0 -7.67254,5.04492 -16.05659,11.21096 -8.38408,6.16602 -17.12808,11.99813 -19.43114,12.96024 -4.90102,2.04742 -26.49684,3.73049 -33.84219,2.63749 -2.79495,-0.41588 -6.40699,-1.33221 -8.02677,-2.03626 -4.74459,-2.06228 -14.83924,-11.75689 -21.08383,-20.24832 -3.1837,-4.32922 -6.3341,-7.8713 -7.00088,-7.8713 -1.35808,0 -3.00835,3.82338 -6.26048,14.5045 -4.50919,14.80985 -4.27092,14.50451 -11.31854,14.50451 -5.40789,0 -6.98512,-0.57737 -11.46627,-4.19744 -5.23151,-4.22626 -6.32555,-6.79446 -9.02486,-21.18544 -0.48917,-2.60803 -1.37364,-4.74187 -1.96545,-4.74187 -0.59181,0 -7.86121,5.43811 -16.1542,12.08469 -20.35478,16.3137 -28.58381,19.72892 -47.41536,19.6784 -9.4885,-0.0254 -14.31733,-0.54473 -17.35988,-1.86687 -7.18044,-3.12022 -15.00347,-11.07831 -21.17427,-21.5398 -8.01353,-13.58554 -8.48678,-13.93828 -18.67534,-13.91984 -12.83377,0.0232 -13.89488,0.51442 -20.99679,9.71945 -8.33292,10.80061 -21.15657,21.84246 -28.87066,24.85923 -8.00339,3.1299 -28.18967,3.63947 -34.5837,0.87303 -9.15584,-3.96139 -18.13306,-14.1329 -24.16327,-27.37789 -0.90801,-1.99437 -2.44218,-3.62613 -3.40923,-3.62613 -3.71139,0 -44.356992,36.55046 -49.688242,44.68199 -1.024825,1.56314 -5.322536,13.86408 -9.550443,27.33543 -7.076209,22.54676 -9.587675,27.72735 -13.167034,27.16045 -0.424525,-0.0673 -3.365769,-0.53657 -6.536108,-1.04299 z M 192.83754,240.69125 c 5.14967,-4.43192 12.14938,-16.34333 12.11097,-20.60922 -0.0181,-2.01187 -0.63057,-5.66626 -1.36099,-8.12086 -3.11669,-10.47362 -4.17339,-24.0788 -2.65412,-34.17287 0.83467,-5.54576 1.15852,-10.3733 0.71963,-10.72785 -2.65935,-2.14834 -12.58343,11.20697 -18.1469,24.42115 -9.27515,22.02998 -9.77742,42.49072 -1.2304,50.12031 3.32315,2.96643 6.36116,2.7045 10.56181,-0.91066 z m 492.79745,-1.11572 c 5.0432,-4.83034 28.68713,-43.22309 32.98433,-53.55957 5.50155,-13.23348 3.0555,-19.24194 -7.83344,-19.24194 -9.8197,0 -19.72929,7.5289 -29.05452,22.07443 -7.93086,12.37056 -10.02891,19.01478 -10.82151,34.27002 -0.63174,12.15875 -0.43435,13.72192 2.14856,17.01492 3.72616,4.75052 7.19489,4.59665 12.57658,-0.55786 z m -249.8301,-35.03262 c 19.42259,-8.36294 35.06417,-24.71845 34.09561,-35.65187 -0.38547,-4.35126 -0.84267,-4.9446 -4.04125,-5.24445 -6.94037,-0.65066 -27.52922,17.53673 -39.09516,34.53511 -2.72077,3.99871 -4.94686,7.85628 -4.94686,8.57239 0,2.28823 5.59037,1.40449 13.98766,-2.21118 z m 133.45856,-3.21964 c 12.63786,-5.85502 21.05037,-17.95957 21.05037,-30.28882 0,-11.13003 -8.79295,-12.12796 -19.34506,-2.19553 -7.4644,7.02606 -18.04848,24.13696 -18.95675,30.64673 l -0.72877,5.22326 5.35881,-0.01 c 3.41558,-0.006 7.99241,-1.2306 12.6214,-3.37518 z M 314.30352,179.32601 c 12.06044,-10.45062 21.57443,-24.12926 28.13115,-40.44528 3.09079,-7.69123 3.83951,-11.67819 3.96134,-21.09427 0.10223,-7.89926 -0.36135,-11.75202 -1.45017,-12.05315 -2.72971,-0.75496 -8.69995,6.83858 -16.6034,21.11775 -8.15835,14.73975 -23.91476,51.1457 -23.91823,55.26428 -0.004,3.89948 3.20581,2.99342 9.87931,-2.78933 z"
     id="path1415"
     inkscape:connector-curvature="0" />
</svg>
